<svg xmlns="http://www.w3.org/2000/svg" viewBox="0 0 200 200"><defs><style>.cls-1{fill:#7c4bc2;fill-rule:evenodd;}</style></defs><g id="Camada_5" data-name="Camada 5"><path class="cls-1" d="M12,0H188V200H12ZM146.54,167.66c-8.16,0-12.77-4.83-16.31-11.41l-13.44,8.87c4.85,10.9,14.78,19.22,30.14,19.22,15.7,0,27.4-9.27,27.4-26.19,0-15.69-7.93-22.67-22-29.52l-4.13-2c-7.1-3.5-10.17-5.78-10.17-11.42,0-4.56,3.07-8,7.92-8s7.8,2.27,10.64,8l12.88-9.39c-5.45-10.89-13-15-23.52-15-14.77,0-24.23,10.73-24.23,24.82,0,15.31,7.93,22.54,19.87,28.32l4.13,2c7.55,3.75,12,6,12,12.47C157.77,163.77,153.39,167.66,146.54,167.66Zm-64.09-.11c-5.68,0-8-4.43-10.65-9.67l-13.46,9.26c3.9,9.38,11.57,17.17,24.81,17.17,14.66,0,24.7-8.86,24.7-28.32V91.83H91.31v63.91C91.31,165.13,87.88,167.55,82.45,167.55Z"/></g></svg>