<svg xmlns="http://www.w3.org/2000/svg" viewBox="0 0 200 200"><defs><style>.cls-1{fill:#3c95df;}</style></defs><g id="Camada_8" data-name="Camada 8"><path class="cls-1" d="M143.18,79.32c-10.53-46.34-35.35-61.56-38-67.39C102.23,7.83,99.05,0,99.05,0c0,.16,0,.26,0,.41V.52h0c0,.12,0,.2,0,.32V1h0c0,.08,0,.15,0,.21V1.4h0c0,.07,0,.15,0,.21v.17h0a.52.52,0,0,1,0,.18v.16h0a2.28,2.28,0,0,1,0,.27v0c0,.14,0,.28-.07.42v.06h0a.54.54,0,0,0,0,.1v.14h0v.19h0v.15h0v.17h0V3.8h0v.14h0v.12h0v.15h0v.11h0v.11h0v.13h0a0,0,0,0,0,0,0v.08h0a.11.11,0,0,0,0,0v0h0s0,.07,0,.09L98.15,5v0l0,.06v.06h0v.07h0v.07h0v.08H98v.12h0v0h0v.07h0V5.7h0v.07h0v.09h0v.07h0V6h0v.09h0v.06h0v.05h0v.07h0v.07h0v0h0v.07h0v.09h0v0h0v.07h0v0h0v.09h0v0h0v.07h0v0h0l0,0V7h0s0,0,0,0h0l0,.06v0h0a1.3,1.3,0,0,0-.1.15h0l-.08.08v0h0l0,0v0h0l0,0h0s0,0,0,0v0h0l0,0h0s0,0,0,0v0h0l0,0v0h0v0h0v0h0v.07h0V7.75h0v0h0v0h0V7.9h0v0h0V8h0V8h0v.06h0v0h0v.05H96.1v0h0v0h0v.09h0v0H96v0h0v0h0v0h-.05v.08h0v0h0v0h0v.05h0v0h0v0h0v0h0v.08h0v0h0v0h0v0h0V9h0V9h0v.06h0v0h0v.05h0v0h0v0h0v0h0v.05h0v0h0v0h0l0,0,0,0v.05h0v0h0v0h0v0h0l0,0v0h0l0,0v0h0a1.42,1.42,0,0,1-.12.13l-.1.09a2.5,2.5,0,0,0-.33.26l-.18.15h0l-.41.33h0l-.61.51h0c-.47.39-1,.83-1.55,1.32h0c-1.41,1.23-3.08,2.82-5,4.73l-.12.13,0,0C75,29.12,57.15,53.55,55.27,93a86.51,86.51,0,0,0,0,9.54v.07a90.77,90.77,0,0,0,11.9,39.63h0A103.73,103.73,0,0,0,74.94,154h0a106.69,106.69,0,0,0,21,21.05c3.67,8.53,3.33,23.16,3.33,23.16l5.37,1.79s-1.09-14.18.44-21a12.9,12.9,0,0,1,2.91-5.51,70.79,70.79,0,0,0,6.64-5.38c.15-.16.23-.3.37-.45,12.67-11.82,36.35-40.92,28.23-88.32Z"/></g></svg>