<svg xmlns="http://www.w3.org/2000/svg" viewBox="0 0 200 200"><defs><style>.cls-1{fill:#26aee8;}</style></defs><g id="Camada_9" data-name="Camada 9"><path class="cls-1" d="M100,0c55,0,100,45,100,100S155,200,100,200,0,155,0,100,45,0,100,0ZM80,133.13a30.32,30.32,0,0,1,0,15L79.37,150a2.17,2.17,0,0,1-.62,1.25,42.8,42.8,0,0,1-4.37,6.88c-5.63,6.25-13.75,8.74-17.51,6.87s-1.87-11.25,5-18.12a76.89,76.89,0,0,1,17.49-12.5ZM162.5,42.5c-4.37-17.5-33.75-23.75-61.88-13.75C84.38,35,66.25,44.37,53.12,56.25,37.5,70.63,35.63,83.13,36.25,88.12,40,106.25,65,118.75,75.62,127.5,72.5,128.75,50,140,45,151.88c-5.63,12.5.62,21.24,5,21.87,13.12,3.75,26.88-3.12,33.75-13.75s6.25-23.75,3.13-30.63a29.43,29.43,0,0,1,15-.62c17.49,1.88,21.24,13.12,20,17.5s-4.38,6.87-5.63,8.12c-1.25.63-1.87,1.25-1.25,1.25,0,.63.62.63,1.87.63s9.38-3.75,9.38-12.5c.63-10.62-10-22.5-28.13-22.5-7.5,0-12.5.63-15.62,1.87a.61.61,0,0,0-.63-.62C70.63,110.62,50,101.88,50.62,85.62c0-5.62,2.5-21.25,40-40,30.63-15.62,55.63-11.24,60-1.87,6.25,13.12-13.13,38.12-45,41.87-12.5,1.26-18.75-3.12-20-5-1.87-1.88-1.87-1.88-2.49-1.88-1.26.62-.63,1.88,0,3.12,1.25,2.51,5,6.88,11.87,9.38,5.62,1.88,20,3.12,37.5-3.75,19.38-7.5,34.37-28.12,30-45.62Z"/></g></svg>