<svg xmlns="http://www.w3.org/2000/svg" viewBox="0 0 200 200"><defs><style>.cls-1{fill:#11c7f2;}</style></defs><g id="Camada_10" data-name="Camada 10"><path class="cls-1" d="M184.66,91.08,107.82,3.77a10.43,10.43,0,0,0-16,0h0L75.85,21.89l20.24,23a11.87,11.87,0,0,1,4.33-.8c7.44,0,13.48,6.85,13.48,15.31a17.07,17.07,0,0,1-.77,5.11l0-.11,19.49,22.17a11.7,11.7,0,0,1,4.38-.83c7.44,0,13.47,6.85,13.47,15.31s-6,15.31-13.47,15.31-13.47-6.86-13.47-15.31a17,17,0,0,1,1-5.89l0,.1L106.3,74.63V129a15.68,15.68,0,0,1,7.51,13.74c0,8.47-6,15.34-13.5,15.34s-13.5-6.87-13.5-15.34a16.42,16.42,0,0,1,3.94-10.82h0a14,14,0,0,1,4.35-3.35l.09,0V73.63c-4.94-2.36-8.35-7.83-8.35-14.18a17,17,0,0,1,1.08-6l0,.1L68,30.83,15.3,90.68a14.25,14.25,0,0,0,0,18.24l76.85,87.31a10.42,10.42,0,0,0,16,0l76.48-86.92a14.13,14.13,0,0,0,0-18.22h0Z"/></g></svg>