<?xml version="1.0" encoding="utf-8"?>
<!-- Generator: Adobe Illustrator 26.0.0, SVG Export Plug-In . SVG Version: 6.00 Build 0)  -->
<svg version="1.1" id="Camada_3" xmlns="http://www.w3.org/2000/svg" xmlns:xlink="http://www.w3.org/1999/xlink" x="0px" y="0px"
	 viewBox="0 0 1920 1080" style="enable-background:new 0 0 1920 1080;" xml:space="preserve">
<style type="text/css">
	.st0{opacity:0.5;}
	.st1{fill:#FFAA7B;}
	.st2{fill:#95B0B4;}
	.st3{fill:none;stroke:#1D1D1B;stroke-miterlimit:10;}
	.st4{fill:none;stroke:#000000;stroke-miterlimit:10;}
	.st5{opacity:0.7;fill:none;stroke:#1D1D1B;stroke-miterlimit:10;}
</style>
<g class="st0">
	<path class="st1" d="M605.7,1090.7c10.9,6.8,51.3,31.1,64.9,19c13.5-12.1-1.8-57.9-28.5-85.5c-21.1-21.8-51.3-34.3-68-41.1
		c-17.1-7-25.9-8.4-43-18.3c-12.5-7.2-27.4-15.8-39.3-30.8c-17.1-21.4-19.8-45.2-22.2-68c-4.9-48.4,10.3-57.2,0-82.3
		c-10.5-25.5-35.1-37.9-57-49.1c-39.8-20.2-51.3-8.3-96.5-30.1c-21.9-10.5-43.3-21.2-57-44.3c-2.1-3.6-2.9-5.5-17.4-44.3
		c-15.8-42.3-16.1-43.1-17.4-45.9c0,0-17.2-35.6-55.4-57c-46.7-26.1-136.8,3.5-205.7,85.5c0,177.2,0,354.5,0,531.7"/>
	<path class="st2" d="M390.5,1097.1c16.1-212.7-29.6-287.1-76-314.9c-48.4-29-110.1-14.9-147.2-66.5c-28.3-39.5-8.9-71.1-33.2-113.9
		c-17.9-31.4-58.2-66.8-158.2-80.7v576"/>
</g>
<line class="st3" x1="-36.7" y1="1130.3" x2="605.7" y2="1130.3"/>
<line class="st3" x1="605.7" y1="1090.7" x2="605.7" y2="1130.3"/>
<line class="st4" x1="390.5" y1="1097.1" x2="-24.1" y2="1097.1"/>
<g class="st0">
	<path class="st2" d="M1934.9,136.5c-31-14.1-78.3-29.3-128.2-15.8c-41.5,11.2-45.4,31.6-98.1,53.8c-22.9,9.7-88.6,37.4-155.1,17.4
		c-45.2-13.6-40.1-34-96.5-57c-26.8-10.9-81.4-35.4-134.5-15.8c-49.9,18.4-58.6,59.4-99.7,61.7c-43,2.4-91-39.2-104.4-90.2
		c-14.7-55.6,17.4-101.1,22.2-107.6h794.4V136.5"/>
	<path class="st1" d="M1939.7,294.8c-6.8,0.5-8.6-69.3-47.5-83.9c-23.6-8.8-38,11.2-93.4,14.2c-28.7,1.6-49.4,2.7-68-9.5
		c-28.5-18.7-16.9-45.4-44.3-71.2c-28.9-27.1-80.9-34.4-109.2-14.2c-18.7,13.3-10.6,29-31.6,45.9c-22.1,17.7-50.6,16.7-77.5,15.8
		c-6.9-0.2-34-1.5-66.5-14.2c-31.6-12.3-51.1-29.4-55.4-33.2c-11.2-9.9-24.1-21.3-33.2-41.1c0,0-9.8-21.4-9.5-44.3
		c0.5-40.2,51.6-88.8,129.8-110.8c168.8,0,337.6,0,506.4,0C1950,221.6,1946.6,294.3,1939.7,294.8z"/>
</g>
<path class="st1" d="M1756.1,315.4"/>
<path class="st5" d="M-9.8,604.9c112.8-31.1,153.3-15.5,169.3,4.7c36.8,46.6-20.5,162.4-3.2,169.3c9.6,3.8,27-29.6,47.5-25.3
	c36.8,7.6,17.8,71,53.8,82.3c28.2,8.9,49.1-50.5,94.2-48.7c29.5,1.2,54.7,27.7,65.1,51.9c0.9,2,18.4,43.9,0.1,62
	c-17.6,17.5-47-8.8-73.6,7.1c-32.8,19.7-17.4,77.4-48.7,90.2c-11,4.5-19.1-0.1-35.6-3.6c-45.2-9.4-79,5.7-113.9,15
	c-34.2,9.1-86,17.1-159.8,9.5"/>
<path class="st5" d="M1930.2,173.7c-60.5-15.1-105-36.8-135.3-54.6c-68.7-40.3-90.7-75.9-130.5-68.8c-22.5,4-43.5,22.4-85.5,59.3
	c-31.4,27.6-34,36.3-52.2,42.7c-35.8,12.7-72.7-4.1-94.9-14.2c-61.3-27.9-63.9-61.7-102.1-64.1c-39.2-2.5-52.7,32.1-83.1,28.5
	c-23-2.8-54-27.2-83.1-132.9"/>
</svg>
