<?xml version="1.0" encoding="utf-8"?>
<!-- Generator: Adobe Illustrator 26.0.0, SVG Export Plug-In . SVG Version: 6.00 Build 0)  -->
<svg version="1.1" id="Camada_3" xmlns="http://www.w3.org/2000/svg" xmlns:xlink="http://www.w3.org/1999/xlink" x="0px" y="0px"
	 viewBox="0 0 1920 1080" style="enable-background:new 0 0 1920 1080;" xml:space="preserve">
<style type="text/css">
	.st0{opacity:0.5;}
	.st1{fill:#95B0B4;}
	.st2{fill:#FFAA7B;}
	.st3{fill:none;stroke:#1D1D1B;stroke-miterlimit:10;}
	.st4{fill:none;stroke:#000000;stroke-miterlimit:10;}
	.st5{opacity:0.7;fill:none;stroke:#000000;stroke-miterlimit:10;}
</style>
<g class="st0">
	<path class="st1" d="M605.7,1090.7c10.9,6.8,51.3,31.1,64.9,19c13.7-12.3-5-59-28.5-85.5c-14.6-16.4-32.1-26.3-35.2-28.1
		c-11.8-6.6-22.4-10.1-28.5-11.9c-18.7-5.4-23.7-2.5-38-5.9c-6.6-1.6-34.2-8.6-46.3-29.7c-7.8-13.6-2.9-18.8-7.1-54.2
		c-3.8-31.6-5.9-47.7-17.8-62.1c-12.8-15.5-30.3-21.8-35.6-23.7c-10-3.6-15.1-3.3-35.6-5.9c-29.7-3.8-44.5-5.7-48.7-8.3
		c-28.2-17.8-2.9-65.5-33.2-89.8c-10.2-8.2-40-24.5-47.3-31.6c-3.4-3.3-6.6-7.4-9.7-12.7c-2.1-3.6-2.9-5.5-17.4-44.3
		c-5.8-15.5-11.4-35.6-17.4-45.9c-17-29.3-55.5-37.2-74.4-41.1c-89-18.4-175.9,59.6-186.7,69.6c0,177.2,0,354.5,0,531.7"/>
	<path class="st2" d="M390.5,1097.1c172.2,10.3,213.7-2.4,216.8-17.1c4.2-20.2-61.8-56.5-120.3-74.7c-109.7-34.1-188-2.7-204.1-36.4
		c-15.4-32.2,47.7-78.4,30.1-109.2c-17.4-30.3-88.1-2.3-107.6-33.2c-20.6-32.7,45.6-83.6,26.9-132.9c-11.7-30.9-47.1-35.8-99.7-60.1
		c-42.2-19.5-98-52.6-156.7-112.4c0,192,0,384,0,576"/>
</g>
<line class="st3" x1="-36.7" y1="1130.3" x2="605.7" y2="1130.3"/>
<line class="st3" x1="605.7" y1="1090.7" x2="605.7" y2="1130.3"/>
<line class="st4" x1="390.5" y1="1097.1" x2="-24.1" y2="1097.1"/>
<g class="st0">
	<path class="st2" d="M1976.1,136.5c-31-14.1-78.3-29.3-128.2-15.8c-41.5,11.2-45.4,31.6-98.1,53.8c-22.9,9.7-88.6,37.4-155.1,17.4
		c-45.2-13.6-40.1-34-96.5-57c-26.8-10.9-81.4-35.4-134.5-15.8c-49.9,18.4-58.6,59.4-99.7,61.7c-43,2.4-91-39.2-104.4-90.2
		c-14.7-55.6,17.4-101.1,22.2-107.6h794.4V136.5"/>
	<path class="st1" d="M1980.8,294.8c-6.8,0.5-8.6-69.3-47.5-83.9c-23.6-8.8-38,11.2-93.4,14.2c-28.7,1.6-49.4,2.7-68-9.5
		c-28.5-18.7-16.9-45.4-44.3-71.2c-28.9-27.1-80.9-34.4-109.2-14.2c-18.7,13.3-10.6,29-31.6,45.9c-22.1,17.7-50.6,16.7-77.5,15.8
		c-6.9-0.2-34-1.5-66.5-14.2c-31.6-12.3-51.1-29.4-55.4-33.2c-11.2-9.9-24.1-21.3-33.2-41.1c0,0-9.8-21.4-9.5-44.3
		c0.5-40.2,51.6-88.8,129.8-110.8c168.8,0,337.6,0,506.4,0C1991.1,221.6,1987.7,294.3,1980.8,294.8z"/>
</g>
<path class="st2" d="M1797.3,315.4"/>
<path class="st5" d="M-8.3,644.5c76.4-45.3,112.6-42.8,131.3-30.1c23.9,16.3,18.7,48.9,50.6,82.3c20.1,21,49.2,30,74.4,39.6
	c38,14.4,52,12.1,61.7,26.9c10.8,16.4-0.3,28.8,1.6,66.5c1.1,23.2,2.9,58.6,23.7,79.1c28.9,28.5,67.3,1.3,98.1,28.5
	c25.2,22.2,32.7,69.5,14.2,93.4c-27.8,35.9-106.8,8.9-123.4,3.2c-46.3-15.8-76.4-43.1-115.5-79.1c-59-54.4-61.7-75.9-99.7-96.5
	c-44.3-24-91.9-22.5-125-17.4"/>
<path class="st4" d="M1249.8-59.7c-2.5,6-25,61.5,4.7,106c31.8,47.6,98,44.8,109.2,44.3c60.5-2.6,68.8-40.8,126.6-41.1
	c22.9-0.1,51.1,11,107.6,33.2c59.5,23.4,71.9,35.3,96.5,30.1c32.7-6.9,30.6-32,69.6-49.1c33.5-14.7,84.3-17.8,120.3,11.1
	c24.1,19.4,32.6,45.9,35.7,58.5"/>
</svg>
