<svg xmlns="http://www.w3.org/2000/svg" xmlns:xlink="http://www.w3.org/1999/xlink" viewBox="0 0 1920 380.66"><defs><style>.cls-1{isolation:isolate;}.cls-2{fill:#1c1c1c;}.cls-10,.cls-11,.cls-12,.cls-13,.cls-14,.cls-15,.cls-16,.cls-17,.cls-18,.cls-19,.cls-20,.cls-21,.cls-22,.cls-23,.cls-24,.cls-26,.cls-27,.cls-28,.cls-29,.cls-3,.cls-30,.cls-31,.cls-32,.cls-33,.cls-34,.cls-35,.cls-36,.cls-37,.cls-38,.cls-39,.cls-4,.cls-40,.cls-41,.cls-42,.cls-43,.cls-44,.cls-45,.cls-49,.cls-5,.cls-6,.cls-7,.cls-8,.cls-9{fill:none;}.cls-3{stroke:#1c1c1c;stroke-dasharray:0 8.97 0 8.97 0 8.97;}.cls-10,.cls-11,.cls-12,.cls-13,.cls-14,.cls-15,.cls-16,.cls-17,.cls-18,.cls-19,.cls-20,.cls-21,.cls-22,.cls-23,.cls-24,.cls-26,.cls-27,.cls-28,.cls-29,.cls-3,.cls-30,.cls-31,.cls-32,.cls-33,.cls-34,.cls-35,.cls-36,.cls-37,.cls-38,.cls-39,.cls-4,.cls-40,.cls-41,.cls-42,.cls-49,.cls-5,.cls-6,.cls-7,.cls-8,.cls-9{stroke-linecap:round;stroke-linejoin:round;}.cls-10,.cls-11,.cls-12,.cls-13,.cls-14,.cls-15,.cls-16,.cls-17,.cls-18,.cls-19,.cls-20,.cls-21,.cls-22,.cls-23,.cls-24,.cls-26,.cls-27,.cls-28,.cls-29,.cls-3,.cls-30,.cls-31,.cls-32,.cls-33,.cls-34,.cls-35,.cls-36,.cls-37,.cls-38,.cls-39,.cls-4,.cls-40,.cls-41,.cls-42,.cls-5,.cls-6,.cls-7,.cls-8,.cls-9{stroke-width:2px;}.cls-4{stroke-dasharray:0 8.99 0 8.99 0 8.99;stroke:url(#Gradiente_sem_nome_1129);}.cls-5{stroke-dasharray:0 9.03 0 9.03 0 9.03;stroke:url(#Gradiente_sem_nome_1128);}.cls-6{stroke-dasharray:0 8.97 0 8.97 0 8.97;stroke:url(#Gradiente_sem_nome_1127);}.cls-7{stroke-dasharray:0 9.03 0 9.03 0 9.03;stroke:url(#Gradiente_sem_nome_1126);}.cls-8{stroke-dasharray:0 8.99 0 8.99 0 8.99;stroke:url(#Gradiente_sem_nome_1125);}.cls-9{stroke-dasharray:0 8.95 0 8.95 0 8.95;stroke:url(#Gradiente_sem_nome_1124);}.cls-10{stroke-dasharray:0 9.03 0 9.03 0 9.03;stroke:url(#Gradiente_sem_nome_1123);}.cls-11{stroke-dasharray:0 9.02 0 9.02 0 9.02;stroke:url(#Gradiente_sem_nome_1122);}.cls-12{stroke-dasharray:0 9.01 0 9.01 0 9.01;stroke:url(#Gradiente_sem_nome_1121);}.cls-13{stroke-dasharray:0 9.01 0 9.01 0 9.01;stroke:url(#Gradiente_sem_nome_1120);}.cls-14{stroke-dasharray:0 9.02 0 9.02 0 9.02;stroke:url(#Gradiente_sem_nome_1119);}.cls-15{stroke-dasharray:0 9.03 0 9.03 0 9.03;stroke:url(#Gradiente_sem_nome_1118);}.cls-16{stroke-dasharray:0 8.95 0 8.95 0 8.95;stroke:url(#Gradiente_sem_nome_1117);}.cls-17{stroke-dasharray:0 8.98 0 8.98 0 8.98;stroke:url(#Gradiente_sem_nome_1116);}.cls-18{stroke-dasharray:0 9.02 0 9.02 0 9.02;stroke:url(#Gradiente_sem_nome_1115);}.cls-19{stroke-dasharray:0 8.95 0 8.95 0 8.95;stroke:url(#Gradiente_sem_nome_1114);}.cls-20{stroke-dasharray:0 9 0 9 0 9;stroke:url(#Gradiente_sem_nome_1113);}.cls-21{stroke-dasharray:0 8.96 0 8.96 0 8.96;stroke:url(#Gradiente_sem_nome_1112);}.cls-22{stroke-dasharray:0 9.02 0 9.02 0 9.02;stroke:url(#Gradiente_sem_nome_1111);}.cls-23{stroke-dasharray:0 8.99 0 8.99 0 8.99;stroke:url(#Gradiente_sem_nome_1110);}.cls-24{stroke-dasharray:0 8.96 0 8.96 0 8.96;stroke:url(#Gradiente_sem_nome_755);}.cls-25{mix-blend-mode:lighten;}.cls-25,.cls-43,.cls-44{opacity:0.6;}.cls-26,.cls-44{stroke:#764695;}.cls-26,.cls-27,.cls-28,.cls-29,.cls-30,.cls-31,.cls-32,.cls-33,.cls-34,.cls-35,.cls-36,.cls-37,.cls-38,.cls-39,.cls-40,.cls-41,.cls-42,.cls-49{stroke-dasharray:0 9 0 9 0 9;}.cls-27{stroke:#6e438c;}.cls-28{stroke:#664182;}.cls-29{stroke:#5e3e79;}.cls-30{stroke:#573b70;}.cls-31{stroke:#4f3767;}.cls-32{stroke:#48345e;}.cls-33{stroke:#413055;}.cls-34{stroke:#3a2c4c;}.cls-35{stroke:#332844;}.cls-36{stroke:#2c243b;}.cls-37{stroke:#251f32;}.cls-38{stroke:#1e1a29;}.cls-39{stroke:#171520;}.cls-40{stroke:#0f0f17;}.cls-41{stroke:#07070c;}.cls-42{stroke:#000;}.cls-43,.cls-44,.cls-45{stroke-miterlimit:10;}.cls-43{stroke-width:0.25px;stroke:url(#Gradiente_sem_nome_1528);}.cls-44,.cls-45{stroke-width:0.5px;}.cls-45{stroke:url(#Gradiente_sem_nome_1537);}.cls-46{opacity:0.81;}.cls-47{fill:#f8f7f7;}.cls-48{opacity:0.34;}.cls-49{stroke:#f8f7f7;}</style><linearGradient id="Gradiente_sem_nome_1129" x1="-88.59" y1="166.92" x2="1940.26" y2="166.92" gradientUnits="userSpaceOnUse"><stop offset="0" stop-color="#202223"/><stop offset="0.39" stop-color="#202223"/><stop offset="0.67" stop-color="#212021"/><stop offset="1" stop-color="#212021"/></linearGradient><linearGradient id="Gradiente_sem_nome_1128" x1="-87.64" y1="168.61" x2="1948.66" y2="168.61" gradientUnits="userSpaceOnUse"><stop offset="0" stop-color="#232829"/><stop offset="0.39" stop-color="#232829"/><stop offset="0.67" stop-color="#252326"/><stop offset="1" stop-color="#252326"/></linearGradient><linearGradient id="Gradiente_sem_nome_1127" x1="-86.69" y1="170.26" x2="1957.06" y2="170.26" gradientUnits="userSpaceOnUse"><stop offset="0" stop-color="#262e2f"/><stop offset="0.39" stop-color="#262e2f"/><stop offset="0.67" stop-color="#29262b"/><stop offset="1" stop-color="#29262b"/></linearGradient><linearGradient id="Gradiente_sem_nome_1126" x1="-85.74" y1="171.96" x2="1965.47" y2="171.96" gradientUnits="userSpaceOnUse"><stop offset="0" stop-color="#293436"/><stop offset="0.39" stop-color="#293436"/><stop offset="0.67" stop-color="#2d292f"/><stop offset="1" stop-color="#2d292f"/></linearGradient><linearGradient id="Gradiente_sem_nome_1125" x1="-84.79" y1="173.63" x2="1973.88" y2="173.63" gradientUnits="userSpaceOnUse"><stop offset="0" stop-color="#2c3a3c"/><stop offset="0.39" stop-color="#2c3a3c"/><stop offset="0.67" stop-color="#322c34"/><stop offset="1" stop-color="#322c34"/></linearGradient><linearGradient id="Gradiente_sem_nome_1124" x1="-83.84" y1="175.31" x2="1982.3" y2="175.31" gradientUnits="userSpaceOnUse"><stop offset="0" stop-color="#2e4043"/><stop offset="0.39" stop-color="#2e4043"/><stop offset="0.67" stop-color="#362f39"/><stop offset="1" stop-color="#362f39"/></linearGradient><linearGradient id="Gradiente_sem_nome_1123" x1="-82.89" y1="177.03" x2="1990.71" y2="177.03" gradientUnits="userSpaceOnUse"><stop offset="0" stop-color="#30464a"/><stop offset="0.39" stop-color="#30464a"/><stop offset="0.67" stop-color="#3a323d"/><stop offset="1" stop-color="#3a323d"/></linearGradient><linearGradient id="Gradiente_sem_nome_1122" x1="-81.94" y1="178.72" x2="1999.12" y2="178.72" gradientUnits="userSpaceOnUse"><stop offset="0" stop-color="#324c51"/><stop offset="0.39" stop-color="#324c51"/><stop offset="0.67" stop-color="#3e3442"/><stop offset="1" stop-color="#3e3442"/></linearGradient><linearGradient id="Gradiente_sem_nome_1121" x1="-80.99" y1="180.41" x2="2007.54" y2="180.41" gradientUnits="userSpaceOnUse"><stop offset="0" stop-color="#335358"/><stop offset="0.39" stop-color="#335358"/><stop offset="0.67" stop-color="#433647"/><stop offset="1" stop-color="#433647"/></linearGradient><linearGradient id="Gradiente_sem_nome_1120" x1="-80.04" y1="182.12" x2="2015.95" y2="182.12" gradientUnits="userSpaceOnUse"><stop offset="0" stop-color="#35595f"/><stop offset="0.39" stop-color="#35595f"/><stop offset="0.67" stop-color="#47394b"/><stop offset="1" stop-color="#47394b"/></linearGradient><linearGradient id="Gradiente_sem_nome_1119" x1="-79.1" y1="183.82" x2="2024.37" y2="183.82" gradientUnits="userSpaceOnUse"><stop offset="0" stop-color="#366067"/><stop offset="0.39" stop-color="#366067"/><stop offset="0.67" stop-color="#4b3b50"/><stop offset="1" stop-color="#4b3b50"/></linearGradient><linearGradient id="Gradiente_sem_nome_1118" x1="-78.15" y1="185.53" x2="2032.78" y2="185.53" gradientUnits="userSpaceOnUse"><stop offset="0" stop-color="#36666e"/><stop offset="0.39" stop-color="#36666e"/><stop offset="0.67" stop-color="#4f3d55"/><stop offset="1" stop-color="#4f3d55"/></linearGradient><linearGradient id="Gradiente_sem_nome_1117" x1="-77.2" y1="187.23" x2="2041.2" y2="187.23" gradientUnits="userSpaceOnUse"><stop offset="0" stop-color="#366d76"/><stop offset="0.39" stop-color="#366d76"/><stop offset="0.67" stop-color="#543f5a"/><stop offset="1" stop-color="#543f5a"/></linearGradient><linearGradient id="Gradiente_sem_nome_1116" x1="-76.25" y1="188.95" x2="2049.61" y2="188.95" gradientUnits="userSpaceOnUse"><stop offset="0" stop-color="#36747e"/><stop offset="0.39" stop-color="#36747e"/><stop offset="0.67" stop-color="#58415e"/><stop offset="1" stop-color="#58415e"/></linearGradient><linearGradient id="Gradiente_sem_nome_1115" x1="-75.3" y1="190.67" x2="2058.03" y2="190.67" gradientUnits="userSpaceOnUse"><stop offset="0" stop-color="#357b86"/><stop offset="0.39" stop-color="#357b86"/><stop offset="0.67" stop-color="#5c4363"/><stop offset="1" stop-color="#5c4363"/></linearGradient><linearGradient id="Gradiente_sem_nome_1114" x1="-74.35" y1="192.38" x2="2066.44" y2="192.38" gradientUnits="userSpaceOnUse"><stop offset="0" stop-color="#34828f"/><stop offset="0.39" stop-color="#34828f"/><stop offset="0.67" stop-color="#614568"/><stop offset="1" stop-color="#614568"/></linearGradient><linearGradient id="Gradiente_sem_nome_1113" x1="-73.4" y1="194.12" x2="2074.86" y2="194.12" gradientUnits="userSpaceOnUse"><stop offset="0" stop-color="#328998"/><stop offset="0.39" stop-color="#328998"/><stop offset="0.67" stop-color="#65476d"/><stop offset="1" stop-color="#65476d"/></linearGradient><linearGradient id="Gradiente_sem_nome_1112" x1="-72.45" y1="195.85" x2="2083.28" y2="195.85" gradientUnits="userSpaceOnUse"><stop offset="0" stop-color="#2f90a0"/><stop offset="0.39" stop-color="#2f90a0"/><stop offset="0.67" stop-color="#6a4971"/><stop offset="1" stop-color="#6a4971"/></linearGradient><linearGradient id="Gradiente_sem_nome_1111" x1="-71.5" y1="197.59" x2="2091.69" y2="197.59" gradientUnits="userSpaceOnUse"><stop offset="0" stop-color="#2b98aa"/><stop offset="0.39" stop-color="#2b98aa"/><stop offset="0.67" stop-color="#6e4b76"/><stop offset="1" stop-color="#6e4b76"/></linearGradient><linearGradient id="Gradiente_sem_nome_1110" x1="-70.55" y1="199.31" x2="2100.11" y2="199.31" gradientUnits="userSpaceOnUse"><stop offset="0" stop-color="#269fb3"/><stop offset="0.39" stop-color="#269fb3"/><stop offset="0.67" stop-color="#734c7b"/><stop offset="1" stop-color="#734c7b"/></linearGradient><linearGradient id="Gradiente_sem_nome_755" x1="-69.6" y1="197.66" x2="2108.52" y2="197.66" gradientUnits="userSpaceOnUse"><stop offset="0" stop-color="#1fa6bd"/><stop offset="0.39" stop-color="#1fa6bd"/><stop offset="0.67" stop-color="#784e80"/><stop offset="1" stop-color="#784e80"/></linearGradient><linearGradient id="Gradiente_sem_nome_1528" x1="-52.29" y1="276.41" x2="1930.28" y2="276.41" gradientUnits="userSpaceOnUse"><stop offset="0" stop-color="#fffef6" stop-opacity="0.6"/><stop offset="1" stop-color="#fffef6" stop-opacity="0"/></linearGradient><linearGradient id="Gradiente_sem_nome_1537" x1="-45.78" y1="230.63" x2="1965.64" y2="230.63" gradientUnits="userSpaceOnUse"><stop offset="0" stop-color="#22a1dc" stop-opacity="0.6"/><stop offset="0.03" stop-color="#25a3dd" stop-opacity="0.56"/><stop offset="0.17" stop-color="#31aae2" stop-opacity="0.39"/><stop offset="0.31" stop-color="#3bb1e6" stop-opacity="0.25"/><stop offset="0.46" stop-color="#42b6e9" stop-opacity="0.14"/><stop offset="0.62" stop-color="#48b9eb" stop-opacity="0.06"/><stop offset="0.79" stop-color="#4bbbed" stop-opacity="0.01"/><stop offset="1" stop-color="#4cbced" stop-opacity="0"/></linearGradient></defs><g class="cls-1"><g id="Camada_2" data-name="Camada 2"><rect class="cls-2" y="-219.34" width="1920" height="600"/></g><g id="Camada_3" data-name="Camada 3"><path class="cls-3" d="M-62.41,290.16C-9.9,301,48.32,300.76,92.43,273.31,144,241.2,183.52,170.72,241.91,153.88c99.23-28.61,203.22,14.72,298.86,53.68s205.38,74.1,299.22,31c27.73-12.74,52.27-31.74,80.17-44.1s73.22-38.25,99.3-22.41c34.12,20.73,44.76,109.65,75,135.68,27.61,23.74,64,26.86,98.76,16S1249.31,269,1281,251.06c131.46-74.62,292.82-94.7,438.56-54.57,34.83,9.59,70.77,22.58,106.16,15.3,42.53-8.76,74.64-46,89.46-86.83,14.31-39.42,15.3-82.18,15.67-124.17"/><path class="cls-4" d="M-61.26,286.93c50.67,9.34,106.8,8.27,149.73-18.19,50.61-31.18,89.7-99.08,146.82-114.42,42.74-11.48,86.88-6.21,130.4,1,59.65,9.65,117.41,27.34,173.74,46.72l20.17,6.91c44.2,15.09,90.85,30.25,136.89,38.29,51.09,8.81,101.77,10.14,148.84-8.76,28.1-11.29,53.11-29.06,81.44-40.43,28.55-11.45,73.78-35.84,100.68-20.53,20,11.26,32.86,43,46,73.28,10.2,23.62,20.61,46.17,34.52,57.3,28.45,22.76,65.06,26.06,100.15,15.57,35.34-10.5,57.82-52.63,90-70.81,129.41-73.31,286.22-97.15,429.79-59.21,34.35,9.06,69.74,21.66,104.61,14.91,25-4.84,46.41-19.33,63-38.58a155.29,155.29,0,0,0,26.44-44.27c15-38.05,17-79.84,17.34-121.18"/><path class="cls-5" d="M-60.08,283.66c48.81,7.87,102.84,6,144.59-19.48,49.64-30.27,88.34-95.53,144.17-109.43,43.37-10.8,88.62-.95,132.84,5.34,61.22,8.7,118.94,20,176.57,36.38q10.21,2.88,20.71,6c45.51,13.41,93.6,28.68,140.68,37.75,51.88,9.82,103.2,14.74,151.18-1.84,28.47-9.83,54-26.36,82.72-36.74,29.2-10.54,74.29-33.35,102.05-18.67,20.71,10.95,34.82,41.26,49.1,70.35,11,22.7,22.37,44.3,36.92,55.14,29.26,21.8,66.11,25.25,101.54,15.18,35.93-10.1,59.59-50.62,92.25-69,127.37-72,279.63-99.6,421-63.84,33.87,8.54,68.72,20.74,103.08,14.52,24.59-4.46,45.84-18.11,62.43-36.43a152.22,152.22,0,0,0,26.89-42.43c15.64-36.69,18.76-77.51,19-118.2"/><path class="cls-6" d="M-59.18,280.3c47,6.49,99.1,3.83,139.73-20.69,48.67-29.34,87-91.92,141.51-104.42,44-10.11,90.38,4.21,135.29,9.69,62.8,7.66,120.48,12.74,179.4,26.05q10.47,2.32,21.25,5c46.83,11.73,96.33,27.22,144.47,37.22,52.64,10.95,104.61,19.32,153.53,5.07,28.81-8.39,54.82-23.66,84-33.06,29.86-9.62,74.83-30.9,103.43-16.8,21.49,10.61,36.84,39.46,52.19,67.42,11.94,21.74,24.11,42.44,39.32,53,30,20.84,67.13,24.36,102.92,14.78,36.52-9.78,61.36-48.61,94.53-67.22,125.32-70.69,273-102.05,412.25-68.49,33.39,8,67.69,19.83,101.53,14.14,24.22-4.08,45.27-16.89,61.91-34.28a148.23,148.23,0,0,0,27.34-40.6c16.31-35.34,20.5-75.19,20.65-115.25"/><path class="cls-7" d="M-58,276.94C-12.8,282,37.17,278.57,76.59,255c47.7-28.42,85.69-88.25,138.86-99.42,44.69-9.39,92.14,9.38,137.73,14,64.38,6.6,122,5.57,182.23,15.72,7.14,1.2,14.4,2.54,21.8,4.09,48.13,10.05,99.06,25.67,148.25,36.69,53.42,12,106,23.89,155.87,12,29.16-7,55.69-21,85.28-29.38,30.52-8.69,75.37-28.47,104.79-14.93,22.28,10.25,38.81,37.68,55.29,64.48,12.8,20.8,25.84,40.57,41.71,50.83,30.82,19.91,68.18,23.54,104.32,14.39,37.11-9.39,63.13-46.6,96.79-65.42C1472.79,188.74,1616,153.62,1753,185c32.91,7.49,66.68,18.91,100,13.75,23.84-3.7,44.69-15.67,61.38-32.13a146.12,146.12,0,0,0,27.8-38.76c16.89-34,22.22-72.86,22.3-112.25"/><path class="cls-8" d="M-57,273.5c43.39,3.71,91.38-.45,129.67-23,46.73-27.5,84.39-84.55,136.2-94.43,45.39-8.65,93.91,14.54,140.18,18.42,66,5.52,123.53-1.72,185.06,5.38,7.3.84,14.74,1.86,22.34,3.15,49.45,8.37,101.8,24.11,152,36.16,54.2,13,107.39,28.44,158.21,18.9,29.5-5.53,56.56-18.24,86.56-25.7,31.2-7.76,75.92-26,106.17-13.06,23.07,9.9,40.77,35.9,58.38,61.55,13.65,19.86,27.56,38.72,44.11,48.67,31.57,19,69.22,22.72,105.71,14,37.71-9,64.89-44.59,99.06-63.63,121.23-68.07,259.84-107,394.71-77.76,32.43,7,65.65,18,98.46,13.36,23.46-3.32,44.11-14.45,60.86-30a142.92,142.92,0,0,0,28.24-36.94c17.55-32.67,23.95-70.54,24-109.3"/><path class="cls-9" d="M-56.11,270c41.61,2.38,87.64-2.48,124.78-24.1,45.76-26.57,83.12-80.78,133.55-89.42,46.08-7.9,95.68,19.68,142.62,22.77,67.57,4.44,125.07-9,187.89-4.95,7.47.48,15.08,1.17,22.88,2.21,50.76,6.69,104.54,22.56,155.83,35.63,55,14,108.76,33,160.56,25.82,29.82-4.13,57.43-15.52,87.83-22,31.87-6.82,76.48-23.61,107.54-11.2,23.86,9.54,42.73,34.13,61.49,58.62,14.49,18.93,29.27,36.87,46.5,46.51,32.31,18.08,70.26,21.9,107.1,13.61,38.31-8.62,66.66-42.58,101.33-61.83C1503,194.89,1637,152.25,1769.72,179.26c32,6.44,64.63,17.07,96.92,13,23.09-3,43.54-13.24,60.34-27.83a140.06,140.06,0,0,0,28.7-35.11C1973.87,98,1981.35,61.08,1981.3,23"/><path class="cls-10" d="M-54.85,266.47c39.74,1,83.66-4.51,119.56-25.13,44.79-25.65,81.86-77,130.9-84.42,46.8-7.11,97.44,24.83,145.07,27.13,69.15,3.35,126.61-16.28,190.71-15.29,7.63.12,15.43.5,23.42,1.28,52.07,5,107.29,21,159.62,35.1,55.77,15,110.12,37.49,162.9,32.73,30.14-2.72,58.32-12.79,89.11-18.34,32.55-5.86,77-21.19,108.92-9.32,24.65,9.17,44.68,32.35,64.58,55.68,15.34,18,31,35,48.89,44.35,33,17.2,71.31,21.09,108.5,13.22,38.9-8.23,68.43-40.57,103.59-60,117.14-65.45,246.65-111.86,377.17-87,31.47,5.92,63.6,16.15,95.38,12.59,22.71-2.56,43-12,59.81-25.68A137,137,0,0,0,1962.43,130c18.84-30,27.38-65.88,27.28-103.33"/><path class="cls-11" d="M-53.91,262.85c38-.21,79.93-6.41,114.66-26.08,43.82-24.72,80.62-73.1,128.24-79.42s99.22,30,147.52,31.49c70.74,2.25,128.15-23.57,193.54-25.62,7.8-.24,15.77-.18,24,.34,53.39,3.33,110,19.43,163.41,34.57,56.56,16.05,111.48,42,165.24,39.64,30.47-1.33,59.2-10,90.4-14.65,33.23-4.91,77.59-18.77,110.28-7.46,25.45,8.81,46.64,30.57,67.68,52.74,16.18,17.06,32.68,33.21,51.29,42.21,33.76,16.32,72.35,20.26,109.89,12.82,39.5-7.83,70.23-38.48,105.86-58.24,115.22-63.9,240-114.31,368.4-91.67,31,5.39,62.57,15.23,93.84,12.2a117.08,117.08,0,0,0,59.29-23.53,134.49,134.49,0,0,0,29.6-31.44c19.49-28.64,29.09-63.56,28.93-100.36"/><path class="cls-12" d="M-53,259.17c36.18-1.44,76.2-8.24,109.75-27,42.86-23.81,79.39-69.2,125.6-74.42,48.26-5.46,101,35.08,150,35.85,72.34,1.13,129.7-30.88,196.37-36a227.56,227.56,0,0,1,24.5-.6c54.7,1.65,112.78,17.86,167.2,34,57.34,17,112.85,48.12,167.59,46.56,30.77-.88,60.08-7.3,91.67-11,33.91-3.94,78.15-16.36,111.66-5.59,26.24,8.44,48.59,28.8,70.77,49.81,17,16.13,34.38,31.39,53.69,40.05,34.46,15.46,73.39,19.45,111.27,12.43,40.11-7.44,72-36.47,108.14-56.44,113.17-62.59,233.45-116.77,359.62-96.31,30.51,4.86,61.55,14.32,92.3,11.81a119.33,119.33,0,0,0,58.77-21.38,131.46,131.46,0,0,0,30-29.6c20.15-27.3,30.81-61.25,30.59-97.4"/><path class="cls-13" d="M-52,255.41c34.42-2.62,72.49-10,104.87-27.77C94.71,204.76,131,162.4,175.76,158.22c49-4.57,102.76,40.86,152.41,40.21,73.93-1,131.24-38.18,199.2-46.29a208.49,208.49,0,0,1,25-1.54c56,0,115.52,16.28,171,33.51,58.13,18,114.18,50.93,169.93,53.47,31.1,1.42,61-4.55,92.95-7.29,34.6-3,78.71-13.95,113-3.72,27,8.06,50.54,27,73.87,46.87,17.87,15.19,36.08,29.57,56.08,37.89,35.17,14.62,74.45,18.65,112.67,12,40.71-7,73.78-34.46,110.4-54.65,111.13-61.27,226.86-119.22,350.86-101,30,4.35,60.52,13.41,90.76,11.43A122.3,122.3,0,0,0,1952.19,160a128.84,128.84,0,0,0,30.51-27.77c20.8-25.95,32.52-58.92,32.25-94.42"/><path class="cls-14" d="M-51.15,251.57c32.66-3.76,68.81-11.67,100-28.5,40.92-22,77-61.24,120.29-64.41C218.92,155,273.67,204,324,203.22c75.53-1.12,132.78-45.48,202-56.62a194.64,194.64,0,0,1,25.58-2.48c57.33-1.71,118.27,14.71,174.78,33,58.92,19.05,115.54,55.37,172.27,60.38,31.42,2.78,61.86-1.78,94.23-3.61,35.29-2,79.28-11.55,114.41-1.85,27.83,7.68,52.47,25.26,77,43.94,18.7,14.26,37.77,27.77,58.48,35.73a221.11,221.11,0,0,0,114.06,11.65c41.31-6.63,75.55-32.44,112.67-52.85,109.08-60,220.26-121.67,342.08-105.59,29.54,3.82,59.51,12.49,89.23,11a123.61,123.61,0,0,0,88.67-43,136.73,136.73,0,0,0,33.91-91.45"/><path class="cls-15" d="M-50.28,247.64c30.92-4.85,65.17-13.24,95.18-29.13,39.95-21,75.75-61.78,117.63-59.42,50.53,2.85,106.3,50.42,157.3,48.93,77.12-2.27,134.32-52.8,204.86-67a186.94,186.94,0,0,1,26.12-3.41c58.64-3.39,121,13.12,178.57,32.45,59.71,20,116.9,59.79,174.62,67.3,31.74,4.12,62.74,1,95.5.07,36-1,79.84-9.15,115.78,0,28.64,7.3,54.42,23.5,80.07,41,19.53,13.34,39.46,26,60.87,33.57a240.72,240.72,0,0,0,115.45,11.26c41.91-6.23,77.31-30.43,114.93-51.06,107-58.66,213.67-124.12,333.32-110.22,29.06,3.3,58.48,11.57,87.68,10.66a131,131,0,0,0,57.2-14.93,124.12,124.12,0,0,0,31.41-24.11c22.11-23.27,35.92-54.28,35.57-88.46"/><path class="cls-16" d="M-49.77,243.68C-20.5,237.8,12,229,40.94,213.94c39-20.11,74.63-57.46,115-54.42,51.17,3.87,108.06,55.53,159.75,53.29,78.71-3.41,135.85-60.11,207.68-77.3A178.57,178.57,0,0,1,550,131.16c60-5.07,123.76,11.54,182.35,31.92,60.5,21,118.27,64.2,177,74.21,32.07,5.47,63.63,3.11,96.79,3.75,36.64.71,80.4-6.75,117.15,1.89,29.43,6.91,56.35,21.73,83.16,38.07,20.37,12.41,41.15,24.18,63.27,31.42a263.19,263.19,0,0,0,116.84,10.86c42.51-5.82,79.08-28.43,117.2-49.26,105-57.37,207.07-126.57,324.54-114.86,28.58,2.77,57.46,10.65,86.15,10.27a136.67,136.67,0,0,0,56.67-12.78A121.29,121.29,0,0,0,2003,134.37c22.78-21.93,37.64-52,37.23-85.53"/><path class="cls-17" d="M-49,239.59c27.57-6.87,58.24-16.12,86-30.22,38-19.19,73.49-53,112.32-49.41,51.84,4.82,109.83,60.62,162.2,57.64C391.8,213,448.85,150,522,130a169.85,169.85,0,0,1,27.21-5.29c61.26-6.75,126.51,9.95,186.14,31.39,61.29,22,119.64,68.59,179.3,81.12,32.4,6.81,64.51,6.54,98.07,7.44,37.33,1,81-4.36,118.52,3.75,30.23,6.53,58.3,20,86.26,35.14,21.2,11.49,42.83,22.4,65.66,29.26,37.93,11.4,78.64,15.44,118.23,10.47,43.12-5.41,80.85-26.42,119.48-47.47,102.91-56.07,200.47-129,315.77-119.49,28.1,2.24,56.43,9.73,84.61,9.88a143.72,143.72,0,0,0,56.14-10.63,119.25,119.25,0,0,0,32.31-20.44c23.44-20.59,39.33-49.66,38.89-82.55"/><path class="cls-18" d="M-48.35,235.4C-22.45,227.6,6.42,218,33,204.81c37-18.27,72.33-48.48,109.67-44.42,52.51,5.71,111.6,65.72,164.64,62,81.89-5.73,138.89-74.87,213.34-98a165.4,165.4,0,0,1,27.75-6.23c62.57-8.42,129.26,8.37,189.93,30.86,62.08,23,121,73,181.65,88,32.73,8.13,65.38,9.32,99.34,11.11,38,2,81.53-2,119.9,5.62,31,6.14,60.23,18.23,89.35,32.21,22,10.57,44.52,20.63,68.06,27.1,38.62,10.62,79.68,14.64,119.62,10.08,43.72-5,82.57-24.49,121.74-45.67,100.75-55,193.88-131.48,307-124.13,27.62,1.72,55.41,8.81,83.07,9.49,19.7.47,38.36-2.26,55.63-8.48a117,117,0,0,0,32.76-18.61c24.09-19.23,41-47.33,40.55-79.55"/><path class="cls-19" d="M-48.06,231.22c24.32-8.68,51.56-18.62,77.12-31,36.06-17.35,71.14-43.82,107-39.42,53.2,6.53,113.37,70.81,167.09,66.37,83.48-6.9,140.42-82.17,216.17-108.3a162.82,162.82,0,0,1,28.29-7.17c63.89-10.1,132,6.77,193.72,30.33,62.88,24,122.42,77.35,184,94.95,33.07,9.46,66.27,12.12,100.62,14.8,38.69,3,82.1.41,121.27,7.48,31.83,5.75,62.18,16.48,92.45,29.27,22.87,9.66,46.21,18.87,70.46,24.95,39.31,9.86,80.73,13.85,121,9.69,44.32-4.58,84.34-22.48,124-43.87,98.7-53.67,187.29-133.93,298.23-128.78,27.14,1.2,54.38,7.9,81.53,9.11,19.32.85,37.78-1,55.1-6.33a115.16,115.16,0,0,0,33.21-16.77c24.76-17.89,42.71-45,42.21-76.62"/><path class="cls-20" d="M-47.6,226.87c22.72-9.5,48.26-19.7,72.7-31.2,35.09-16.42,69.66-36.39,104.36-34.41C183.76,164.35,244.59,237.15,299,232c85.06-8.08,142-89.47,219-118.63a160.46,160.46,0,0,1,28.83-8.11C612,93.46,681.63,110.32,744.33,135,808,159.92,868.15,216.75,930.67,236.9c33.41,10.78,67.14,14.91,101.89,18.48,39.37,4,82.66,2.8,122.65,9.36,32.62,5.35,64.11,14.73,95.54,26.33,23.7,8.75,47.9,17.11,72.85,22.79,40,9.11,81.78,13.06,122.41,9.3,44.92-4.16,86.1-20.47,126.27-42.08,96.66-52.36,180.7-136.38,289.46-133.41,26.66.68,53.36,7,80,8.73,19,1.22,37.21.17,54.58-4.18A113.68,113.68,0,0,0,2030,137.27c25.41-16.53,44.38-42.71,43.87-73.61"/><path class="cls-21" d="M-47.55,222.59c21.23-10.31,45.24-20.79,68.69-31.48C55.26,175.6,89.55,159,122.84,161.69c55,4.48,116.89,81,172,75.09,86.65-9.27,143.49-96.77,221.83-129a159.41,159.41,0,0,1,29.37-9c66.52-13.46,137.56,3.5,201.3,29.27,64.5,25.88,125.23,86.06,188.68,108.78,33.77,12.09,68,17.71,103.18,22.16,40,5.06,83.22,5.17,124,11.22a624.65,624.65,0,0,1,98.65,23.4c24.53,7.84,49.58,15.36,75.24,20.64,40.7,8.36,82.83,12.33,123.8,8.9,45.53-3.66,87.87-18.46,128.54-40.28,94.61-51.05,174.1-138.83,280.69-138,26.18.15,52.33,6.06,78.45,8.34,18.57,1.61,36.63,1.4,54.06-2A112.13,112.13,0,0,0,2036.73,138c26.08-15.19,46.07-40.42,45.54-70.67"/><path class="cls-22" d="M-47.36,218.13c19.72-11,42.15-21.71,64.54-31.59,33.15-14.58,67.15-27.83,99.05-24.41,55.7,6,118.64,86,174.43,79.44,88.2-10.6,145-104.07,224.65-139.31a158.46,158.46,0,0,1,29.91-10C613.05,77.14,685.53,94.21,750.31,121c65.29,26.89,126.66,90.41,191,115.69,34.12,13.4,68.89,20.51,104.46,25.84,40.71,6.1,83.79,7.49,125.39,13.09a771.06,771.06,0,0,1,101.74,20.47c25.35,7,51.27,13.62,77.64,18.48,41.39,7.62,83.87,11.53,125.19,8.51,46.12-3.26,89.64-16.45,130.81-38.49,92.56-49.74,167.5-141.28,271.91-142.68,25.7-.38,51.32,5.14,76.92,7.95,18.19,2,36.06,2.62,53.53.12a109.66,109.66,0,0,0,34.57-11.28c26.74-13.77,47.72-38.08,47.19-67.66"/><path class="cls-23" d="M-47.59,213.81A412.89,412.89,0,0,1,13.22,182c32.18-13.66,65.86-23.5,96.39-19.41C166,170.12,230,253.64,286.49,246.36,376.28,234.63,433,135,514,96.72A158.74,158.74,0,0,1,544.42,85.8C613.56,69,687.48,86.16,753.3,114c66.08,27.89,128.14,94.64,193.37,122.6,34.5,14.66,69.74,23.38,105.73,29.53,41.36,7.19,84.35,9.89,126.76,15,35,4.12,69.93,9.53,104.84,17.53,26.2,6,53,11.88,80,16.32,42.1,6.9,84.93,10.72,126.58,8.12,46.73-2.86,91.41-14.44,133.08-36.69,90.52-48.43,160.91-143.74,263.15-147.32,25.22-.9,50.29,4.22,75.37,7.56,17.82,2.37,35.49,3.84,53,2.27a108.58,108.58,0,0,0,35-9.45c27.39-12.44,49.4-35.78,48.86-64.7"/><path class="cls-24" d="M-48,209.5C-5.37,178,54.53,155.11,103,163c57,9.27,122.17,96.2,179.32,88.17C384.73,236.75,443.6,105.58,543.62,79.32,614.08,60.82,689.43,78.1,756.29,107S885.82,206.09,952,236.52c108.43,49.85,225.82,42.44,343.08,64.63,115.66,21.88,241.86,42.33,345.75-13,88.47-47.13,154.31-146.19,254.38-152,42.29-2.44,84,13.13,126.32,11.59,40.82-1.48,86.75-29.58,86-69.36"/></g><g id="Camada_4" data-name="Camada 4"><g class="cls-25"><path class="cls-26" d="M2043,206.85c-16.13-60.48-85-94-147.55-92.06S1774.78,145.31,1717.68,171,1599,220.3,1537,211.74c-76.29-10.53-143.84-68.89-220.55-62.07-72.8,6.47-131.17,70.62-204.1,75.44C1022.78,231,952.9,147.64,866.05,125,707.66,83.62,558.47,251.26,395.8,233.05c-85.52-9.57-157.16-69.22-240.29-91.46C86.37,123.1,10.26,132.15-52.62,166.34"/><path class="cls-27" d="M2038.12,206.62c-18.52-62-90.9-94.53-154.95-90.09-61.46,4.26-118.13,33.31-174.81,58.5-57,25.3-118.19,46.33-179.85,36.83-68.51-10.51-130.37-58.07-198-61.43a145.94,145.94,0,0,0-21.49.49c-72.36,7.09-130.41,70.54-202.83,76.54-88.84,7.32-159.6-71.9-246-95-31.7-8.47-63-9.07-94.08-4.74C652.29,143.3,540.4,224.35,422.27,227.81a249.88,249.88,0,0,1-29.68-.87c-60.82-5.46-114.75-34.19-171.06-58.09-22.31-9.47-45-18.2-68.47-24.3C84.18,126.65,9,132.9-52.34,161.59"/><path class="cls-28" d="M2033.19,206.38c-20.9-63.53-96.74-95.12-162.35-88.11-60.31,6.45-115.54,36.11-171.79,60.84-56.89,25-117.72,43.31-179,32.88-68-11.5-129.81-57.91-197.15-60.53a148.69,148.69,0,0,0-21.37.7c-71.91,7.71-129.66,70.47-201.55,77.64-88.12,8.75-159.75-66.32-245.68-89.92-31.43-8.6-62.46-10-93.2-6.74-113,11.41-224.62,83.49-342.21,88.08a279,279,0,0,1-29.48-.38c-60.38-4.07-114.11-29-170.39-50.7-22.31-8.6-45-16.74-68.38-22.64C82,130.2,7.68,133.66-52.07,156.83"/><path class="cls-29" d="M2028.27,206.14C2005,141.08,1925.7,110.34,1858.52,120c-59.15,8.52-113,38.89-168.79,63.17-56.78,24.62-117.24,40.29-178.19,28.93-67.45-12.49-129.24-57.75-196.26-59.62a147.08,147.08,0,0,0-21.24.91c-71.46,8.32-128.9,70.4-200.28,78.74-87.39,10.16-159.9-60.75-245.37-84.81-31.15-8.74-61.89-10.78-92.31-8.74-112.09,7.49-223.56,70.31-340.61,76-9.74.47-19.5.54-29.28.1-59.95-2.68-113.47-23.78-169.72-43.3-22.3-7.73-45-15.28-68.3-21-68.38-16.7-141.78-16-200,1.63"/><path class="cls-30" d="M2023.35,205.9c-25.68-66.58-108.37-96.57-177.16-84.14-58,10.48-110.38,41.69-165.78,65.51-56.66,24.28-116.76,37.28-177.36,25-66.91-13.47-128.67-57.58-195.36-58.71a151.19,151.19,0,0,0-21.11,1.12c-71,8.94-128.16,70.33-199,79.85-86.66,11.57-160-55.18-245-79.7-30.89-8.87-61.35-11.65-91.43-10.75-111.26,3.35-222.5,57.14-339,64-9.69.56-19.38.79-29.09.58-59.52-1.29-112.84-18.57-169.06-35.9-22.29-6.86-45-13.83-68.2-19.32C77.6,137.3,5.1,135.16-51.52,147.33"/><path class="cls-31" d="M2018.42,205.67c-28.06-68.11-114.15-97.44-184.55-82.16-56.81,12.32-107.8,44.47-162.77,67.84-56.56,23.94-116.28,34.26-176.53,21-66.39-14.46-128.11-57.43-194.48-57.81a152.47,152.47,0,0,0-21,1.34c-70.58,9.55-127.4,70.25-197.74,80.95-85.94,13-160.2-49.61-244.75-74.59-30.61-9-60.79-12.53-90.54-12.75-110.44-.81-221.44,44-337.4,51.94-9.63.66-19.26,1.05-28.89,1.06-59.08.11-112.2-13.36-168.39-28.5-22.29-6-45-12.37-68.12-17.66C75.41,140.85,3.81,135.91-51.25,142.57"/><path class="cls-32" d="M2013.5,205.43c-30.45-69.64-119.94-98.4-192-80.18-55.64,14.08-105.21,47.26-159.76,70.18-56.45,23.6-115.8,31.24-175.7,17.06-65.85-15.43-127.54-57.26-193.58-56.89a152.39,152.39,0,0,0-20.86,1.54c-70.14,10.17-126.65,70.18-196.47,82.06-85.21,14.4-160.35-44-244.43-69.48-30.34-9.13-60.25-13.41-89.66-14.75-109.62-5-220.38,30.78-335.8,39.89-9.57.75-19.13,1.3-28.69,1.54-58.65,1.5-111.56-8.15-167.72-21.1-22.29-5.12-45-10.91-68-16C73.21,144.4,2.52,136.66-51,137.82"/><path class="cls-33" d="M2008.58,205.19C1975.74,134,1882.84,105.73,1809.22,127c-54.49,15.74-102.63,50.05-156.75,72.51-56.34,23.27-115.33,28.23-174.87,13.11-65.32-16.42-127-57.1-192.7-56a153.8,153.8,0,0,0-20.73,1.76c-69.69,10.78-125.89,70.1-195.19,83.16-84.49,15.81-160.51-38.46-244.13-64.37a418.92,418.92,0,0,0-88.77-16.75c-108.8-9.18-219.31,17.6-334.19,27.84-9.53.85-19,1.56-28.5,2-58.21,2.9-110.93-2.93-167-13.69-22.29-4.26-45-9.46-68-14.35C71,148,1.23,137.41-50.7,133.06"/><path class="cls-34" d="M2003.66,205c-35.23-72.69-131.58-100.64-206.77-76.22-53.35,17.33-100,52.84-153.74,74.85-56.23,22.93-114.84,25.21-174,9.15-64.78-17.4-126.42-56.93-191.81-55.08a155.25,155.25,0,0,0-20.6,2c-69.25,11.39-125.14,70-193.92,84.26C979,261.13,902.13,211,819,184.64a493,493,0,0,0-87.89-18.76c-108-13.38-218.25,4.44-332.59,15.81-9.47.93-18.9,1.8-28.31,2.49a718,718,0,0,1-166.38-6.29c-22.28-3.39-44.94-8-67.86-12.68-67.11-13.71-136-27-186.37-36.9"/><path class="cls-35" d="M1998.73,204.72c-37.61-74.22-137.44-101.91-214.16-74.24-52.25,18.85-97.46,55.64-150.74,77.19-56.12,22.59-114.36,22.19-173.2,5.2-64.26-18.39-125.86-56.77-190.92-54.17a156.68,156.68,0,0,0-20.48,2.18c-68.8,12-124.38,70-192.64,85.37-83,18.64-160.81-27.32-243.51-54.15a597.56,597.56,0,0,0-87-20.76c-107.17-17.6-217.19-8.74-331,3.76-9.41,1-18.77,2.06-28.11,3-57.34,5.68-109.64,7.48-165.71,1.1-22.27-2.52-44.93-6.55-67.77-11C66.64,155.05-1.35,138.92-50.15,123.55"/><path class="cls-36" d="M1993.81,204.48c-40-75.74-143.36-103.28-221.57-72.25-51.17,20.3-94.87,58.42-147.72,79.52-56,22.25-113.89,19.17-172.38,1.25-63.72-19.38-125.29-56.61-190-53.27a158,158,0,0,0-20.35,2.4c-68.35,12.62-123.63,69.87-191.37,86.47-82.31,20.06-161-21.75-243.2-49a764.25,764.25,0,0,0-86.11-22.76C614.73,155,505,154.88,391.7,168.51c-9.36,1.12-18.66,2.31-27.92,3.46-56.9,7.07-109,12.69-165,8.5-22.27-1.65-44.93-5.09-67.69-9.36C64.44,158.6-2.64,139.67-49.88,118.8"/><path class="cls-37" d="M1988.89,204.25C1946.5,127,1839.55,99.49,1759.92,134c-50.14,21.71-92.29,61.22-144.72,81.86-55.9,21.91-113.4,16.16-171.54-2.71-63.19-20.36-124.73-56.45-189.14-52.35a157.84,157.84,0,0,0-20.23,2.6c-67.91,13.24-122.87,69.8-190.09,87.57C962.61,272.42,883.08,234.77,801.31,207c-29-9.79-57.5-17.9-85.23-24.76C610.56,156.15,501,147.16,388.3,161.92c-9.3,1.21-18.54,2.57-27.72,3.94-56.47,8.47-108.37,17.9-164.37,15.9a479.23,479.23,0,0,1-67.6-7.7c-66.36-11.91-132.54-33.64-178.22-60"/><path class="cls-38" d="M1984,204c-44.77-78.8-155.37-106.33-236.37-68.29-49.13,23.07-89.71,64-141.7,84.19-55.8,21.57-112.93,13.14-170.72-6.66C1372.51,191.9,1311,157,1246.92,161.8a159.1,159.1,0,0,0-20.1,2.82c-67.46,13.85-122.12,69.72-188.82,88.67-80.86,22.89-161.26-10.6-242.58-38.81-28.7-9.92-56.94-18.81-84.34-26.77-104.68-30.38-214-48.27-326.18-32.38-9.25,1.31-18.41,2.82-27.52,4.42-56,9.86-107.73,23.11-163.71,23.3a391.88,391.88,0,0,1-67.51-6C60.06,165.7-5.22,141.17-49.33,109.29"/><path class="cls-39" d="M1979,203.77c-47.16-80.32-161.49-108-243.77-66.31-48.16,24.4-87.13,66.8-138.7,86.53-55.69,21.23-112.45,10.12-169.89-10.62-62.12-22.32-123.59-56.12-187.35-50.54a164.3,164.3,0,0,0-20,3c-67,14.47-121.36,69.65-187.54,89.78-80.14,24.31-161.42-5-242.27-33.7-28.43-10.05-56.39-19.73-83.46-28.77-103.84-34.68-213-61.45-324.57-44.43-9.2,1.4-18.3,3.08-27.33,4.9-55.6,11.25-107.09,28.32-163,30.7A332.14,332.14,0,0,1,123.71,180c-65.84-10.71-130.22-38-172.77-75.42"/><path class="cls-40" d="M1974.12,203.53c-49.55-81.84-167.69-109.74-251.18-64.32-47.23,25.69-84.54,69.58-135.69,88.86-55.57,20.89-112,7.1-169-14.57-61.59-23.31-123-56-186.47-49.63a162.29,162.29,0,0,0-19.85,3.24c-66.57,15.08-120.6,69.57-186.27,90.88-79.41,25.72-161.57.55-242-28.59-28.16-10.18-55.82-20.64-82.57-30.77-103-39-211.89-74.63-323-56.48-9.14,1.49-18.17,3.33-27.13,5.38-55.17,12.65-106.45,33.54-162.37,38.11a288.32,288.32,0,0,1-67.34-2.73C55.67,172.8-7.8,142.68-48.79,99.78"/><path class="cls-41" d="M1969.19,203.3c-51.93-83.37-174-111.58-258.57-62.35-46.35,27-82,72.38-132.68,91.2-55.47,20.56-111.49,4.09-168.23-18.53-61.06-24.29-122.47-55.79-185.57-48.72a165.31,165.31,0,0,0-19.73,3.45c-66.12,15.7-119.85,69.5-185,92-78.69,27.14-161.72,6.12-241.65-23.48-27.89-10.32-55.25-21.6-81.69-32.77C594,160.67,485.25,116.29,374.71,135.57c-9.08,1.58-18,3.58-26.94,5.85-54.72,14-105.81,38.75-161.69,45.51a255.14,255.14,0,0,1-67.26-1.06C53.48,176.35-9.09,143.43-48.51,95"/><path class="cls-42" d="M1964.27,203.06c-54.32-84.9-180.33-113.5-266-60.37-45.5,28.23-79.37,75.17-129.67,93.54-114.79,41.92-230.81-85.4-352.08-70.3-75,9.34-132.39,70.78-203.32,96.76-105.05,38.47-220.91-5.51-322.14-53.14S481.31,108.57,371.32,129c-64.65,12-122.85,48.84-187.78,59.24-87.29,14-181-25.6-231.78-97.95"/></g></g><g id="Camada_5" data-name="Camada 5"><path class="cls-43" d="M-52.21,256.89c68.63-57,170.52-45,255.73-18.58S375.6,303,463.61,288.37c72.23-12,140-59.22,212.34-48,58.78,9.09,104.63,54.77,159.48,77.8C921.72,354.37,1021,331.36,1108.76,299s175.22-74.42,268.81-75.42c96.39-1,187.1,41.54,280.48,65.44s204.87,24.39,272.14-44.64"/><path class="cls-44" d="M-106.89,219.74c50.66,17.34,105.15-8.91,150.82-36.87s94.8-59.7,148-53.75C273.13,138.18,323.68,230,403.72,246.26c60,12.22,119.06-21.15,169.81-55.38s104.85-72.27,166.05-70.75C843,122.69,919.77,236.6,1023.19,234.56c43.67-.86,83.67-22.74,124-39.44s87.48-28.27,126.7-9.05c38.34,18.78,64.16,64.66,106.79,66.91,40.56,2.13,71-37,109.76-48.95,53.15-16.41,107.31,20.4,162.69,25.67,49.69,4.72,97.83-16.23,143.35-36.72,61.22-27.54,124.72-56.81,167.17-108.82"/><path class="cls-45" d="M-45.58,237.41C4.51,169.7,106.28,170.18,187.36,193S350,254.48,433,240.05c48.31-8.4,92.92-34.55,141.87-37.46C638,198.83,696,233.89,756.66,251.76,833.3,274.35,915,269.42,994.71,264.3c91.07-5.86,182.32-11.73,272.4-26.4,53.36-8.69,108.1-20.44,160.87-8.69,42.4,9.45,80.26,33.48,122.21,44.8,67.73,18.28,139.42,2.07,207.67-14.16l207.72-49.39"/></g><g id="Camada_6" data-name="Camada 6"><g class="cls-46"><use width="2" height="2" transform="translate(341.43 242.81)"/><use width="2" height="2" transform="translate(668.69 162.11)"/><use width="2" height="2" transform="translate(991.5 140.96)"/><use width="2" height="2" transform="translate(1444.83 287.11)"/><use width="2" height="2" transform="translate(1755.86 264.06)"/><use width="2" height="2" transform="translate(1691.39 292.89)"/><use width="2" height="2" transform="translate(1183.42 201.07)"/><use width="2" height="2" transform="translate(954.18 265.35)"/><use width="2" height="2" transform="translate(569.6 187.23)"/><use width="2" height="2" transform="translate(251.95 111.39)"/><use width="2" height="2" transform="translate(64.06 266.08)"/><use width="2" height="2" transform="translate(311.19 198.94)"/><use width="2" height="2" transform="translate(508.76 59.46)"/><use width="2" height="2" transform="translate(757.16 340.37)"/><use width="2" height="2" transform="translate(884.03 82)"/><use width="2" height="2" transform="translate(1102.01 92.79)"/><use width="2" height="2" transform="translate(1409.39 98.66)"/><use width="2" height="2" transform="translate(1669.53 169.11)"/><use width="2" height="2" transform="translate(1762.95 49.7)"/><use width="2" height="2" transform="translate(943.98 215.42)"/><use width="2" height="2" transform="translate(624.32 73.35)"/><use width="2" height="2" transform="translate(350.52 273.11)"/><use width="2" height="2" transform="translate(108.42 56.91)"/><use width="2" height="2" transform="translate(373.39 263.11)"/><use width="2" height="2" transform="translate(1048.57 230.29)"/><use width="2" height="2" transform="translate(1466.83 221.95)"/><use width="2" height="2" transform="translate(1861.63 227.4)"/><use width="2" height="2" transform="translate(1765.86 214.02)"/><use width="2" height="2" transform="translate(1058.18 254.54)"/><use width="2" height="2" transform="translate(622.18 206.07)"/><use width="2" height="2" transform="translate(231.18 194.24)"/><use width="2" height="2" transform="translate(73.46 195.22)"/><use width="2" height="2" transform="translate(853.1 121.66)"/><use width="2" height="2" transform="translate(1675.91 141.02)"/></g><g class="cls-46"><ellipse class="cls-47" cx="-0.8" cy="290.99" rx="2.5" ry="2.05"/><ellipse class="cls-47" cx="238.58" cy="167.27" rx="2.5" ry="2.05"/><ellipse class="cls-47" cx="638.1" cy="135.97" rx="2.5" ry="2.05"/><ellipse class="cls-47" cx="902.22" cy="294.53" rx="2.5" ry="2.05"/><ellipse class="cls-47" cx="1326.92" cy="283.81" rx="2.5" ry="2.05"/><ellipse class="cls-47" cx="1660" cy="234.87" rx="2.5" ry="2.05"/><ellipse class="cls-47" cx="1593.57" cy="181.75" rx="2.5" ry="2.05"/><ellipse class="cls-47" cx="1069.58" cy="258.22" rx="2.5" ry="2.05"/><ellipse class="cls-47" cx="504.9" cy="256.97" rx="2.5" ry="2.05"/><ellipse class="cls-47" cx="80.89" cy="256.65" rx="2.5" ry="2.05"/><ellipse class="cls-47" cx="578.56" cy="215.79" rx="2.5" ry="2.05"/><ellipse class="cls-47" cx="1373.83" cy="200.22" rx="2.5" ry="2.05"/></g></g><g id="Camada_7" data-name="Camada 7"><g class="cls-48"><path class="cls-49" d="M-160.82,134.36C-113.64,71.73-33,62.82,36,80.37s133.09,56.55,202,74.72c214.28,56.53,438.28-94.54,652.88-39.79,90.3,23,173.82,81.75,265.92,89.47,122.92,10.3,240.79-71.8,363.92-66.1,91.28,4.23,175.82,56.16,265,79.94s198.7,8.92,246.79-83.87"/><path class="cls-49" d="M-161.93,140.1c25.54-28.63,59.46-46.5,95.48-55.34a247.6,247.6,0,0,1,107.07-2c69.14,13.93,133.8,51,203,69,75.92,19.8,153,16.42,230.06,5.89C614.86,138.52,758,95.57,897,126.25Q904.9,128,912.71,130c71.51,18.5,138.93,53.4,210.58,66.8a312.79,312.79,0,0,0,39.69,5c94.44,5.41,186.63-37.9,279.67-53.47,28.14-4.71,56.35-6.91,84.83-4.65,31.46,2.5,62.15,10.38,92.62,20.43,57.56,19,114.63,45.25,172.79,58.4,87.28,19.73,192.34,1.14,235.76-90.09"/><path class="cls-49" d="M-163,145.85c27.13-25.47,62.4-43.28,99.15-53.27,35.81-9.79,73.45-12.81,109.18-7.45,69.26,10.38,134.5,45.47,204,63.37,76.08,19.6,153.2,18.8,230.07,11.38,141-13.37,284.53-48.64,423.89-22.68q7.9,1.47,15.73,3.18c71.68,15.58,138.91,44.51,210.58,54.81a354.85,354.85,0,0,0,39.7,3.57c94.5,2.91,187.49-37.14,280.49-48.81,28.12-3.54,56.23-4.51,84.57-1.31,31.32,3.53,61.91,12.1,92.38,22.45,57.61,19.59,115.4,44.53,173.48,55.25,85.36,15.75,186-6.63,224.74-96.31"/><path class="cls-49" d="M-164.15,151.59c28.72-22.31,65.34-40,102.81-51.19,36.61-11,74.66-16.56,111.3-12.9,69.33,6.94,135.2,39.94,205,57.7,76.23,19.41,153.44,21.19,230.07,16.88,140.74-7.58,284.75-35.18,424.43-13.93q7.92,1.2,15.77,2.59c71.86,12.67,138.9,35.64,210.58,42.83,13.07,1.32,26.3,2.12,39.71,2.19,94.56.41,188.35-36.39,281.31-44.16,28.1-2.37,56.1-2.12,84.32,2,31.17,4.56,61.66,13.83,92.14,24.48,57.65,20.18,116.14,43.85,174.15,52.1,83.41,11.86,179.63-14.41,213.72-102.53"/><path class="cls-49" d="M-165.26,157.33c30.31-19.15,68.28-36.8,106.48-49.11C-21.37,96.08,17.06,87.94,54.63,89.88c69.38,3.58,135.9,34.4,206,52,76.39,19.22,153.68,23.58,230.07,22.38,140.52-1.8,285-21.72,425-5.19q7.93.93,15.81,2c72,9.76,138.88,26.76,210.58,30.85,13.07.76,26.3,1.09,39.71.8,94.63-2.09,189.22-35.64,282.14-39.5A379.19,379.19,0,0,1,1548,158.6c31,5.6,61.42,15.55,91.91,26.52,57.7,20.76,116.85,43.2,174.83,48.94,81.41,8.06,173.26-22.18,202.69-108.74"/><path class="cls-49" d="M-166.37,163.07c31.9-16,71.22-33.56,110.15-47C-18,102.73,20.83,90,59.3,92.26c69.33,4.07,136.6,28.86,207.06,46.35,76.55,19,153.91,26,230.07,27.88,140.29,4,285.2-8.25,425.51,3.56q7.95.66,15.85,1.42c72.2,6.84,138.87,17.87,210.58,18.86,13.07.19,26.3.06,39.72-.58,94.69-4.59,190.08-34.89,283-34.85a395.13,395.13,0,0,1,83.81,8.68c30.88,6.63,61.17,17.28,91.66,28.55,57.75,21.35,117.54,42.61,175.52,45.79,79.38,4.35,166.9-29.95,191.66-115"/><path class="cls-49" d="M-167.48,168.81C-134,156-93.32,138.49-53.66,123.86c39-14.49,78.17-27.59,117.63-29.23,69.43-2.89,137.3,23.34,208.08,40.69,76.71,18.83,154.15,28.35,230.07,33.37,140.07,9.78,285.42,5.21,426.05,12.31,5.31.26,10.61.55,15.89.83,72.37,3.93,138.85,9,210.58,6.88,13.07-.37,26.31-1,39.72-2,94.76-7.09,191-34.14,283.79-30.2a414.14,414.14,0,0,1,83.55,12c30.74,7.67,60.93,19,91.43,30.58,57.79,21.93,118.35,37.84,176.2,42.64,77.14,6.41,160.54-37.72,180.63-121.17"/><path class="cls-49" d="M-168.59,174.56c35.08-9.66,77.1-27.09,117.49-42.88C-11.31,116,28.23,100.5,68.64,97c69.45-6,138,17.8,209.09,35,76.88,18.65,154.4,30.74,230.09,38.87C647.66,186.47,793.46,189.57,934.4,192l15.93.24c72.54,1,138.84.12,210.58-5.1,13.06-.94,26.31-2,39.73-3.35,94.82-9.59,191.82-33.39,284.61-25.55a435.63,435.63,0,0,1,83.3,15.35c30.59,8.7,60.68,20.74,91.19,32.61,57.84,22.52,118.87,37,176.87,39.49,75.25,3.19,154.19-45.49,169.61-127.39"/><path class="cls-49" d="M-169.7,180.3c36.67-6.5,80-23.85,121.16-40.81C-7.95,122.66,32,104.77,73.31,99.39c69.47-9,138.7,12.26,210.11,29.33,77,18.46,154.64,33.14,230.09,44.38,139.61,21.36,285.86,32.14,427.12,29.8q8-.14,16-.34c72.73-1.9,138.83-8.77,210.59-17.09,13.06-1.5,26.31-3,39.74-4.74,94.89-12.09,192.68-32.63,285.43-20.89a460,460,0,0,1,83,18.68c30.45,9.74,60.44,22.47,90.95,34.64,57.89,23.11,119.51,41.24,177.56,36.35,73.18-6.17,147.83-53.27,158.58-133.62"/><path class="cls-49" d="M-170.81,186c38.26-3.33,83-20.61,124.83-38.73,41.38-18,81.66-38.23,124-45.55,69.5-12,139.41,6.73,211.13,23.67C366.31,143.69,444,161,519.2,175.3c139.39,27.15,286.09,45.6,427.66,38.55q8-.4,16-.93c72.9-4.81,138.82-17.64,210.59-29.07,13.06-2.07,26.31-4.07,39.74-6.12,95-14.59,193.55-31.89,286.26-16.24,28,4.69,55.34,12.25,82.79,22,30.3,10.77,60.19,24.19,90.71,36.66,57.94,23.69,120.16,40.93,178.24,33.2,71.1-9.47,141.47-61,147.55-139.83"/><path class="cls-49" d="M-171.92,191.78c39.85-.17,85.91-17.38,128.5-36.65,42.18-19.19,82.84-41.7,126.07-51,69.54-15,140.11,1.19,212.15,18C372.16,140.21,449.92,160,524.89,177.5c139.16,32.94,286.31,59.07,428.2,47.3q8-.68,16-1.52c73.07-7.72,138.8-26.52,210.59-41.05,13.06-2.63,26.31-5.1,39.75-7.51,95-17.09,194.41-31.13,287.08-11.58,27.94,5.86,55.21,14.65,82.53,25.35,30.16,11.8,60,25.92,90.47,38.69,58,24.28,120.83,40.71,178.93,30.05,69-12.67,135.1-68.81,136.52-146"/><path class="cls-49" d="M-173,197.53c41.44,3,88.85-14.15,132.17-34.58,43-20.36,84-45.13,128.18-56.43,69.6-17.82,140.81-4.35,213.17,12.32,77.52,17.88,155.35,40.3,230.09,60.87,138.94,38.72,286.54,72.53,428.74,56q8.05-.94,16.08-2.1c73.24-10.64,138.79-35.41,210.59-53,13.06-3.2,26.32-6.13,39.75-8.89,95.09-19.59,195.28-30.39,287.91-6.93,27.92,7,55.08,17,82.27,28.68,30,12.84,59.71,27.65,90.24,40.72,58,24.87,121.5,40.57,179.61,26.9,67-15.77,128.74-76.59,125.5-152.26"/><path class="cls-49" d="M-174.14,203.27c43,6.15,91.79-10.91,135.84-32.5C5.47,149.23,46.93,122.24,92,108.89c69.68-20.64,141.5-9.87,214.18,6.65,77.68,17.69,155.59,42.69,230.1,66.37C675,226.42,823,267.91,965.55,246.7q8.07-1.22,16.12-2.69c73.41-13.55,138.77-44.28,210.59-65q19.58-5.64,39.76-10.28c95.15-22.08,196.14-29.63,288.74-2.28,27.89,8.22,54.94,19.45,82,32,29.87,13.87,59.46,29.38,90,42.75,58.08,25.46,122.21,40.53,180.28,23.75,65-18.77,122.39-84.36,114.48-158.48"/><path class="cls-49" d="M-175.25,209c44.62,9.31,94.73-7.67,139.5-30.42,44.58-22.71,86.46-51.9,132.42-67.32,69.79-23.43,142.2-15.41,215.2,1,77.84,17.5,155.83,45.07,230.1,71.86,138.48,50.3,287,99.46,429.81,73.54q8.1-1.47,16.16-3.28c73.59-16.46,138.75-53.16,210.59-77q19.58-6.5,39.76-11.66c95.22-24.59,197-28.88,289.57,2.37,27.87,9.4,54.82,21.84,81.75,35.35,29.73,14.91,59.22,31.11,89.76,44.78,58.13,26,123,40.58,181,20.6,63-21.7,116-92.13,103.45-164.69"/><path class="cls-49" d="M-176.36,214.75c46.21,12.48,97.67-4.43,143.17-28.34s87.7-55.23,134.53-72.77C171.26,87.47,244.24,92.7,317.55,109c78,17.31,156.08,47.47,230.11,77.37C685.92,242.4,834.86,299.24,978,268.6q8.12-1.74,16.2-3.86c73.76-19.38,138.74-62.05,210.59-89q19.58-7.33,39.77-13.05c95.28-27.08,197.87-28.13,290.39,7,27.85,10.57,54.69,24.23,81.5,38.68,29.58,15.94,59,32.83,89.52,46.81,58.17,26.63,123.76,40.72,181.65,17.45,61.1-24.55,109.67-99.9,92.42-170.91"/><path class="cls-49" d="M-177.47,220.49c47.8,15.64,100.61-1.19,146.84-26.27S58.33,135.68,106,116c70.08-28.9,143.6-26.48,217.23-10.36,78.17,17.11,156.32,49.85,230.11,82.86,138,61.87,287.42,126.39,430.89,91q8.13-2,16.24-4.45c73.93-22.29,138.72-70.92,210.59-101q19.58-8.19,39.78-14.43c95.34-29.59,198.73-27.38,291.21,11.68,27.82,11.75,54.56,26.63,81.24,42,29.44,17,58.73,34.55,89.29,48.83,58.22,27.22,124.62,40.95,182.33,14.3,59.24-27.35,103.31-107.67,81.39-177.13"/><path class="cls-49" d="M-178.58,226.24C-129.19,245-75,228.28-28.07,202s90.23-61.82,138.75-83.64c144.7-65.08,305.35,2.1,448.37,72.32S858,336,1006.75,285.46c74.1-25.2,138.71-79.8,210.59-112.95a393.9,393.9,0,0,1,331.82.52c58.47,27.18,111.76,68.41,170,96.21s125.55,41.25,183,11.16,97-115.45,70.37-183.35"/></g></g></g></svg>