<?xml version="1.0" encoding="utf-8"?>
<!-- Generator: Adobe Illustrator 26.0.0, SVG Export Plug-In . SVG Version: 6.00 Build 0)  -->
<svg version="1.1" id="Camada_1" xmlns="http://www.w3.org/2000/svg" xmlns:xlink="http://www.w3.org/1999/xlink" x="0px" y="0px"
	 viewBox="0 0 96 96" style="enable-background:new 0 0 96 96;" xml:space="preserve">
<style type="text/css">
	.st0{display:none;}
	.st1{display:inline;fill:none;}
	.st2{display:inline;}
	.st3{font-family:'AlegreyaSans-Regular';}
	.st4{font-size:140px;}
	.st5{fill:#324B4E;}
</style>
<g id="Camada_1_00000007397283081150576920000013361623346442022535_" class="st0">
	<path class="st1" d="M-17.3-51.8h130.6c1.7,0,3.2,1.2,3.2,2.6v171.6c0,1.5-1.4,2.6-3.2,2.6H-17.3c-1.7,0-3.2-1.2-3.2-2.6V-49.1
		C-20.4-50.6-19-51.8-17.3-51.8z"/>
	<text transform="matrix(1 0 0 1 6.0005 94.0888)" class="st2 st3 st4">G</text>
</g>
<g id="Camada_2_00000168794955533088444050000013630831084035591556_">
	<g>
		<g>
			<path class="st5" d="M92.1,46.2c-2.7-17.1-10-35.7-27.3-42.6C56.1,0,47,1.3,38.5,4.5C29.5,8,21,13.2,14.9,20.9
				c-9.8,12.1-13.2,29-9.6,44c1.9,7.8,5.7,15.4,11.6,21c3.3,3.1,7.1,5.3,11.4,6.6c4.5,1.4,9.3,1.7,14,2c5.2,0.3,10.2,0.1,15.2-1.7
				c5.2-1.9,10.5-4.5,14-8.8c5.8-7,6.6-16.4,5.9-25.1c-0.2-2.5-0.5-5-0.8-7.6c-0.1,0-0.2-0.1-0.2-0.1c-4.3-0.4-7.9-3.1-11.6-5.3
				c-4.5-2.7-9.3-4.7-14.7-4.7c-4.5,0-9,1.2-13.2,2.8c-2.1,0.8-4.4,1.6-6.1,3c-0.3,0.2-0.7,0.5-0.2,0.7s1.9-0.4,2.3-0.6
				c1.8-0.7,3.6-1.2,6-1.5c1.8-0.2,3.6-0.2,5.3,0c3.2,0.3,6.2,1.4,9,2.9c2.5,1.3,4.8,2.9,7.2,4.3c1.2,0.7,2.4,1.3,3.6,1.7
				c0.6,0.2,1.1,0.4,1.7,0.5c0.4,0.1,1.5,0.1,1.8,0.3c0.2,0.1,0.2,2,0.2,2.3c0.1,0.6,0.1,1.3,0.2,1.9c0.2,1.6,0.3,3.2,0.4,4.7
				c0.2,2.8,0.2,5.7-0.1,8.5c-0.5,4.9-2,9.7-5,13.7c-0.6,0.8-1.3,1.6-2,2.3c-0.3,0.3-2.1,2-2.3,1.9c0.2,0.1,2.1-1.2,2.4-1.1
				c0.3,0-0.1,0-0.4,0.1c-0.3,0.1-0.6,0.1-0.9,0.2c-1.4,0.2-2.8,0.3-4.2,0.4c-5.4,0.1-11.1-0.3-16.5-1.5c-5.2-1.1-9.8-3.5-13.7-7.2
				c-3.5-3.3-6.2-7.5-8.3-11.8c-3.8-8.1-5.2-17.2-4.4-26.1c0.9-8.9,4-17.6,9.3-24.9c2.7-3.7,6-7.1,9.9-9.7c0.4-0.3,0.9-0.6,1.4-0.9
				c0.5,0,0.8-0.1,1-0.3c-0.5,0.3,0.2-0.1,0.3-0.2c0.2-0.1,1-0.5,0.2-0.1c0.2-0.1,0.5-0.3,0.7-0.4c-1,0.3-0.4,0.2-0.1,0.1
				c1.1-0.5-0.8,0.3,0.2-0.1c0.8-0.3,0.2-0.1,0,0c-0.1,0,1.1-0.4,0.6-0.2c-0.5,0.2,0.8-0.2,0.7-0.2c0.3-0.1,0.5-0.1,0.8-0.2
				C39,6.2,40.2,6,41.4,5.9c9.7-1.3,19.1,2.8,26,9.5c7.5,7.3,11.8,17.1,14.1,27.2c0.6,2.6,1.1,5.1,1.5,7.7c0.1,0.6,4.5-1.2,4.8-1.4
				c1.1-0.5,2.1-1,3.1-1.6C91.3,47.1,92.2,46.6,92.1,46.2L92.1,46.2z"/>
		</g>
	</g>
</g>
</svg>
