<?xml version="1.0" encoding="utf-8"?>
<!-- Generator: Adobe Illustrator 26.0.0, SVG Export Plug-In . SVG Version: 6.00 Build 0)  -->
<svg version="1.1" xmlns="http://www.w3.org/2000/svg" xmlns:xlink="http://www.w3.org/1999/xlink" x="0px" y="0px"
	 viewBox="0 0 96 96" style="enable-background:new 0 0 96 96;" xml:space="preserve">
<style type="text/css">
	.st0{display:none;}
	.st1{display:inline;fill:none;}
	.st2{display:inline;}
	.st3{font-family:'AlegreyaSans-Regular';}
	.st4{font-size:140px;}
</style>
<g id="Camada_1" class="st0">
	<path class="st1" d="M-17.3-51.8h130.6c1.7,0,3.2,1.2,3.2,2.6v171.6c0,1.5-1.4,2.6-3.2,2.6H-17.3c-1.7,0-3.2-1.2-3.2-2.6V-49.1
		C-20.4-50.6-19-51.8-17.3-51.8z"/>
	<text transform="matrix(1 0 0 1 6.0005 94.0888)" class="st2 st3 st4">G</text>
</g>
<g id="Camada_2">
	<g>
		<g>
			<path d="M77,42c2-1,3.9-2.2,5.4-3.9c1.1-1.3,2-2.8,2.8-4.4c1.6-3.5,2.5-7.5,2.2-11.3c-0.8-8.8-9-13.3-16.6-15.7
				c-4.2-1.3-8.5-2-12.7-2.6C54,3.7,50,3,46.1,3.3C41.2,3.6,36.5,5.6,32.3,8c-3.9,2.3-7.3,5.4-10.3,8.8C10.4,30,6.4,49.3,11.2,66.1
				c2.5,8.8,7.5,17.5,15.2,22.7c4.4,3,9.5,4.6,14.7,5.2C46,94.7,51,95,55.9,94.9c5.5-0.1,10.8-2.2,15.5-5.1c3.6-2.2,6.3-5.3,8.2-9
				c1.5-2.9,2.4-6.1,3.2-9.2c0.8-3.4,1.3-6.9,0.9-10.4c-0.2-2.2-0.6-4.5-0.9-6.7c-0.1,0-0.2-0.1-0.2-0.1c-3.2-0.3-6.2-1.4-9.1-2.6
				c-3.4-1.4-6.7-2.8-10.3-3.7c-8.3-2.1-16.5-0.4-24.5,2.3c-2.1,0.7-4.4,1.6-6.1,3c-1.5,1.2,1.7,0.3,2,0.1c0.5-0.2,1-0.3,1.4-0.5
				c-0.8,0.3-0.2,0.1,0,0c0.3-0.1,0.7-0.2,1-0.3c1.2-0.3,2.1-0.6,3.2-0.8c2.8-0.5,5.6-0.8,8.4-0.6c5.1,0.3,9.8,2,14.4,3.9
				c2,0.8,3.9,1.6,6,2.3c0.9,0.3,1.9,0.5,2.8,0.7c0.4,0.1,1,0,1.4,0.2c0.4,0.2,0.4,0.2,0.5,0.7c0.1,0.5,0.1,1,0.2,1.5
				c0.3,2.1,0.7,4.1,0.8,6.2c0.1,2-0.2,4-0.5,6c-0.6,3.3-1.5,6.7-2.8,9.8c-0.8,1.9-1.8,3.7-3,5.3c-0.6,0.8-1.3,1.6-2,2.3
				c-0.3,0.3-0.6,0.6-1,0.8c-0.1,0.1-0.6,0.5-0.3,0.2c-0.1,0.1-1,0.6-0.3,0.2c0.4-0.2,0.9-0.5,1.3-0.7c0.5-0.2,1.1-0.4,1.6-0.7
				c-0.4,0.1-0.3,0.1,0.2-0.1c-0.1,0-0.6,0.1,0,0c-0.2,0-0.4,0.1-0.7,0.1c-0.9,0.2-1.8,0.2-2.7,0.2c-2.6,0.1-5.2-0.1-7.7-0.2
				c-5.7-0.3-11.4-0.7-16.7-3C30.7,83.2,24.4,74,21.1,64.4c-3.1-9-3.5-18.8-1.6-28c1.9-9.3,6.4-18,13-24.8c1.5-1.5,3-3,4.7-4.3
				c0.1-0.1,0.6-0.4,0.1-0.1c0.1-0.1,0.3-0.2,0.5-0.3c0.7-0.5-0.6,0.3-0.1,0c0.6-0.3-1.1,0.5-0.3,0.1c-0.5,0.2-1,0.5-1.5,0.7
				c-2,0.8,0.7-0.2-0.9,0.3c0.2,0,0.3-0.1,0.5-0.1c-0.7,0.2,0.1,0,0.2,0c3.8-0.7,7.9-0.1,11.7,0.4c8.8,1.1,18.8,2.5,25.7,8.6
				c3.3,2.9,5.1,6.7,5.1,11.2c0,4.2-1.2,8.4-3.5,12c-0.4,0.7-0.9,1.3-1.4,1.9c-0.3,0.3-0.4,0.5-0.6,0.6c-0.1,0.1-0.2,0.2-0.3,0.3
				c-0.1,0-0.1,0.1-0.2,0.1c0.5-0.4,1.1-0.7,1.7-1c-0.3,0.2-3.7,1.8-2.8,2.2c0.5,0.2,1.9-0.4,2.3-0.6C74.6,43.1,75.8,42.6,77,42
				L77,42z"/>
		</g>
	</g>
</g>
</svg>
