<?xml version="1.0" encoding="utf-8"?>
<!-- Generator: Adobe Illustrator 26.0.0, SVG Export Plug-In . SVG Version: 6.00 Build 0)  -->
<svg version="1.1" xmlns="http://www.w3.org/2000/svg" xmlns:xlink="http://www.w3.org/1999/xlink" x="0px" y="0px"
	 viewBox="0 0 96 96" style="enable-background:new 0 0 96 96;" xml:space="preserve">
<style type="text/css">
	.st0{fill:url(#SVGID_1_);stroke:#8E7C6B;stroke-miterlimit:10;}
	.st1{fill:#C4AB97;stroke:#8E7C6B;stroke-miterlimit:10;}
</style>
<g id="Camada_1">
	<g id="Camada_1_00000052823419743967179880000003980248231012848259_">
		
			<linearGradient id="SVGID_1_" gradientUnits="userSpaceOnUse" x1="10.1536" y1="70.3126" x2="85.3342" y2="26.9071" gradientTransform="matrix(1 0 0 -1 0 96)">
			<stop  offset="0" style="stop-color:#EEDDC9"/>
			<stop  offset="0.6334" style="stop-color:#F5EADE"/>
			<stop  offset="1" style="stop-color:#F9F3EC"/>
		</linearGradient>
		<ellipse class="st0" cx="48.1" cy="47.6" rx="44.2" ry="42.9"/>
	</g>
	<g id="Camada_2_00000109010296273856990870000015595962623684315049_">
	</g>
</g>
<g id="Camada_2">
	<g>
		<g>
			<path class="st1" d="M16.3,72.3c-3.1-10.3-3.8-21.7-3.7-32.5c0-3.3,0.2-6.2,0.4-8.8c0.2-3.1,1-6.5,2-10c0.4-1.8,0.9-3.3,1.5-4.6
				c0.6-1.3,1.3-2.7,2.2-4.1c1.5-2.6,3.4-4.4,6-5.5C26,6.2,27.5,5.9,29.2,6c2.1,0,3.5,0.7,4.1,2.1c0.4,0.9,0,1.4-1.1,1.3
				c-0.3,0-0.9-0.2-1.7-0.4c-0.7-0.1-1-0.2-1.6-0.3c-2.4-0.1-4.2,0.8-5.6,2.5c-1,1.2-2,3.5-2.9,6.6c-0.7,2.4-1.1,5.4-1.3,8.4
				c-0.1,1.7-0.3,4.4-0.8,8.4c-0.2,2.5-0.3,3.8-0.5,6.3c-0.1,2.1-0.2,3.1-0.3,5.2c-0.3,6.2-0.1,11.7,0.6,17c0.4,3.3,1.1,6.2,1.9,8.5
				c0.8,2.3,1.9,4.3,3.4,5.9c1.6,1.8,3.5,2.7,5.4,2.6c3.5-0.2,5.9-3.2,7.6-7.5c-0.1-2.4-0.3-5.5-0.4-8.7c0-1.6-0.1-3.2-0.3-4.5
				c-0.1-1.2-0.5-1.8-0.9-1.8c-0.6,0.1-1,0.1-1.6,0.2c-0.7,0.1-1.1,0.2-1.9,0.3c-1.3,0.1-2-0.4-1.8-1.6c0.1-0.6,1.1-1.2,2.8-1.7
				c1.7-0.5,3.1-0.6,4.1-0.5c0.9,0.1,1.4,0.6,1.7,1.4c0.3,0.8,0.3,1.8,0.1,3.1c-0.2,1.5-0.4,4.5,0.4,9.9c0.7,4.6,1.7,8.8,2.3,12.1
				c0.3,1.6,0,2.4-0.9,2.4c-1.6,0-2.7-1.3-3-3.5c0-0.2,0-0.3,0-0.4c0-0.1,0-0.2,0-0.3c-3.3,3.1-6.6,5.2-9.6,5.3
				C22.4,84.4,18.4,79.4,16.3,72.3z"/>
			<path class="st1" d="M83.2,84.9c-0.4-0.4-0.7-1.2-0.8-2.2c-0.5-3.7-0.7-5.4-1.1-8.9c-0.4-4.4-1.2-9.5-1.4-15.5
				c0-1.1,0-2.8,0.1-4.9C80,49.2,80,45.6,80.2,43c0.2-2.1,0.3-3.2,0.5-5.4c0.2-1.6,0.4-3.6,0.5-5.8c0.1-1.9,0.2-3.6,0.3-5.1
				c0-1,0-2,0-2.7c0-0.7,0-1.3-0.1-1.7c-0.1,0.3-0.2,0.5-0.3,0.9c-1.1,5.7-3,13.3-5.6,20.9c-2.6,7.6-5.5,13.3-6.5,17.1
				c-0.9,3.4-1.4,6-1.5,7.6c0,0.7-0.3,1.3-0.7,1.8c-0.4,0.4-1,0.6-1.6,0.5c-0.6-0.1-1.2-0.4-1.8-1c-0.6-0.6-0.9-1.3-1.1-2.2
				c-0.9-2.9-3-10.2-2.1-22.1c1-11.9-0.2-21.8-0.5-22.4c0,7.1-1.2,13.5-3,19.3c-1.5,4.6-2.9,8.3-3.7,11.9c-0.9,3.6-1.4,7.8-0.8,13.6
				c0.1,1,0.4,2.6,1.1,4.9c0.5,2.1,0.9,3.2,1.7,5.6c0.5,1.6,0.6,3.1,0.4,3.3c-0.7,0.5-3.8-2.6-4.8-6.8c-1.8-8-1.8-11-1.1-16.7
				c0.4-3.4,1-4.8,2-7.8c0.8-2.2,1.7-4.6,2.7-7.5c1.1-3.3,2-6.5,2.5-9.7c0.7-4.4,0.9-6.9,0.5-12.6c-0.3-4.3-0.7-6.6-1.9-11.9
				c-0.1-0.5-0.1-1,0.1-1.4c0.2-0.4,0.5-0.6,0.8-0.6c0.6,0,1,0.4,1.4,1.3c1.3,3.1,4.6,12.6,5.4,23.1c0.8,10.5,0.1,15.9,0.2,20.2
				c0,2.5-0.5,6.9,1.7,13.8c0.2-1.3,0.3-1.9,0.6-3.1c0.2-1,0.7-2.3,1.4-4.1c1.6-4.2,2.6-6.8,2.9-7.4c3.6-8.4,5.4-13.2,8.2-24.9
				c0.6-2.5,0.8-3.7,1.3-6.3c0.6-2.8,0.8-4.1,1.3-6.9c0.2-1.5,0.3-2.2,0.5-3.7c0.1-0.8,0.3-1.5,0.6-1.9c0.3-0.5,0.7-0.7,1.1-0.7
				c0.3,0,0.7,0.2,0.9,0.5c0.3,0.4,0.4,0.9,0.4,1.5c0,4.4-0.1,6.6-0.2,10.8c-0.2,5.4-0.2,13.2,0.4,22.8c0.5,8.9,0.8,16.3,0.9,21.9
				c0,1.8,0.3,4.6,0.6,8.2c0.4,4.7,0.4,8.1,0.4,10c0,1.5,0,2.5-0.3,2.9c-0.2,0.4-0.7,0.6-1.2,0.6C84.2,85.6,83.5,85.3,83.2,84.9z"/>
		</g>
	</g>
</g>
</svg>
