<svg xmlns="http://www.w3.org/2000/svg" xmlns:xlink="http://www.w3.org/1999/xlink" viewBox="0 0 96 96"><defs><style>.cls-1{fill:#1c1c1c;}.cls-2{fill:#eaeae5;}.cls-3{fill:#bb21d6;}.cls-4{fill:url(#Gradiente_sem_nome_104);}</style><linearGradient id="Gradiente_sem_nome_104" x1="-7.68" y1="15.86" x2="103.68" y2="80.14" gradientUnits="userSpaceOnUse"><stop offset="0" stop-color="#1c1c1c"/><stop offset="0.18" stop-color="#212121" stop-opacity="0.99"/><stop offset="0.27" stop-color="#333" stop-opacity="0.94"/><stop offset="0.35" stop-color="#525250" stop-opacity="0.87"/><stop offset="0.41" stop-color="#7d7d7b" stop-opacity="0.76"/><stop offset="0.46" stop-color="#b5b5b2" stop-opacity="0.63"/><stop offset="0.5" stop-color="#eaeae5" stop-opacity="0.5"/><stop offset="0.53" stop-color="#c1c1bd" stop-opacity="0.6"/><stop offset="0.6" stop-color="#858582" stop-opacity="0.75"/><stop offset="0.67" stop-color="#565655" stop-opacity="0.86"/><stop offset="0.74" stop-color="#353534" stop-opacity="0.94"/><stop offset="0.84" stop-color="#222" stop-opacity="0.99"/><stop offset="1" stop-color="#1c1c1c"/></linearGradient></defs><g id="Camada_3" data-name="Camada 3"><path class="cls-1" d="M3.49,0H78.43A17.57,17.57,0,0,1,96,17.57V92.51A3.49,3.49,0,0,1,92.51,96H17.57A17.57,17.57,0,0,1,0,78.43V3.49A3.49,3.49,0,0,1,3.49,0Z"/><path class="cls-2" d="M39.2,64.42A22.15,22.15,0,0,1,21.92,56.5,27.13,27.13,0,0,1,17,47.87a30.81,30.81,0,0,1-1.72-10.36A31.22,31.22,0,0,1,17.1,26.74,28.32,28.32,0,0,1,22.22,18,23,23,0,0,1,30,12.07,23.53,23.53,0,0,1,40,10a21.07,21.07,0,0,1,10.85,2.73,23.19,23.19,0,0,1,7.71,7.4V10.8H70.43V61a23.26,23.26,0,0,1-3.81,13.44A24.19,24.19,0,0,1,56.13,83a37.11,37.11,0,0,1-15.2,3,33.45,33.45,0,0,1-14.6-2.88A29.55,29.55,0,0,1,16.09,75l7.4-7.19a21.1,21.1,0,0,0,7.65,5.88,23.1,23.1,0,0,0,9.79,2.13,20.81,20.81,0,0,0,8-1.48,13,13,0,0,0,5.78-4.58,13.82,13.82,0,0,0,2.18-8.14V54.89a17.92,17.92,0,0,1-7.45,7A22,22,0,0,1,39.2,64.42Zm4.57-10.84A12.61,12.61,0,0,0,48,52.86a14.8,14.8,0,0,0,3.75-1.93,14.92,14.92,0,0,0,5.07-6.3V31.91a16.91,16.91,0,0,0-3.39-5.49,16.11,16.11,0,0,0-4.87-3.61A13.12,13.12,0,0,0,43,21.54a12.09,12.09,0,0,0-5.67,1.32,13,13,0,0,0-4.36,3.72,17.82,17.82,0,0,0-2.79,5.28,19.17,19.17,0,0,0-1,6.06A16.68,16.68,0,0,0,30.28,44a15.84,15.84,0,0,0,3.09,5A14.63,14.63,0,0,0,38,52.36,13.74,13.74,0,0,0,43.77,53.58Z"/><circle class="cls-3" cx="75.54" cy="80.83" r="5.18"/><path class="cls-4" d="M78.43,0H3.49A3.5,3.5,0,0,0,0,3.49V78.43A17.63,17.63,0,0,0,17.57,96H92.51A3.5,3.5,0,0,0,96,92.51V17.57A17.63,17.63,0,0,0,78.43,0ZM91.38,88.22a3.17,3.17,0,0,1-3.16,3.16H20.5A15.93,15.93,0,0,1,4.62,75.5V7.78A3.17,3.17,0,0,1,7.78,4.62H75.5A15.93,15.93,0,0,1,91.38,20.5Z"/></g></svg>