<?xml version="1.0" encoding="utf-8"?>
<!-- Generator: Adobe Illustrator 26.0.0, SVG Export Plug-In . SVG Version: 6.00 Build 0)  -->
<svg version="1.1" xmlns="http://www.w3.org/2000/svg" xmlns:xlink="http://www.w3.org/1999/xlink" x="0px" y="0px"
	 viewBox="0 0 624.3 430.4" style="enable-background:new 0 0 624.3 430.4;" xml:space="preserve">
<style type="text/css">
	.st0{fill:#71B07B;}
	.st1{fill:#4B865E;}
	.st2{fill:#8AB2E0;}
	.st3{fill:#F6B19B;}
	.st4{fill:#C5573E;}
	.st5{fill:#4A76BA;}
	.st6{fill:none;stroke:#000000;stroke-width:0.5;stroke-miterlimit:10;}
	.st7{fill:#2E5AA6;}
	.st8{fill:#2B373D;}
	.st9{fill:#191919;}
	.st10{fill:#424242;}
	.st11{fill:#3E5770;}
	.st12{fill:#5F5F5E;}
	.st13{fill:#575756;}
	.st14{fill:none;stroke:#ADB698;stroke-width:0.5;stroke-miterlimit:10;}
	.st15{fill:none;stroke:#AEB699;stroke-width:0.5;stroke-miterlimit:10;}
	.st16{fill:#F6B19B;stroke:#010202;stroke-width:0.5;stroke-miterlimit:10;}
	.st17{fill:none;stroke:#010202;stroke-width:0.5;stroke-miterlimit:10;}
	.st18{fill:#2B3F4C;}
	.st19{fill:none;stroke:#F6A87C;stroke-width:0.25;stroke-miterlimit:10;}
	.st20{fill:none;stroke:#000000;stroke-width:0.25;stroke-miterlimit:10;}
	.st21{fill:none;stroke:#000000;stroke-miterlimit:10;}
	.st22{fill:#261D22;stroke:#000000;stroke-width:0.5;stroke-miterlimit:10;}
	.st23{fill:#FFFFFF;stroke:#000000;stroke-miterlimit:10;}
	.st24{fill:#676766;}
	.st25{fill:#010202;}
	.st26{fill:#5B5461;}
	.st27{fill:#63809E;}
	.st28{fill:#F7F1EC;}
	.st29{fill:#3D3100;stroke:#153D5B;stroke-width:0.5;stroke-miterlimit:10;}
	.st30{fill:#3D3100;stroke:#3D3100;stroke-width:0.5;stroke-miterlimit:10;}
	.st31{fill:#AF9E72;stroke:#3D3100;stroke-width:0.5;stroke-miterlimit:10;}
	.st32{fill:none;stroke:#010202;stroke-miterlimit:10;}
	.st33{fill:#383B44;}
	.st34{fill:#FFFFFF;}
	.st35{fill:#D8735B;}
	.st36{fill:#C4533F;}
	.st37{fill:#ADB698;}
</style>
<g id="Camada_2">
	<path class="st0" d="M513.1,56.6c0.2,0.7,0.3,1.5,0.1,2.3c-0.1,0.7-0.3,1.4-0.6,2c-1.5,2.9-2.8,4.9-2.8,4.9c-1.9,3-1.6,2.8-3.5,5.8
		c-0.9,1.4-1.7,2.5-2.2,3.3c-0.9,1.2-1.3,1.9-1.9,2.7s-0.7,0.8-1.6,2c-0.7,0.9-0.8,1.1-1.2,1.6c-0.2,0.3-0.4,0.5-1.5,1.6
		c-0.5,0.6-1,1-1.4,1.5s-1.3,1.3-2.2,2.1s-1,0.8-2.6,2.1s-1.5,1.3-2.2,1.8c-0.9,0.7-1.8,1.3-2.7,1.8c-0.9,0.5-4.5,2.3-5.9,3
		l-0.4,0.1c-0.2-1.5-0.3-2.9-0.3-4.1c-0.1-1.9,0-3.3,0-4.2s0.1-1.7,0.2-2.7c0.1-1,0.3-1.9,0.6-2.8c0.5-1.8,1-3.5,1.7-5.1
		c0.6-1.4,1.1-2.4,1.4-3c0.6-1.2,1.2-2.1,1.5-2.5c0.4-0.7,0.8-1.2,0.9-1.3c0.6-0.8,1.1-1.5,1.4-1.9c1.9-2.4,2.9-3.5,3.4-4.1
		c1.2-1.4,2.2-2.3,2.5-2.6s1-1,2-1.8s1.9-1.6,2.7-2.2c1-0.8,1.7-1.3,2.2-1.7c1-0.7,1.7-1.2,2.5-1.7c0.5-0.3,1-0.6,1.5-0.8
		c0.4-0.2,0.9-0.4,1.3-0.5c0.5-0.1,0.9-0.1,1.4-0.1c0.5,0,1,0,1.5,0.1c1.1,0.2,2.1,0.8,2.9,1.5c0.5,0.5,0.9,1.1,1.2,1.7
		C512.9,55.6,513,56.1,513.1,56.6z"/>
	<path class="st1" d="M456.6,144.2c5.7-12.2,13.5-30,19.6-41.6c7-13.7,14.3-27.8,25.5-38.6l0.1,0.1c-12,15.1-21.1,32.2-29.6,49.5
		c-4.7,10.2-10,21.4-14.8,31.4l-0.9-0.4h0C456.4,144.5,456.5,144.4,456.6,144.2"/>
	<path class="st0" d="M435.3,77.4c0.1-3.7,0.2-6.4,0.3-8.3c0-0.4,0.1-1.6,0-3.2c0-1.3-0.1-2.1-0.1-2.4c-0.1-0.9-0.2-1.7-0.4-2.6
		c-0.3-1.6-0.7-3.2-1.3-4.8c-0.3-1-0.7-2-1.1-3c-0.4-0.9-1-2-2.1-4c-0.9-1.5-1.3-2.2-1.6-2.7c-0.8-1-1.7-2-2.6-2.9
		c-0.7-0.8-1.5-1.4-2.3-2.1c-0.7-0.5-1.4-0.9-2.1-1.3c-0.6-0.3-1.2-0.6-1.8-0.7c-0.5-0.1-1-0.1-1.5,0.1c-0.6,0.2-1.1,0.5-1.5,0.9
		c-0.4,0.4-0.7,0.9-0.9,1.5c-0.2,0.8-0.3,1.6-0.3,2.4c-0.1,1.3-0.1,2.6,0,3.9c0.1,1,0.3,2,0.6,3c0.2,0.8,0.5,1.8,1,3.4
		c0.8,2.5,1.2,3.8,1.8,5.1c0.1,0.4,0.2,0.5,2,4.2c1.8,3.6,2,4,2.4,4.7c0.8,1.3,1.6,2.6,2.6,3.8c0.9,1.3,2.1,2.4,3.4,3.3
		C431.4,76.9,433.4,77.4,435.3,77.4z"/>
	<path class="st0" d="M393.1,52.4c0.4-0.4,0.8-1,0.3-6.7c-0.1-0.8-0.1-1.7-0.3-2.7s-0.3-2.2-0.5-3.4c-0.3-1.4-0.7-2.9-1.1-4.2
		c-0.6-2.3-1.5-4.6-2.6-6.7c-0.8-1.4-1.6-2.8-2.6-4.1c-0.9-1.2-1.9-2.3-2.9-3.3c-0.9-0.9-1.6-1.5-2.3-2.1c-0.7-0.6-1.4-1.1-2.2-1.6
		c-0.6-0.4-1.4-0.7-2.1-0.9c-0.7-0.1-1.3-0.1-2,0c-0.5,0-1,0.2-1.4,0.4c-0.4,0.3-0.8,0.8-1,1.2c-0.4,0.8-0.7,1.7-0.8,2.7
		c0,0.5,0,0.9,0,1.4c0,0.8,0.1,1.5,0.2,2.3c0.1,0.9,0.4,1.9,0.6,2.8c0.1,0.3,0.4,1.3,0.9,2.7c0.3,0.9,0.6,1.6,0.9,2.3
		c0.1,0.3,0.7,1.6,1.6,3.5c0.5,1,0.9,1.8,1.4,2.8c0.8,1.5,1.7,2.9,2.6,4.3c0.5,0.8,1.2,1.7,2.6,3.5c2.1,2.8,2.5,3.3,3.2,3.8
		c0.8,0.7,1.7,1.3,2.7,1.8c0.8,0.5,1.6,0.8,2.5,0.9C391.7,53.3,392.5,53,393.1,52.4z"/>
	<path class="st0" d="M404.8,91.2c0.4-0.8,0.1-2-0.4-3.4c-0.2-0.7-0.5-1.4-0.9-2.1c-0.5-0.9-1.2-1.7-2-2.4c-1-0.9-2-1.7-3.2-2.3
		c-1-0.6-1.3-0.8-4.3-2.4s-2.5-1.4-3.1-1.7c-1.3-0.6-2.6-1.2-5.3-2.2c-1.6-0.6-2.4-0.9-4-1.5c-1-0.4-1.9-0.7-2.9-0.9
		c-0.9-0.2-1.7-0.4-2.6-0.5c-1.2-0.2-2.5-0.3-3.7-0.2c-0.9,0.1-1.8,0.3-2.6,0.8c-0.5,0.2-0.9,0.6-1.2,1.1c-0.2,0.5-0.3,1.1-0.3,1.6
		c-0.1,0.4-0.1,0.9-0.1,1.3c0.1,0.6,0.3,1.3,0.6,1.8c0.5,0.9,1,1.7,1.7,2.5c0.9,0.9,1.9,1.8,2.9,2.6c1,0.8,2,1.6,3.1,2.3
		c0.9,0.6,1.9,1.1,2.9,1.5c0.4,0.2,0.8,0.4,3.6,1.4c3,1.1,3.6,1.3,4.3,1.5s1.3,0.3,2.4,0.6c1.8,0.4,3.5,0.7,4.6,0.9
		C399.3,92.2,403.8,92.9,404.8,91.2z"/>
	<path class="st0" d="M412.3,144.9c-0.3-0.5-0.6-0.9-0.9-1.2s-0.7-0.8-1.2-1.3s-0.7-0.7-0.9-0.9s-0.5-0.4-0.9-0.7l-0.6-0.4
		c-0.7-0.5-0.8-0.6-1.3-1c-0.2-0.2-0.1-0.1-1-0.7s-0.8-0.5-1.1-0.7c-0.4-0.2-0.8-0.4-1.2-0.6c-0.5-0.2-1.2-0.6-2.5-1.3
		c-1.7-0.9-1.5-0.9-2.4-1.3s-1.2-0.5-3.2-1.4c-2.3-1-2.2-1-3.2-1.4c-1.3-0.5-1.2-0.4-3.3-1.1c-1.8-0.6-1.9-0.7-2.9-1
		c-0.9-0.2-1.8-0.4-2.7-0.5c-1-0.2-2-0.2-3-0.2c-0.6,0-1.1,0.1-1.6,0.2c-0.6,0.1-1.1,0.2-1.6,0.5c-0.5,0.2-0.8,0.6-1.1,1
		c-0.2,0.4-0.3,0.9-0.3,1.4c-0.1,0.4-0.1,0.8-0.1,1.3c0,0.5,0.1,1.1,0.3,1.6c0.2,0.5,0.5,1,0.8,1.5c0.5,0.7,1.1,1.3,1.7,1.9
		c1.5,1.4,1.2,1.2,2.1,2.1c0.7,0.7,1.5,1.3,2.3,1.9l0.3,0.2l0.9,0.6c0.3,0.2,0.8,0.6,2,1.5"/>
	<path class="st0" d="M456.5,141.4c-0.1,1.1-0.3,2.3-0.6,3.4h-4.2c-0.5-0.2-1.9-0.9-3.3-1.7c-1-0.6-1.9-1.1-1.9-1.2
		c-0.5-0.3-1-0.7-3-2s-2.3-1.6-2.8-2s-0.9-0.8-1.6-1.5c-1.3-1.3-2-1.9-2.7-2.7c-0.9-1-1.7-2.1-2.4-3.3c-0.8-1.3-1.6-2.6-2.3-4
		c-0.7-1.2-1.3-2.5-1.8-3.8c-0.5-1.2-0.8-2.5-0.9-3.8c-0.2-1.3-0.2-2.6,0.2-3.9c0.2-0.7,0.6-1.3,1.1-1.7c0.6-0.4,1.4-0.6,2.1-0.6
		c0.8-0.1,1.6,0.1,2.3,0.4c0.7,0.3,1.3,0.7,1.9,1.2c2,1.3,1.8,1.2,2.1,1.4c0.9,0.7,1.8,1.5,2.5,2.3c1.3,1.3,1.1,1,2.7,2.6
		s2.5,2.4,3.2,3.2s1.3,1.7,2.7,3.5c0.8,1.1,1.2,1.6,1.7,2.4c1,1.5,1.7,2.7,2.5,3.9c1,1.7,1.3,2.4,1.5,2.7c0.4,0.8,0.7,1.6,0.9,2.5
		c0.1,0.3,0.1,0.6,0.1,0.9C456.6,140.1,456.6,140.8,456.5,141.4z"/>
	<path class="st0" d="M468,125c0-0.7,0.6-1.3,1.5-2.2c0.5-0.5,1.1-0.9,1.8-1.2c0.6-0.4,1.3-0.7,1.9-0.9c0.9-0.3,1.8-0.6,2.7-0.8
		c0.2,0,0.8-0.2,2-0.3c0.6-0.1,2.2-0.3,4.2-0.4c0.9-0.1,1.9-0.1,3.3-0.1h2.5h3c1.1,0,2.5,0.1,4.4,0.3c0.4,0,1.8,0.2,3.6,0.6
		c1.6,0.3,2.9,0.6,3.3,0.8c1.3,0.3,2.6,0.8,3.9,1.3c0.7,0.3,1.4,0.7,2.1,1.2c0.5,0.4,0.9,0.8,1.2,1.4c0.3,0.5,0.3,1.1,0.3,1.7
		c-0.1,0.4-0.3,0.9-0.5,1.3c-0.2,0.5-0.5,0.9-0.8,1.3c-0.4,0.4-0.8,0.8-1.3,1.1c-0.5,0.4-1.1,0.7-1.6,1c-0.5,0.2-1,0.5-1.8,0.9
		c-0.5,0.2-1,0.4-1.6,0.5c-0.7,0.2-1.5,0.3-2.3,0.4c-0.6,0.1-1.1,0.1-1.7,0.1c-0.5,0-0.5,0-1.2,0c-0.9,0-1.1,0.1-1.8,0.1s-1.2,0-2,0
		c-4.2-0.1-4.2-0.1-5.6-0.1c-0.9-0.1-1.9-0.1-3.1-0.3s-2.1-0.3-2.6-0.4c-0.7-0.1-1.5-0.3-2.2-0.6c-0.6-0.2-1.1-0.4-2.1-0.8
		c-0.5-0.2-1.1-0.4-2.1-0.9c-0.4-0.2-1-0.4-1.6-0.7c-0.4-0.2-0.7-0.3-1.1-0.6l-1.1-0.6l-1.1-0.6c-0.4-0.2-0.8-0.5-1.2-0.8
		C468.6,126.2,468.2,125.6,468,125z"/>
	<path class="st1" d="M466.1,123.5c10.5,0,21.5,0.9,31.3,3.8c-10.1-2.1-21-2.1-31.3-2.8L466.1,123.5z"/>
	<path class="st1" d="M436.8,144.8c1.3-11.9,3.5-23.7,3.2-35.6c-0.5-15.6-4.8-31.7-9.9-46.4c-1.3-3.2-3.4-7.8-4.9-10.8
		c4.4,6.7,7.6,14.1,9.5,21.9c1.9,6.8,4.5,16.4,5.2,23.4c2.7,15.9-0.3,31.9-2.2,47.7L436.8,144.8z"/>
	<path class="st1" d="M413.9,144.8c0.1-7.7-1-16.2-2-23.8c-1-7.9-2.5-15.8-4.4-23.6c-1-5.2-2.5-10.3-4.5-15.3
		c-3.7-10.1-7-20.2-11.6-29.8c-3.4-7.3-7-14.4-10.4-21.6c-1.1-2.4-2.5-4.7-3.8-7.1c3,4,5.5,9.3,8,13.9c7.3,14.3,13.5,29.1,18.7,44.3
		c2,5,3.5,10.2,4.5,15.4c1.9,7.8,3.4,15.7,4.4,23.6c1,7.7,2.1,16.3,2,24L413.9,144.8L413.9,144.8z"/>
	<path class="st1" d="M406.6,92.7c-4.5-2.1-8.9-4.7-13.4-6.8c-4.1-1.5-9.8-4.3-13.7-6.2l0-0.2c4.7,1.8,9.2,4,14,5.5
		c4.6,2.1,9,4.5,13.5,6.8L406.6,92.7L406.6,92.7z"/>
	<path class="st1" d="M385.9,136.9c5.9,2.3,11.9,4.3,17.2,7.8l-0.5,0.8c-5.1-3.7-11-5.9-16.8-8.4C385.9,137,385.9,137,385.9,136.9z"
		/>
	<g>
		<path class="st1" d="M453.4,144.9c-3.3-8.4-9-15.9-16.4-21.3l0,0c7.5,5.2,13.6,12.5,17.3,20.9L453.4,144.9L453.4,144.9z"/>
	</g>
</g>
<g id="Camada_1">
	<path class="st2" d="M483.3,241c-1.4,0-2.5-1.1-2.5-2.5c0-1.4,1.1-2.5,2.5-2.5s2.5,1.1,2.5,2.5c0,0,0,0,0,0
		C485.8,239.9,484.7,241,483.3,241C483.4,241,483.3,241,483.3,241z M528,233.9c0-3.5-0.1-3.2-0.1-8.6c0-6.5,0-7.6,0-15.6
		c0-8.3-0.1-9.2-0.1-17.3c0-1.6,0.2-5.6,0.1-11.1c-0.1-1.9-0.1-2.9-0.1-3.5c-0.6-5-2.4-9.7-5.2-13.8c-2.3-3.4-5-6.4-8.2-9
		c-2.1-1.9-4.4-3.5-6.9-5c-4.7-2.7-9.9-4.5-15.3-5.2l-36.1,0.1c-33.4,0.1-66.9,0.1-100.3,0.1h-5.1l0.5,0.5l0.1,0.1
		c0.3,0.3,0.8,0.9,1.6,2l7,8.2l2.8,3.1l1.1,1.3l2.5,2.8c4.4,1.7,8.5,4.1,12.2,7.1c1.8,1.4,3.4,3,4.9,4.6c1.6,1.7,3.1,3.5,4.4,5.4
		c0.8,1.1,1.4,2.3,2,3.5c0.7,1.4,1.2,2.8,1.5,4.3c0.2,0.9-0.2,1.8-0.9,2.4c-0.2,0-0.5-0.1-0.7-0.2c-0.7-0.5-1.2-1.2-1.4-2
		c-0.9-2.9-4.3-6.6-4.8-6.4c-0.1,0.1-0.1,0.4-0.1,0.6s0.3,0.5,0.5,1c0,0,0,0.1,0,0.1c1.3,2.8,2.5,5.8,3.5,8.8
		c0.3,0.9,0.4,1.8,0.6,2.7c0.1,0.2,0.6,2.1-0.4,3c-0.2,0.2-0.5,0.3-0.7,0.4c-0.5,0-1.1-0.6-1.3-1.4c0,0-0.2-0.8-0.6-2.2
		c-0.4-1.5-0.9-2.9-1.5-4.3c-0.2-0.4-0.4-0.9-0.7-1.3c-0.3-0.6-0.6-1-0.7-1.3c-0.5-0.9-1.9-3.1-2.5-2.9c-0.2,0.1-0.2,0.6-0.2,0.9
		c1.7,6.3,2.4,8.4,2.9,11.8c0.1,0.9,0.1,1.8,0.1,2.7c0.1,0.8-0.1,1.6-0.4,2.3c-0.2,0.4-0.7,1.4-1.5,1.5c-1,0.1-2.2-1.4-2.1-2.8V201
		c0-2.7-0.2-5.4-0.8-8c-1.3-5.3-3.2-6.1-3.7-5.8s0.6,2.7,1.1,6.8c0.5,4.4,0.6,6.1,0,7.9c-0.2,0.5-0.8,1.6-1.7,1.6s-1.4-0.9-1.5-1.1
		c-0.3-0.7-0.5-1.5-0.3-2.3c0-1.1-0.1-2.3-0.2-3.4c-0.1-1.6-0.3-3.3-0.8-4.9c-1-3.2-2.6-4.6-3-4.6c-0.3,0-0.6,0.1-0.8,0.3
		c-0.1,0.1-0.4,0.4-0.6,1.4c-0.1,0.6-0.1,0.6-0.2,1.1c-0.1,0.6-0.3,1.2-0.6,1.8c-0.2,0.4-0.3,0.8-0.6,1.2c-0.3,0.5-0.7,0.9-1.1,1.3
		c-0.6,0.5-1.4,0.6-2.1,0.4c-1.3-0.7,0.6-7.1,0.4-11c-0.4-3-1.3-5.9-2.6-8.6c-0.8-1.4-1.8-2.6-3-3.7c-0.9-0.8-1.3-0.9-2.1-1.6
		c-1-0.9-2.1-1.8-3-2.8l-3.1-1.6c-1-0.6-1.4-0.8-2.6-1.8c-3.4-2.6-3.1-3.1-5.9-4.9c-1.9-1.2-2.3-1.1-4.5-2.6c-1.5-0.9-2.8-1.9-4-3.1
		c-0.1-0.2-0.9-0.8-2.3-2.2c-0.2-0.2-0.4-0.3-0.7-0.4c-0.3-0.1-0.6-0.1-0.9,0c-1.8,0.2-3.7,0.2-5.5-0.1c-1.7,7-4.1,13.9-7.3,20.4
		l-0.5,0.2l-7,0.4c-2.2,0.2-4,0.2-5.2,0.2c-8.8,0.1-17.5,0.5-26.2,0.5c0,0-0.1,0-0.1,0.1c-2.4,17.7-4.4,36.2-8.8,54.1
		c0,3.9-0.1,6.6,0,7c0,0.2,0,0.4-0.1,0.6c0,0-0.1,0.1-0.1,0.1c-0.2,0.1-0.4,0.1-0.6,0.2c-0.2,0.1-0.5,0.1-0.7,0.1
		c-1.2,0.1-2.8,0.2-4.5,0.2c-0.6,0-0.3,0-0.3,0c0.1,0.1,0.2,0.3,0.4,0.5c0.3,0.3,0.6,0.6,0.9,0.8c0.3,0.2,0.5,0.3,0.7,0.5l0.7,0.4
		c0,0,0.1,0,0.1,0.1c0.3,0.1,0.4,0.2,0.7,0.4c0.5,0.3,0.9,0.6,1.6,1.1c1.1,0.8,2.2,1.6,3.7,2.7c4.2,3.1,7.4,5.7,9.1,7.1
		c2.5,1.9,4.8,4,7,6.2c1.5,1.5,2.9,3.3,4.1,5.1c0.4,0.6,0.7,1.3,1,2c0,0.2,0.2,0.3,0.3,0.4c0.3,0,0.6,0,0.9,0c1.9,0,4.3,0,7,0
		l9.3,0.1c19.5,0.1,26,0.1,37.9,0.1c24.8,0.1,24.2,0.5,45.8,0.5c19.1,0.1,17.3-0.2,36.1-0.2c30.9,0.1,30.6,0.9,53.3,0.7
		c17.3-0.1,23-0.1,35-0.1l7.7,0c3.2-4.5,4.7-10,4.4-15.5c0-0.7,0.1-2.6,0.1-4.7C528.1,239.7,528,238.1,528,233.9z"/>
	<g>
		<path class="st3" d="M216,214.2c-0.6,0.4-1.3,0.5-2,0.2c-0.6-0.3-1.2-0.6-1.7-1c-2.6-1.7-5.3-3.1-8.2-4.2
			c-0.6-0.5,0.8,1.2,1.2,1.8c2.4,4,4.3,8.2,5.7,12.6h-3.9l-0.2-0.3c-1.3-2.7-1.7-4.1-2.8-5.8c-1.3-2-2.9-3.7-4.8-5.1
			c3,5,4.6,7.4,3.8,10c0,0.2-0.1,0.4-0.2,0.6h-2.2c-0.1-0.3-0.5-0.8-0.9-1.4c-1.7-2.6-3.6-4.9-5.9-7c0.9,1.1,1.7,2.3,2.4,3.6
			c0.2,0.4,0.4,0.8,0.5,1.2c0.4,1.1,0.7,2.3,0.7,3.5h-1.3c-0.7-1.6-7-15.5-12.4-27.4c0.7,0.2,1.4,0.4,2,0.6
			c8.8,2.6,17.3,6.3,25.3,11c1.5,0.8,3,1.9,4.2,3.1c0.6,0.5,1,1.2,1.3,2C216.9,212.8,216.6,213.7,216,214.2z"/>
	</g>
	<path class="st1" d="M50,330c-4.3,11.4-5.1,24.2,0.5,35.3c1.4,2.9,2.3,6.1,2.6,9.3c0.4,1.3-0.2,2.7-1.4,3.3h-0.6
		c-1.1-0.5-1.9-1.6-1.8-2.9c-0.1-1-0.3-1.9-0.5-2.9c-1.5-5.9-4-11.9-4.1-18c-0.2-4.2,0.1-8.4,1-12.5c0.9-4.1,2.1-8,3.7-11.9
		C49.6,329.9,49.8,330,50,330L50,330z"/>
	<path class="st3" d="M163.5,176.9l-26.3-1.2c1.2-2.3,2.5-4.6,4-6.8c1.3-1.8,2.6-3.6,4.1-5.3c1.1,1,2.1,1.8,2.8,2.4
		c0.3,0.2,1.3,1.1,3.4,2.7c1.2,1,1.7,1.3,2.4,1.9s1,0.7,2,1.4c2.3,1.6,2.5,1.7,3.5,2.4S161.7,176,163.5,176.9z"/>
	<path class="st4" d="M239.4,111.5c0.1,0,0,0.3-0.2,0.5c-2.4,3.8-7.4,7.2-13.8,8.6l0.3-2.2c4.7-1.5,9.2-3.8,13.2-6.7
		C239.2,111.5,239.4,111.4,239.4,111.5z"/>
	<path class="st5" d="M250.5,302.7l-167.5,0.1c-1.3-0.5-2.6-1.2-3.7-2.1c-6.2-5.1-5.3-15-5.1-17.3c1.3-13.7,14.4-21.6,16.3-22.8
		l60.7-0.1c4.6,1.2,5.8,1.7,12.4,3.5c7.4,1.9,13.1,3.2,19.3,4.5c5.5,1.2,4.3,0.8,13.1,2.7c0,0,2.6,0.5,7.2,1.3c1,0.2,3.5,0.6,5,0.7
		c0.1,0,0.4,0,0.8,0.1l0.6,0.1c0.6,0.1,1.3,0.2,1.6,0.2c1,0.3,2,0.8,2.8,1.5c1.6,1,2.4,1.5,3.2,2.2c1.1,0.8,2.1,1.6,3.1,2.6
		c0.9,0.9,1.7,1.8,2.4,2.9c0.7,1.1,1.3,2.3,1.8,3.5c0.3,0.7,0.6,1.4,0.8,2.1c0.1,0.4,0.1,0.8,0.2,1.2c0.1,1.1,0.1,2.2,0.1,3.3
		c0,0.9,0,1.7-0.1,2.6c-0.1,0.8-0.3,1.7-0.6,2.4c-0.3,0.7-0.6,1.3-0.8,2.1c-0.1,0.6-0.1,1.1-0.1,1.7c0,0.2,0.1,0.5,0.3,0.7
		c0.1,0.2,0.3,0.3,0.6,0.3c0.4,0.1,0.7,0.1,1.1,0c0.3-0.1,0.7-0.1,1-0.3c0.8-0.3,1.6-0.7,2.3-1.2c2.4-1.6,4.2-5,4.7-5.9
		c0.6-1.1,1.1-2.3,1.3-3.5c0.2-1.1,0.3-2.2,0.4-3.4c0.2-2.2,0.3-3.5,0.4-5.1c0.1-1.9,0.3-3.3,0.3-4.1c0-1.6,0.2-3.1,0.4-4.6
		c0.1-0.2,0.1-0.3,0.2-0.7c0-0.2,0.1-0.4,0.2-0.5c0.1-0.3,0.2-0.3,0.2-0.3c2.6,1.4,9.1,3.9,11.4,4.9c0.2,8.6,0.6,13.7,1.7,24.4
		C250.5,302.2,250.5,302.6,250.5,302.7z"/>
	<path class="st6" d="M87.2,242.4c0-0.1,0-0.1,0-0.2"/>
	<path class="st2" d="M166,144.7c-2.1,1.9-11.5,9.7-13.8,11.8c-2.3,2.1-4.4,4.3-6.5,6.7c-0.1,0.2-0.3,0.3-0.4,0.5
		c-1.5,1.7-2.8,3.4-4.1,5.3c-1.1,1.6-2.2,3.3-3.1,5c-0.6,1-1.7,1.7-2.9,1.7h-0.2c-1.3-0.1-2.8-0.2-4.5-0.2c-3,0-5.9,0-9.2-0.1
		c-3.7-0.1-8.1-0.3-10.6-0.3h-7.3h-0.4c-0.2,0-0.3,0-0.5,0h-0.7c-0.3,0-0.5,0-0.6,0.1s-0.2,0.2,0.2,1.4c0.1,0.6,0.3,1.1,0.6,1.6
		c0.1,0.1,0.1,0.3,0.3,0.7c0,0,0.2,0.3,0.3,0.7c0.8,1.7,2,5.1,3,7.9c0.2,0.7,0.4,1.3,0.7,1.9l0.1,0.1c0.1,0.3,0.2,0.5,0.2,0.7
		c0.1,0.1,0.1,0.3,0.1,0.4c0.1,0.2,0.2,0.4,0.2,0.6s0.2,0.5,0.2,0.7c0.1,0.4,0.2,0.7,0.3,0.8s0,0.1,0,0.1c1.5,3.4,3.1,7,4.6,10.6
		c0.2,0.6,0.5,1.2,0.8,1.8c0.2,0.4,0.4,0.8,0.5,1.2s0.4,1,0.6,1.5s0.5,1.1,0.7,1.6c0.1,0.4,0.3,0.7,0.4,1.1c0.4,1.1,0.9,2.2,1.4,3.4
		c0,0.1,0.1,0.2,0.1,0.4c1,2.4,2.1,5.3,3.4,8.7l0.1,0.3l0.1,0.4l0,0c-2.4,1.8-4.5,3.9-6.2,6.4c-0.8,1.2-1.4,2.5-1.8,3.8
		c-0.2,0.5-0.3,1-0.3,1.6c0,0.5,0,0.9,0.1,1.4c0.1,0.8,0.4,1.5,0.8,2.1c6.1,9.1,32.5,19.8,35.3,20.6c1.3,0.4,2.5,0.7,3.3,0.9
		l-60.7,0.1c-0.1-0.2-0.2-0.5-0.3-0.7c0,0-0.1-0.4-0.2-0.7c-1.6-5.5-2.6-11.1-2.8-16.8c-0.1-3.4-0.2-6-0.2-7.5
		c-0.2-8.5-0.4-18.3-0.6-26.7s-0.3-15.6-0.3-18.8c0-2.8,0.2-5.6,0.6-8.4c1.5-9.2,5.7-17.8,12.1-24.6c0,0,11.8-11.2,33.8-11.5
		c0.7,0,3.9,0,8.7-0.1c6.6-0.1,7.5-0.2,10.8-0.1h4"/>
	<path class="st5" d="M533.1,302c-0.5,0.3-1.1,0.6-1.7,0.8H292.9c0.9-10.7,0.9-18.5-2.5-40.9c0.3,0,0.6,0,0.9,0c1.9,0,4.3,0,7,0
		l9.3,0.1c19.5,0.1,26,0.1,37.9,0.1c24.8,0.1,24.2,0.5,45.8,0.5c19.1,0.1,17.3-0.2,36.1-0.2c30.9,0.1,30.6,0.9,53.3,0.7
		c17.3-0.1,23-0.1,35-0.1l7.7,0c2.3,0.4,4.5,1.2,6.4,2.5c0.9,0.6,1.8,1.3,2.5,2.1c4.2,4.3,6.9,9.8,7.8,15.7
		C540.9,289.6,539.2,298.4,533.1,302z"/>
	<path class="st7" d="M538.4,332.5c0,2.1-0.9,4.1-2.4,5.6c-0.6,0.5-1.2,1-1.8,1.4c-0.7,0.5-1.6,0.8-2.5,0.8c-2.6,0-5.8,0.1-9.5,0.1
		c-8.5,0.1-15.1,0.1-18.5,0c-12.5-0.1-14.4-0.2-27.5-0.2H469c-8.2,0-10.3,0.1-18.5,0.1c-2.5,0-5.9,0-10.4,0c-3.8,0-5.4-0.1-10.4-0.1
		c0,0-4,0-9.2,0c-12,0-22.8,0.1-39.6,0.2c-6.2,0-8.7,0-24.3,0c-9.2,0-7.9,0-11,0c-3,0-34.2-0.2-38.5-0.3c-4.1,0-10-0.1-17.2-0.1l0,0
		l0,0c0.5-5.4,1.1-10.8,1.5-16.3c0.6-7.1,1.1-14,1.6-20.9h238.5c1.4,0.4,2.8,1,4,1.8c0.3,0.2,0.7,0.5,1,0.7c1,0.7,1.5,1.9,1.6,3.1
		C538.3,319,538.3,320.2,538.4,332.5z"/>
	<path class="st6" d="M83.1,302.7h-0.2"/>
	<path class="st8" d="M536.6,385.7c-0.2,0-0.4,0.1-0.5,0.1c-0.2,0-0.4,0-0.6,0c-0.5,0-0.5,0-1.1,0.1h-1.7c-0.5-0.1-1-0.3-1.3-0.6
		l-13.2-19.5l-17.2-25.4h21.2l9.8,28.3l4.5,13.1C536.5,382,537.2,385.5,536.6,385.7z"/>
	<path class="st8" d="M118.9,340.2l-25.6,39c-1.4,2.1-2.8,4.2-4.1,6.3c-0.4,0.4-0.9,0.8-1.5,0.9c-0.1,0-0.2,0-0.3,0
		c-0.2,0-0.5,0-0.7,0c-0.2,0-0.3,0-0.5,0c-0.1,0-0.3-0.1-0.4-0.1c-0.1,0-0.2-0.1-0.8-0.5c-0.3-0.2-0.6-0.4-0.8-0.6
		c-0.2-0.5-0.5-1-0.7-1.5c-0.1-0.4-0.1-0.7,0-1.1c0-0.3,0.1-0.5,0.2-0.7c1-2.7,1.9-5.5,2.9-8.2l0,0c3.9-11.1,8-22.4,11.9-33.4
		c4.5,0,8.9,0,15.5,0L118.9,340.2z"/>
	<path class="st9" d="M257,286.6l-1,81.4c-0.4-4.4-0.9-9.6-1.4-14s-0.9-9.6-1.4-14c-0.9-12.4-2-25.2-2.8-37.3c0-0.1,0-0.5,0-0.5
		c-1.1-10.8-1.6-15.8-1.7-24.4c-2.3-1.1-8.8-3.5-11.4-4.9c-8.8-3.4-17-8.2-24.3-14.1v-10.3c-1.5-1.3-3.1-2.5-4.8-3.6
		c-1.4-1-2.5-1.6-4.6-2.8c-2.6-1.6-2.3-1.3-4.1-2.4c-3.6-2.2-3.8-2.2-5.4-3.2c-1.1-0.6-1.6-0.9-2.8-1.6c-0.5-0.2-1.1-0.6-1.9-1.1
		c0.1,0,0.3,0.1,0.4,0.1l48.2,1.3v-0.8c7.3,0.1,14.6,0.1,21.8,0.2c0.1,0.1,0.2,0.3,0.4,0.5c0.3,0.3,0.6,0.6,0.9,0.8
		c0.3,0.2,0.5,0.3,0.7,0.5l0.7,0.4c0,0,0.1,0,0.1,0.1c-2.6,0.1-5.3,0.2-7.9,0.3c-12.5,0.5-19.4,0.4-36.5,2.5
		c2.6,6.4,5.8,11.1,11.1,14.3C244.9,265.1,256.1,274.1,257,286.6z"/>
	<path class="st10" d="M292.9,302.8c-0.5,6.9-1,13.8-1.6,20.9c-0.5,5.5-1,11-1.5,16.3l0,0c0,2-0.2,7.3-0.7,12.8
		c-0.2,3.3-0.5,6.3-0.6,6.5c-0.2,2.1-0.4,4.2-0.7,6.2c-0.8,0.2-1.5,0.5-2.3,0.7c-1,0.3-2.1,0.5-3,0.7l-0.8,0.2l-0.7,0.1
		c-2.4,0.4-4.8,0.6-7.3,0.7c-3,0.1-6,0.2-8.8,0.2h-0.4l-8.6,0l1-81.4c-0.9-12.5-12.2-21.5-27.4-32.6c-5.4-3.2-8.6-8-11.1-14.3
		c17.1-2.1,24-2,36.5-2.5c2.7-0.1,5.3-0.2,7.9-0.3c0.3,0.1,0.4,0.2,0.7,0.4c0.5,0.3,0.9,0.6,1.6,1.1c1.1,0.8,2.2,1.6,3.7,2.7
		c4.2,3.1,7.4,5.7,9.1,7.1c2.5,1.9,4.8,4,7,6.2c1.5,1.5,2.9,3.3,4.1,5.1c0.4,0.6,0.7,1.3,1,2c0,0.2,0.1,0.3,0.3,0.4
		C293.8,284.3,293.8,292.1,292.9,302.8z"/>
	<path class="st11" d="M235.7,288.2c0,1.1-0.2,2.3-0.4,3.4c-0.3,1.2-0.7,2.4-1.3,3.5c-0.5,0.9-2.3,4.3-4.7,5.9
		c-0.7,0.5-1.5,0.9-2.3,1.2c-0.3,0.1-0.7,0.2-1,0.3c-0.4,0.1-0.7,0.1-1.1,0c-0.2,0-0.4-0.2-0.6-0.3c-0.2-0.2-0.3-0.4-0.3-0.7
		c-0.1-0.6-0.1-1.2,0.1-1.7c0.2-0.7,0.5-1.4,0.8-2.1c0.3-0.8,0.5-1.6,0.6-2.4c0.1-0.9,0.1-1.7,0.1-2.6c1.5-0.1,3-0.4,4.5-0.9
		c1.1-0.4,2.1-0.9,3-1.5C234.1,289.6,234.9,288.9,235.7,288.2z"/>
	<path class="st12" d="M237.4,272.8c0,0-0.1,0-0.2,0.3c-0.1,0.2-0.1,0.4-0.2,0.5c-0.1,0.4-0.1,0.5-0.2,0.7c-0.2,1.5-0.4,3.1-0.4,4.6
		c-0.1,0.8-0.2,2.2-0.3,4.1c-0.1,1.6-0.2,2.9-0.4,5.1c-0.8,0.8-1.7,1.5-2.6,2.1c-0.9,0.6-1.9,1.1-3,1.5c-1.4,0.5-2.9,0.8-4.5,0.9
		c0-1.1,0-2.2-0.1-3.3c-0.1-0.4-0.1-0.7-0.2-1.2c-0.2-0.7-0.4-1.5-0.8-2.1c-0.5-1.2-1.1-2.4-1.8-3.5c-0.7-1-1.5-2-2.4-2.9
		c-0.9-0.9-2-1.8-3.1-2.6c-0.8-0.6-1.6-1.1-3.2-2.2c-0.8-0.7-1.8-1.2-2.8-1.5c-0.3-0.1-1-0.2-1.6-0.2l-0.6-0.1
		c0.9-2.2,1.6-4.4,2.1-6.7c0.2-0.9,0.3-1.6,0.6-2.9c0.4-1.6,0.7-3,1-4l0.3-0.9C220.4,264.6,228.6,269.4,237.4,272.8z"/>
	<line class="st6" x1="225.3" y1="226.6" x2="224.6" y2="226.6"/>
	<line class="st6" x1="238.3" y1="228.3" x2="238.3" y2="227.9"/>
	<path class="st12" d="M284.5,402.4c0,0.2,0,0.4,0,0.6c-2.3,1.1-4.3,2-5.9,2.7c-1.9,0.9-2.9,1.3-4.2,1.8c-2,0.8-4,1.5-6,2
		c-1.1,0.3-2.3,0.5-3.5,0.6c-0.8,0.1-1.7,0.1-2.5,0.1c-1.2,0-2.3-0.1-3-0.1c0.3-1.5,0.6-3,1.1-4.5c0.8-2.2,1.3-5.8,2.4-13.1
		c0.8-5.2,1.1-8.7,1.2-9.6c0.1-1.4,0.3-3,0.4-5c0.2-3.5,0.2-7.8,0.1-9.8h0.4c2.7,0,5.7-0.1,8.8-0.2c2.4-0.1,4.9-0.3,7.3-0.7l0.7-0.1
		l0.8-0.2c0,12,0,19.4,0,21.2c-0.1,0.9-0.1,1.8,0,2.7c0.1,0.8,0.2,1.7,0.3,2.5c0.2,0.9,0.4,1.6,0.7,2.7c0.6,2,0.6,1.8,0.8,2.5
		C284.5,399.7,284.6,401,284.5,402.4z"/>
	<line class="st6" x1="282.5" y1="366.8" x2="282.5" y2="366.8"/>
	<path class="st11" d="M284.5,402.9c0,0.7-0.1,1.4-0.2,2.1c-0.5,2.2-2,3.5-3.5,4.9c-2.2,1.9-4.8,3.4-7.6,4.3
		c-1.4,0.5-2.9,0.9-4.4,1.1c-2.3,0.3-4.7,0.3-7,0c-0.6,0-1.2-0.2-1.7-0.6c-0.4-0.3-0.7-0.8-0.9-1.3c-0.1-0.3-0.1-0.6-0.1-0.9
		c0-0.8,0.1-1.6,0.2-2.4c0.8,0,1.8,0.1,3,0.1c0.8,0,1.7,0,2.5-0.1c1.2-0.1,2.4-0.3,3.5-0.6c2-0.5,4-1.2,6-2c1.3-0.5,2.3-1,4.2-1.8
		C280.1,404.9,282.1,404,284.5,402.9z"/>
	<path class="st13" d="M247.7,124.5l2.9,0.1c0,8.7-23.9,14.7-28.9-0.3h3.2"/>
	<path class="st3" d="M360,155.8l-7.6,6.3l-4.4,3.4c-1-0.6-1.4-0.8-2.6-1.8c-3.4-2.6-3.1-3.1-5.9-4.9c-1.9-1.2-2.3-1.1-4.5-2.6
		c-1.5-0.9-2.8-1.9-4-3.1c-0.1-0.2-0.9-0.8-2.3-2.2c-0.2-0.2-0.4-0.3-0.7-0.4c-0.3-0.1-0.6-0.1-0.9,0c-1.8,0.2-3.7,0.2-5.5-0.1
		c0.9-6.8,1-13.7,0.4-20.5c2.9,0.2,5.7,0.3,7.2,0.3s3.1,0.3,4.7,0.4c0.6,0,1.2,0.1,1.8,0.3c0.4,0.1,0.8,0.3,1.2,0.5
		c0.6,0.3,1.2,0.7,1.8,1.1c0.3,0.2,0.6,0.4,0.9,0.8c1.4,1.2,2.6,2.5,3.8,3.9c1.1,1.3,3.5,4.1,7.3,7.9l0.5,0.5l0.1,0.1
		c0.3,0.3,0.8,0.9,1.6,2L360,155.8z"/>
	<path class="st6" d="M193,161.6L193,161.6"/>
	<line class="st14" x1="236.4" y1="93.5" x2="238.8" y2="93.4"/>
	<path class="st15" d="M242.9,90.4l-4.3,3.2"/>
	<path class="st3" d="M224.8,124.2c0.4,0.5,4.6,6.1,11.9,6c6.8-0.1,10.6-5.1,11.1-5.7"/>
	<path class="st16" d="M217,95.8c-0.5,0-0.9-0.8-0.9-1.7s0.4-1.7,0.9-1.7s0.9,0.8,0.9,1.7S217.5,95.8,217,95.8z"/>
	<path class="st16" d="M220.9,99.8c0.5-1.2,0.9-2.5,1.1-3.8c0.1-0.7,0.1-1.3,0.1-2c0-0.6,0.2-1.1,0.8-0.5c0.2,0.2,0.4,0.5,0.4,0.7
		c0.2,0.4,0.4,0.8,0.6,1.2c0.4,0.9,0.8,1.8,1,2.8c0.2,1,0.1,2-0.4,2.9c-0.5,0.9-1.5,1.3-2.5,1.2c-0.7-0.1-1.2-0.6-1.3-1.3
		C220.7,100.6,220.8,100.2,220.9,99.8L220.9,99.8z"/>
	<path class="st16" d="M228.1,105c-0.3,1.6-1.4,3-2.9,3.6c-1.5,0.6-3.2,0.1-4.2-1.2c-0.1-0.1-0.2-0.3-0.1-0.5s0.5-0.2,0.8-0.2
		c1.1,0.3,2.3,0.1,3.4-0.5c0.8-0.4,1.5-0.9,2.1-1.5c0.2-0.2,0.5-0.7,0.9-0.4S228.2,104.9,228.1,105L228.1,105z"/>
	<path class="st16" d="M230.7,94.7c-0.6,0-1-0.7-1-1.6s0.5-1.6,1-1.6s1,0.7,1,1.6S231.3,94.8,230.7,94.7L230.7,94.7z"/>
	<path class="st16" d="M249.8,93.7c-0.7,2.3-2,4.3-3.8,6c-0.6,0.7-1.4,1.1-2.3,1.1c-0.8-0.2-1.4-0.8-1.6-1.6c-0.2-0.8-0.2-1.6,0-2.3
		c0-0.2,0-0.3,0.1-0.4c0.1-0.8,0.3-1.5,0.5-2.3c0-0.1,0.1-0.2,0.1-0.4l0,0l0.1-0.2c0,0,0-0.1,0-0.1c0-0.1,0.1-0.2,0.1-0.3
		c0.1-0.6,0.4-1.1,0.8-1.6c0.8-1.3,2-2.2,3.4-2.8c1.7-0.5,2.9,1.1,3,2.6C250.2,92.2,250.1,93,249.8,93.7L249.8,93.7z"/>
	<path class="st17" d="M213.6,84L213.6,84"/>
	<circle class="st18" cx="26.1" cy="316.5" r="4.4"/>
	<circle class="st18" cx="32" cy="229.5" r="3.9"/>
	<circle class="st18" cx="138.6" cy="368.8" r="4.1"/>
	<circle class="st18" cx="184.6" cy="295.5" r="3"/>
	<circle class="st18" cx="428.9" cy="364" r="4.2"/>
	<circle class="st18" cx="558.6" cy="311.9" r="4.3"/>
	<circle class="st18" cx="490.5" cy="316.3" r="2.8"/>
	<circle class="st18" cx="483.3" cy="238.5" r="2.5"/>
	<ellipse class="st18" cx="566.2" cy="210.6" rx="2.8" ry="2.6"/>
	<circle class="st18" cx="55" cy="182.5" r="2.5"/>
	<path class="st19" d="M21.7,302.9l61.2-0.1"/>
	<path class="st20" d="M531.9,368.6c-0.1,0.1-0.2,0.1-0.3,0.2"/>
	<path class="st0" d="M532.7,385.9h-37.9c0.6-1.3,1.4-2.5,2.2-3.8c0.9-1.4,1.9-2.7,2.9-3.9c0.4-0.5,1.5-1.8,3.1-3.4
		c1.1-1.1,2-1.9,2.9-2.7c1-0.9,1.8-1.6,2.9-2.5c1.3-1.1,2.7-2.1,4.3-2.9c1.6-0.7,3.4-1.1,5.2-1l13.2,19.5
		C531.7,385.6,532.2,385.9,532.7,385.9z"/>
	<path class="st0" d="M392.2,385.9c1-0.2,1.7-1,2-2c0-0.6-0.1-1.1-0.5-1.6c-0.3-0.4-0.8-0.8-1.3-1c-0.9-0.6-1.9-1.1-3-1.5
		c-0.8-0.2-1.7-0.4-2.6-0.4c-0.2,0-0.6-0.1-2.8-0.1l-2.9-0.1c0,0-1,0-2.4,0c-0.5,0.1-1.1,0-1.5-0.3c-0.4-0.4-0.7-0.9-0.7-1.4
		c-0.2-0.6-0.6-1.2-1-1.7c-0.6-0.7-1.3-1.3-2.2-1.6c-1.1-0.5-2.3-0.8-3.5-0.8c-1.4-0.1-2.8,0-4.1,0.3c-1.3,0.3-2.6,0.8-3.7,1.4
		c-1,0.4-1.9,1-2.8,1.6c-0.9,0.7-1.9,1.3-2.9,1.9c-0.3,0.2-0.8,0.3-1.2,0.2c-0.3-0.1-0.5-0.3-0.6-0.6c-0.3-0.6-0.6-1.3-0.9-2
		c-0.4-0.8-1-1.5-1.7-1.9c-0.7-0.4-1.4-0.6-2.2-0.7c-1.2-0.1-2.4,0.2-3.5,0.7c-1.4,0.6-2.7,1.3-3.9,2.2c-1.6,1-3.1,2.1-4.5,3.4
		c-2.1,1.8-4,3.8-5.7,6"/>
	<path class="st0" d="M114.3,384.1c-0.2,0.9-0.8,1.7-1.6,2.3H87.3c0.1,0,0.2,0,0.3,0c0.6-0.1,1.1-0.5,1.5-0.9
		c1.4-2.1,2.7-4.2,4.1-6.3c2.2,0.2,4.1,0.3,5.3,0.3l4.5,0.1c1.2,0,2.4,0,3.7,0.1c1.1,0.1,2.3,0.3,3.4,0.6c0.9,0.2,1.9,0.6,2.7,1.1
		c1,0.5,1.3,0.8,1.4,1.2C114.5,383.1,114.5,383.6,114.3,384.1z"/>
	<path class="st20" d="M87.3,386.4h-1.2"/>
	<path class="st20" d="M256.1,386.4H112.7"/>
	<line class="st20" x1="86.5" y1="373.6" x2="86.5" y2="373.6"/>
	<path class="st1" d="M61.8,336.5c-4.8,5.1-5.7,12.5-5.2,19.2c0.4,5.1,2,10.5,1.6,15.8c-0.1,1.8,0,3.6-2,5.2l-0.7-0.1
		c-1.5-1.9-1.2-3.6-1.1-5.3l0.2-5.1c0.4-10.1-1.1-22.3,6.8-30.2L61.8,336.5L61.8,336.5z"/>
	<path class="st1" d="M74.9,357c2.8,4,0.6,8.5,2.2,12.7c0.6,2.2,1.5,3.6,0.2,6l-0.7,0.3c-1.2-0.4-2.1-1.4-2.4-2.6
		c-0.7-3.1,0.2-6.6,0.5-9.6c0.6-2.2,0.7-4.3-0.4-6.4L74.9,357L74.9,357z"/>
	<path class="st1" d="M555.9,325.4c-5.2,5.6-9.9,12.1-12.6,19.2c-1.1,3.7-1.8,7.5-2.2,11.3c-0.3,1.9-0.5,3.8-0.9,5.8
		c-0.5,1.9-0.2,3.9-2.2,5.5l-0.5-0.1c-1.4-2.2-0.4-4-0.2-6c0.3-1.9,0.7-3.9,1.1-5.8c1.7-7.6,4.3-15.4,9.3-21.5
		c2.3-3.2,4.9-6.1,7.8-8.8C555.7,325.1,555.8,325.2,555.9,325.4L555.9,325.4z"/>
	<path class="st1" d="M562.9,336c-6.8,3.8-11.3,10.8-13.8,18c-0.9,3-2.1,6-3.4,8.9c-0.8,1.4-1.4,2.9-3.1,3.8l-0.4-0.2
		c-0.2-1.9,0.6-3.2,1.4-4.5c1.1-2.4,2.7-6,3.9-8.5c3.2-7.1,8.1-14.2,15.2-17.8L562.9,336L562.9,336z"/>
	<path class="st1" d="M569.2,240.8c0,0,1,7.2,1,7.1c11.2,41.4,9.2,88.9-17.3,124.3c-1,1.2-1.5,2.8-3.8,2.3l-0.4-0.3
		c-1-2.1,0.2-2.9,1.1-4.3c0.8-1.1,1.6-2.2,2.3-3.4c4.5-6.9,8.6-14,12.1-21.4c14.2-30.1,12.8-65.3,5.4-97.1c0,0-0.8-7.1-0.8-7.1
		C569,240.8,569.1,240.8,569.2,240.8L569.2,240.8z"/>
	<path d="M235.9,61.9c0.7-2.4,2.1-4.6,3.9-6.3c-1.7,1.8-2.9,4-3.5,6.4L235.9,61.9L235.9,61.9z"/>
	<path d="M237.5,61.9c2.6-2.5,5.9-4.1,9.5-4.6c-3.5,0.6-6.7,2.4-9.1,4.9L237.5,61.9L237.5,61.9z"/>
	<line class="st21" x1="571.7" y1="385.9" x2="494.7" y2="385.9"/>
	<path class="st0" d="M572.9,383.7c-0.2,0.8-0.6,1.6-1.2,2.2h-37.4c0.6,0,0.5-0.1,1.1-0.1c0.2,0,0.4,0,0.6,0c0.2,0,0.4,0,0.5-0.1
		c0.6-0.2-0.1-3.8-0.2-4l-4.5-13.1c1.2-1,5.4-4.2,10.2-3.6c1.5,0.1,2.9,0.6,4.2,1.4c1.3,0.8,2.4,1.9,3.2,3.2c1,1.4,1.5,2.3,1.4,3.5
		c-0.1,0.9-0.4,1.4-0.1,1.9s1.3,0.4,2,0.3c0,0,0.6,0,5.2-0.2c1.6,0,3.2,0.1,4.8,0.4c1.6,0.2,3.1,0.5,4.7,1c1.4,0.4,2.6,1.1,3.8,2
		c0.8,0.5,1.4,1.3,1.8,2.1C573.3,381.7,573.3,382.7,572.9,383.7z"/>
	<path class="st6" d="M348.2,165.5c0,0-0.1,0-0.1-0.1"/>
	<path class="st3" d="M390.5,190.3c-0.2,0-0.5-0.1-0.7-0.2c-0.7-0.5-1.2-1.2-1.4-2c-0.9-2.9-4.3-6.6-4.8-6.4
		c-0.1,0.1-0.1,0.4-0.1,0.6s0.3,0.5,0.5,1c0,0,0,0.1,0,0.1c1.3,2.8,2.5,5.8,3.5,8.8c0.3,0.9,0.4,1.8,0.6,2.7c0.1,0.2,0.6,2.1-0.4,3
		c-0.2,0.2-0.5,0.3-0.7,0.4c-0.5,0-1.1-0.6-1.3-1.4c0,0-0.2-0.8-0.6-2.2c-0.4-1.5-0.9-2.9-1.5-4.3c-0.2-0.4-0.4-0.9-0.7-1.3
		c-0.3-0.6-0.6-1-0.7-1.3c-0.5-0.9-1.9-3.1-2.5-2.9c-0.2,0.1-0.2,0.6-0.2,0.9c1.7,6.3,2.4,8.4,2.9,11.8c0.1,0.9,0.1,1.8,0.1,2.7
		c0.1,0.8-0.1,1.6-0.4,2.3c-0.2,0.4-0.7,1.4-1.5,1.5c-1,0.1-2.2-1.4-2.1-2.8V201c0-2.7-0.2-5.4-0.8-8c-1.3-5.3-3.2-6.1-3.7-5.8
		s0.6,2.7,1.1,6.8c0.5,4.4,0.6,6.1,0,7.9c-0.2,0.5-0.8,1.6-1.7,1.6s-1.4-0.9-1.5-1.1c-0.3-0.7-0.5-1.5-0.3-2.3
		c0-1.1-0.1-2.3-0.2-3.4c-0.1-1.6-0.3-3.3-0.8-4.9c-1-3.2-2.6-4.6-3-4.6c-0.3,0-0.6,0.1-0.8,0.3c-0.1,0.1-0.4,0.4-0.6,1.4
		c-0.1,0.6-0.1,0.6-0.2,1.1c-0.1,0.6-0.3,1.2-0.6,1.8c-0.2,0.4-0.3,0.8-0.6,1.2c-0.3,0.5-0.7,0.9-1.1,1.3c-0.6,0.5-1.4,0.6-2.1,0.4
		c-1.3-0.7,0.6-7.1,0.4-11c-0.4-3-1.3-5.9-2.6-8.6c-0.8-1.4-1.8-2.6-3-3.7c-0.9-0.8-1.3-0.9-2.1-1.6c-1-0.9-2.1-1.8-3-2.8l3-1.9
		l8.7-6.1l1.1,1.3l2.5,2.8c4.4,1.7,8.5,4.1,12.2,7.1c1.8,1.4,3.4,3,4.9,4.6c1.6,1.7,3.1,3.5,4.4,5.4c0.8,1.1,1.4,2.3,2,3.5
		c0.7,1.4,1.2,2.8,1.5,4.3C391.6,188.8,391.2,189.7,390.5,190.3z"/>
	<path class="st22" d="M362.8,158.9l-8.7,6.1l-3,1.9l-3.1-1.5l4.3-3.4l7.7-6.3L362.8,158.9z"/>
	<circle class="st23" cx="356.2" cy="161.5" r="5.4"/>
	<path class="st24" d="M306.8,171.4c-2.2,0.2-4,0.2-5.2,0.2c-8.8,0.1-17.5,0.5-26.2,0.5c0,0-0.1,0-0.1,0.1
		c-2.4,17.7-4.4,36.2-8.8,54.1c0.3-19.4,1.1-39.2,2.9-58.6c0-0.1,0.1-0.2,0.2-0.2c5.6,0.3,10.5,0.7,14.4,1.1c3,0.3,7.3,0.7,13,1.4
		C301,170.4,304.3,171,306.8,171.4z"/>
	<path class="st24" d="M193,161.7c-1.2,5.7-2.4,11.5-3.5,17.2c-0.1,0.4-0.1,0.7-0.2,1.1l-10.1-0.2c3.3-5.1,6.9-9.9,10.9-14.5
		C190.9,164.1,192.5,162.2,193,161.7z"/>
	<path class="st2" d="M189.2,180c-1.1,5.4-2.2,10.8-3.3,16.1c-0.7-0.2-1.3-0.4-2-0.6c-3-6.7-5.7-12.7-7-15.6c0.7,0,1.4,0.1,2,0.1
		c0.1-0.1,0.1-0.2,0.2-0.3l0,0L189.2,180z"/>
	<path class="st6" d="M197.5,223L197.5,223"/>
	<path class="st6" d="M193.9,214.5L193.9,214.5L193.9,214.5"/>
	<path class="st25" d="M314.7,131h-0.2c0-0.4,0.1-0.7,0.1-1.1l0-0.1l0.1,0l0,0.1C314.7,130.3,314.7,130.7,314.7,131z"/>
	<path class="st26" d="M315.2,136.1l-0.2,0c0-0.2,0-0.4,0-0.6c0-0.5,0.1-1.1,0.1-1.6h0.2c0,0.5,0,1.1-0.1,1.6
		C315.2,135.7,315.2,135.9,315.2,136.1z"/>
	<path class="st26" d="M315.2,141.3l-0.2,0c0-0.2,0.1-0.5,0.1-0.7c0.1-0.4,0.1-0.9,0.1-1.3h0.2c0,0.4-0.1,0.9-0.1,1.4
		C315.3,140.8,315.2,141.1,315.2,141.3z"/>
	<path class="st26" d="M315,147.2l-0.2,0c0-0.5,0.1-1,0.1-1.5c0-0.4,0.1-0.7,0.1-1.1l0.2,0c0,0.4-0.1,0.7-0.1,1.1
		C315.1,146.2,315,146.7,315,147.2z"/>
	<path class="st26" d="M314.4,152.5l-0.1,0c0-0.3,0.1-0.6,0.1-1c0-0.3,0.1-0.6,0.1-1l0.1,0c0,0.3-0.1,0.6-0.1,1
		C314.5,151.8,314.4,152.1,314.4,152.5z"/>
	<path class="st26" d="M312.9,158l-0.1,0c0.1-0.4,0.2-0.8,0.3-1.2c0.1-0.3,0.1-0.5,0.2-0.8l0.1,0c-0.1,0.3-0.1,0.5-0.2,0.8
		C313.1,157.2,313,157.6,312.9,158z"/>
	<rect x="310" y="162.4" transform="matrix(0.501 -0.8654 0.8654 0.501 14.7742 350.4952)" class="st26" width="2.6" height="0.1"/>
	<polygon class="st26" points="308,167.7 307.9,167.6 309.7,165.6 309.8,165.7 	"/>
	<path class="st26" d="M153.1,159.4c-0.4-0.3-0.7-0.7-1.1-1c-0.2-0.2-0.5-0.4-0.7-0.7l0.1-0.1c0.2,0.2,0.5,0.4,0.7,0.6
		c0.4,0.3,0.7,0.7,1.1,1L153.1,159.4z"/>
	<path class="st26" d="M157.4,163.6c-0.7-0.5-1.3-1-2-1.5l0.1-0.1c0.7,0.5,1.3,1,2,1.5L157.4,163.6z"/>
	<polygon class="st26" points="162.1,167 160.1,165.5 160.2,165.4 162.2,166.9 	"/>
	<path class="st26" d="M167.4,170.1c-0.3-0.2-0.7-0.4-1-0.6c-0.3-0.2-0.7-0.4-1-0.6l0.1-0.1c0.3,0.2,0.7,0.4,1,0.6
		c0.3,0.2,0.7,0.4,1,0.6L167.4,170.1z"/>
	<polygon class="st26" points="172.8,172.2 170.5,171.2 170.6,171.1 172.9,172.1 	"/>
	<path class="st26" d="M178.5,173.4c-0.6-0.2-1.2-0.3-1.8-0.5c-0.3-0.1-0.5-0.1-0.8-0.2l0-0.1c0.3,0.1,0.5,0.1,0.8,0.2
		c0.6,0.2,1.2,0.3,1.8,0.5L178.5,173.4z"/>
	<path class="st26" d="M183.1,174.3c-0.2,0-0.4-0.1-0.5-0.1c-0.2,0-0.4-0.1-0.5-0.1l0-0.1c0.2,0,0.4,0.1,0.5,0.1
		c0.2,0,0.3,0.1,0.5,0.1L183.1,174.3z"/>
	<polygon points="179.1,180 179.1,180 179.1,179.5 	"/>
	<path class="st8" d="M255.5,82.2c-0.4,2.1-0.9,4.1-1.6,6.1c-0.7,1.7-1.6,3.2-2.7,4.7c0.2-1.2,0.1-2.5-0.2-3.7
		c-0.4-1.4-1.5-2.7-2.9-2.8c-0.9,0-1.7,0.4-2.3,1c-2.9,2.4-4,7.5-4.4,9.5c-0.2,0.6-0.6,1.2-0.9,1.2c-0.7,0-1.4-2-1.6-3.5
		c-0.2-2-0.1-3.9,0.1-5.9c0-1,0-1.9,0-2.9c0-0.5,0-1.1-0.1-1.6c-0.1-0.4-0.2-0.8-0.4-1.2c-0.2-0.5-0.5-0.9-0.9-1.4
		c-0.4-0.4-0.8-0.9-1.2-1.2c-2.8-2.7-9.5-3.2-13.3-0.7c-0.4,0.4-0.8,0.8-1.3,1.2c-0.2,0.1-0.3,0.2-0.5,0.4l-0.8,0.6
		c-0.3,0.3-0.6,0.5-1,0.7c-0.6,0.4-1.4,0.8-2.1,1c-0.5,0.1-1,0.2-1.6,0.3c-0.3,0.1-0.7,0.1-1,0.1c-0.4,0-0.9,0.1-1.4,0.1
		c-0.8,0-1.6-0.1-2.4-0.2c-2.2-0.4-4.2-1.5-5.8-3.1c-2.7-3.2-2.2-8.2-0.7-11.3c2.7-5.7,9.5-7.6,14-7.4c1.2,0.1,2.3,0.2,3.4,0.5
		c4-1.5,8.4-1.7,12.5-0.5c1.1-0.2,2.2-0.2,3.4-0.2c4.7,0.3,9,2.3,12.4,5.6C254.4,71.2,256.3,76.7,255.5,82.2z"/>
	<path class="st0" d="M86.5,373.6c-1,2.8-1.9,5.5-2.9,8.2c-0.1,0.2-0.2,0.5-0.2,0.7c-0.1,0.4-0.1,0.7,0,1.1c0.2,0.5,0.5,1,0.7,1.5
		c0.2,0.2,0.5,0.4,0.8,0.6c0.6,0.4,0.7,0.5,0.8,0.5c0.1,0,0.3,0.1,0.4,0.1H36.3c1-1.5,2.1-2.8,3.4-4c1.8-1.5,3.7-2.8,5.8-3.9
		c1.4-0.8,2.4-1.3,3.4-1.8c1.4-0.7,2.8-1.4,4.3-1.9c1.3-0.4,2.6-0.6,4-0.7c1.7-0.1,2.8-0.1,4,0.5c0.8,0.5,1.5,1.1,2.1,1.9
		c0.7,1,0.6,1.7,1.3,2.2c0.5,0.2,1.1,0.3,1.6,0.2c0.8-0.2,1.6-0.5,2.2-1.1c1-0.7,2.1-1.2,3.2-1.8c1-0.5,1.9-0.9,2.9-1.3
		c1.2-0.4,2.4-0.7,3.6-1c1.3-0.3,2.7-0.5,4.1-0.6C83.7,373.1,85.1,373.3,86.5,373.6z"/>
	
		<rect x="336.9" y="202.8" transform="matrix(2.929675e-03 -1 1 2.929675e-03 190.871 599.0706)" class="st27" width="117.8" height="2"/>
	<path class="st9" d="M212.9,259.5c-0.3,1-0.7,2.4-1,4c-0.3,1.4-0.4,2.1-0.6,2.9c-0.5,2.3-1.2,4.5-2.1,6.7c-0.4,0-0.7,0-0.8-0.1
		c-1.5-0.1-3.9-0.5-5-0.7c-4.6-0.8-7.2-1.3-7.2-1.3c-8.8-1.8-7.6-1.5-13.1-2.7c-6.2-1.3-11.9-2.5-19.3-4.5
		c-6.6-1.7-7.8-2.2-12.4-3.5c-0.9-0.2-2-0.5-3.3-0.9c-2.8-0.8-29.2-11.6-35.3-20.6c-0.4-0.6-0.7-1.4-0.8-2.1
		c-0.1-0.5-0.1-0.9-0.1-1.4c7.2,6.2,15.3,11.4,23.9,15.5c3,1.3,10.5,3.9,25.9,7.5c10.9,2.6,21.9,5.2,33.1,6c2.8,0.3,5.5,0.2,8.3-0.3
		C206.6,263.3,209.9,261.8,212.9,259.5z"/>
	<path class="st10" d="M213.1,248.4v10.3l-0.3,0.9c-2.9,2.2-6.3,3.8-9.9,4.6c-2.7,0.5-5.5,0.7-8.3,0.3c-11.2-0.8-22.2-3.4-33.1-6
		c-15.4-3.6-22.9-6.2-25.9-7.5c-8.6-4-16.7-9.2-23.9-15.5c0-0.5,0.1-1.1,0.3-1.6c0.4-1.4,1-2.7,1.8-3.9c1.7-2.5,3.8-4.6,6.2-6.4
		c-0.1,2.4-0.2,4.8-0.2,7.2l66.7,2.5c0.9,0.1,1.7,0.2,2.2,0.2c0.3,0.1,0.6,0.1,0.7,0.1l0,0c0.8,0.4,1.4,0.8,1.9,1.1
		c1.2,0.7,1.7,1,2.8,1.6c1.7,0.9,1.8,1,5.4,3.2c1.8,1.1,1.5,0.8,4.1,2.4c2.1,1.2,3.2,1.9,4.6,2.8C210,245.9,211.6,247.1,213.1,248.4
		z"/>
	<path class="st7" d="M253.3,339.9c-20.9-0.2-38.3-0.1-51.4,0c-18.6,0.1-18.6,0.3-33.8,0.4c-11.9,0-26.8,0-49.2-0.1h-5
		c-6.6,0-11,0-15.5,0c-1.2,0-2.2,0-3.2,0c-1.6,0-3.2,0-5.4,0c-5.3,0-8.3-0.1-10.1,0h-2c-0.6,0-1.1,0-1.7-0.1
		c-0.5-0.1-1.1-0.3-1.6-0.5c-0.3-0.2-0.6-0.3-0.9-0.6c-0.5-0.3-0.9-0.7-1.2-1.1c-0.3-0.4-0.5-0.8-0.6-1.3c-0.1-0.4-0.2-0.8-0.2-1.2
		c0-0.4,0-0.8,0-1.2c0.1-1-0.1-22.8,0-24c0-0.3,0-0.6,0-0.9c0-0.3,0-0.4,0-0.7c0-0.2,0-0.4,0.1-0.6c0-0.3,0.1-0.6,0.2-0.9
		c0.1-0.4,0.3-0.8,0.5-1.1c0.2-0.3,0.4-0.6,0.7-0.9c0.2-0.3,0.5-0.5,0.7-0.7c0.2-0.2,0.3-0.3,0.5-0.4c0.1-0.1,0.3-0.2,0.5-0.3
		c0.1-0.1,0.2-0.1,0.4-0.1c0.3-0.1,3.6-0.4,8-0.8l167.5-0.1C251.3,314.7,252.4,327.5,253.3,339.9z"/>
	<path class="st28" d="M321.6,150.4c-1.7,7.1-4.1,13.9-7.3,20.4l-0.5,0.2l-7,0.4c-2.5-0.4-5.8-0.9-9.8-1.4c-5.7-0.7-10.1-1.1-13-1.4
		c-3.9-0.4-8.8-0.7-14.4-1.1c-0.1,0-0.2,0.1-0.2,0.2c-1.8,19.5-2.6,39.2-2.9,58.6c0,3.9-0.1,6.6,0,7c0,0.2,0,0.4-0.1,0.6
		c0,0-0.1,0.1-0.1,0.1c-0.2,0.1-0.4,0.1-0.6,0.2c-0.2,0.1-0.5,0.1-0.7,0.1c-1.2,0.1-2.8,0.2-4.5,0.2h-0.4c-7.3,0-14.5-0.1-21.8-0.2
		v-6l-3.6-0.1c-0.1-0.3-0.2-0.6-0.2-0.6l-1.1-3.9h-7.4l-0.5,2.5l-0.4,0.6c-0.1-0.2-0.3-0.4-0.4-0.6l-0.8-2.5h-7.1
		c-0.2,0.5-0.3,0.8-0.4,1.1c-0.1,0.3-0.1,0.3-0.3,0.8c-0.2,0.4-0.3,0.8-0.4,1l-0.3-0.6l-1-2.5H211c-1.4-4.4-3.3-8.7-5.7-12.6
		c-0.4-0.6-1.8-2.3-1.2-1.8c2.9,1.1,5.6,2.5,8.2,4.2c0.5,0.4,1.1,0.7,1.7,1c0.7,0.3,1.4,0.2,2-0.2c0.6-0.5,0.9-1.4,0.7-2.2
		c-0.2-0.8-0.7-1.5-1.3-2c-1.3-1.2-2.7-2.2-4.2-3.1c-8-4.6-16.4-8.3-25.2-10.9c1.1-5.4,2.2-10.8,3.3-16.1c0.1-0.4,0.2-0.7,0.2-1.1
		c1.2-5.7,2.4-11.5,3.5-17.2c-0.4,0.5-2.1,2.4-3,3.5c-3.9,4.6-7.6,9.5-10.9,14.5c-0.1,0.1-0.1,0.2-0.2,0.3c-0.7-0.1-1.4-0.1-2-0.1
		c-0.1-0.1-0.1-0.3-0.2-0.4c0-0.1-0.1-0.2-0.2-0.4c-0.3-0.7-0.5-1-0.5-1l-0.3-0.7l-12.3-0.5c-1.8-1-3.1-1.9-4.1-2.5
		c-0.9-0.6-1.2-0.8-3.5-2.4c-0.9-0.6-1.3-0.9-2-1.4s-1.2-0.9-2.4-1.8c-2.1-1.7-3.2-2.5-3.4-2.7c-0.7-0.6-1.7-1.4-2.8-2.4
		c0.1-0.2,0.2-0.4,0.4-0.5c2-2.3,4.2-4.6,6.5-6.7c5.2-4.7,9.8-8.7,13.8-11.9c0.8-0.6,1.5-1.2,2.2-1.8c1.8-1.4,13.3-10.4,23-14.8
		c2.4-1.1,4.9-1.9,7.4-2.6c7.6-1.7,15.4-2.1,23.2-1.2c5,15,28.9,9,28.9,0.3c1.6,0.2,4,0.5,6.9,0.8c6,0.7,8.9,1.1,11.9,1.4
		c4.2,0.5,7.5,0.8,11.4,1.1c4,0.3,9,0.5,18.9,0.9c5.8,0.2,6.8,0.2,10.8,0.4c4.8,0.2,8.8,0.5,11.5,0.6
		C322.7,136.8,322.5,143.6,321.6,150.4z"/>
	<path class="st29" d="M224,164.6c-0.2,0-0.3,0-0.5-0.1c-0.3-0.2-0.6-0.4-0.8-0.6c-0.5-0.4-0.7-0.5-0.8-0.6c-0.1,0-0.1-0.1-0.1-0.1
		l0,0c-0.4-0.2-0.8-0.2-1.2-0.2c-0.4,0-0.8,0.1-1.3-0.2c-0.4-0.3-0.7-0.6-0.8-1.1c-0.1-0.3-0.1-0.6,0-1c0.1-0.4,0.4-0.7,0.7-0.9
		c0.4-0.2,0.7-0.2,0.9-0.2c0.2,0,0.4,0,0.4-0.1c0.1-0.1,0-0.2,0-0.4c-0.1-0.2-0.2-0.6-0.2-1c0-0.4,0.2-0.8,0.4-1.2
		c0.3-0.5,0.8-0.8,1.3-1c0.7-0.1,1.4,0.1,1.9,0.6c0.2,0.3,0.4,0.6,0.5,0.9c0,0,0,0,0,0c0.2-0.1,0.5-0.2,0.7-0.2c0,0,0,0,0,0
		c0.5,0.1,1,0.3,1.4,0.7c0.4,0.4,0.5,1,0.3,1.5c0,0.1-0.1,0.2-0.2,0.3c-0.1,0.1-0.2,0.2-0.3,0.5c-0.2,0.3-0.2,0.5-0.2,0.6
		c0,0.1,0.2,0.2,0.3,0.3c0.2,0.1,0.3,0.2,0.4,0.4l0,0c0.1,0.2,0,0.4-0.3,1c-0.2,0.5-0.5,0.9-0.9,1.3l0,0c0,0,0,0-0.1,0.1
		C225.4,164.2,224.7,164.6,224,164.6z M221.8,163c0.1,0,0.1,0,0.2,0.1c0.1,0.1,0.3,0.3,0.8,0.6c0.2,0.2,0.5,0.4,0.8,0.5
		c0.7,0.2,1.6-0.4,1.9-0.5c0.1,0,0.1-0.1,0.1-0.1c0.4-0.3,0.7-0.8,0.9-1.2c0.3-0.6,0.3-0.7,0.3-0.8c-0.1-0.1-0.2-0.2-0.3-0.3
		c-0.2-0.1-0.4-0.2-0.4-0.4l0,0c0-0.2,0-0.4,0.2-0.8c0.1-0.3,0.2-0.4,0.3-0.5c0.1-0.1,0.1-0.1,0.1-0.2c0.2-0.4,0.1-0.9-0.2-1.2
		c-0.3-0.3-0.8-0.5-1.2-0.6c-0.2,0-0.4,0.1-0.6,0.2c-0.1,0.1-0.1,0.3-0.1,0.5c0,0.1,0,0.1,0,0.2l0,0l-0.2,0l0-0.1
		c0-0.5-0.2-1-0.6-1.5c-0.4-0.4-1.1-0.6-1.7-0.5c-0.5,0.1-0.9,0.4-1.2,0.9c-0.2,0.3-0.3,0.7-0.4,1.1c0,0.4,0.1,0.7,0.1,0.9
		c0.1,0.2,0.2,0.5,0,0.7c-0.2,0.2-0.4,0.2-0.6,0.2c-0.2,0-0.5,0-0.8,0.2c-0.3,0.2-0.5,0.5-0.6,0.8c-0.1,0.3-0.1,0.5,0,0.8
		c0.1,0.4,0.4,0.7,0.7,0.9c0.4,0.2,0.7,0.2,1.1,0.1C220.9,162.8,221.3,162.8,221.8,163z"/>
	<path class="st29" d="M234.3,165.4c-0.4,0-0.7-0.1-1-0.3c-0.3-0.2-0.4-0.3-0.5-0.4c-0.1-0.1-0.2-0.2-0.4-0.4
		c-0.3-0.2-0.6-0.3-1-0.3c-0.4-0.1-0.7-0.1-0.9-0.1c-0.3,0-0.5,0-0.6-0.1c-0.2-0.3,0.1-0.7,0.5-1.2l0.1-0.1c0.3-0.4,0.6-0.7,1-0.9
		c0.3-0.2,0.6-0.2,0.8-0.3c0.2,0,0.3-0.1,0.4-0.2c0.1-0.1,0.1-0.3,0.2-0.5c0-0.2,0-0.4,0.2-0.7l0,0c0.3-0.3,0.7-0.5,1.1-0.5
		c0.3-0.1,0.6-0.2,0.9-0.2c0.4,0,0.8,0.1,1.1,0.4c0.4,0.3,0.5,0.8,0.6,1.1c0.1-0.2,0.2-0.6,0.5-0.7c0.3-0.1,0.6-0.1,0.8,0
		c0,0,0,0,0,0c0.3,0,0.6,0.1,0.9,0.2c0.4,0.2,0.7,0.6,0.8,1c0,0.3-0.1,0.6-0.3,0.9c-0.1,0.2-0.3,0.4-0.4,0.5
		c-0.1,0.1-0.1,0.1-0.1,0.2c0,0.1,0.1,0.1,0.2,0.2c0.1,0.1,0.3,0.2,0.3,0.5c0.1,0.4,0,0.7-0.2,1c-0.2,0.3-0.5,0.6-0.9,0.7
		c-0.4,0.1-0.7,0.1-1.1,0c-0.3-0.1-0.4-0.1-0.6-0.2c-0.1-0.1-0.2-0.1-0.3-0.1c-0.1,0-0.2,0-0.4,0.1c-0.1,0-0.2,0.1-0.4,0.2
		C235.2,165.2,234.8,165.4,234.3,165.4z M230.7,163.6c0.2,0,0.4,0,0.7,0.1c0.4,0.1,0.7,0.2,1,0.4c0.3,0.2,0.4,0.3,0.5,0.4
		c0.1,0.1,0.2,0.3,0.5,0.4c0.3,0.2,0.6,0.3,0.9,0.3c0.4,0,0.8-0.1,1.2-0.3c0.2-0.1,0.3-0.1,0.4-0.2c0.2-0.1,0.3-0.1,0.5-0.1
		c0.1,0,0.3,0,0.4,0.1c0.1,0.1,0.3,0.1,0.6,0.2c0.3,0.1,0.6,0.1,0.9,0c0.3-0.1,0.6-0.3,0.8-0.6c0.2-0.2,0.2-0.5,0.2-0.8
		c-0.1-0.2-0.2-0.3-0.3-0.4c-0.1-0.1-0.2-0.2-0.2-0.4c0-0.2,0.1-0.3,0.2-0.4c0.1-0.1,0.2-0.2,0.3-0.4c0.2-0.2,0.2-0.4,0.2-0.7
		c-0.1-0.3-0.3-0.6-0.6-0.8c-0.3-0.1-0.5-0.2-0.8-0.2c-0.3-0.1-0.5-0.1-0.7,0c-0.2,0.1-0.3,0.4-0.4,0.6c-0.1,0.2-0.1,0.3-0.3,0.3
		c-0.1,0-0.2-0.2-0.2-0.3c0-0.3-0.1-0.7-0.5-0.9c-0.3-0.2-0.6-0.3-0.9-0.3c-0.3,0-0.6,0.1-0.8,0.2c-0.4,0.1-0.7,0.3-0.9,0.5
		c-0.1,0.2-0.2,0.4-0.2,0.6c0,0.2,0,0.4-0.2,0.6l0,0c-0.2,0.2-0.4,0.2-0.6,0.3c-0.2,0-0.4,0.1-0.7,0.2c-0.4,0.2-0.7,0.5-0.9,0.9
		l-0.1,0.1c-0.3,0.4-0.6,0.8-0.5,0.9c0,0.1,0.1,0.1,0.4,0C230.6,163.6,230.6,163.6,230.7,163.6z"/>
	<path class="st29" d="M231.2,158.6c-0.1,0-0.2,0-0.3-0.1l0,0c-0.2-0.1-0.3-0.3-0.3-0.6c0-0.2-0.1-0.5-0.3-0.8
		c-0.2-0.3-0.5-0.6-0.8-0.8c-0.3-0.3-0.5-0.4-0.7-0.5c-0.2-0.1-0.3-0.2-0.5-0.4c-0.4-0.4-0.6-0.8-0.6-1.4c0-0.3,0.1-0.7,0.4-0.9
		c0.3-0.2,0.6-0.2,0.9-0.2c0.1,0,0.3,0,0.3,0c0,0-0.1-0.1-0.2-0.2c-0.2-0.2-0.4-0.4-0.5-0.8c-0.1-0.4,0-0.9,0.2-1.3
		c0.4-0.5,1-0.8,1.6-0.8c0.5-0.2,1.1-0.2,1.7-0.1c0.2,0.1,0.4,0.2,0.5,0.3c0.1,0.1,0.2,0.1,0.3,0.2c0.2,0,0.4,0,0.6-0.1
		c0.2-0.1,0.4-0.2,0.8-0.2c0.4,0,0.7,0.2,1,0.4c0.3,0.2,0.6,0.5,0.7,0.9l0,0c0.2,0.4,0.4,0.6,0.4,0.8c0,0.3-0.1,0.6-0.3,0.8
		l-0.1,0.2c0,0.1-0.1,0.1-0.1,0.2c0.1-0.1,0.3-0.2,0.5-0.2c0.3,0,0.5,0.1,0.7,0.2c0.2,0.2,0.2,0.4,0.2,1l0,0.1c0,0.2,0,0.4,0,0.6
		c0,0.5,0,0.6-0.1,0.8c-0.2,0.3-0.6,0.4-0.9,0.5c-0.3,0-0.4,0-0.6,0c-0.1,0-0.2,0-0.3,0c-0.1,0.1-0.1,0.1-0.2,0.3
		c0,0.1-0.1,0.3-0.3,0.6c-0.1,0.3-0.4,0.5-0.6,0.7c-0.2,0.1-0.4,0.2-0.6,0.2c-0.2,0-0.4,0-0.7,0.1c-0.3,0.1-0.4,0.1-0.5,0.2
		c-0.1,0.1-0.3,0.1-0.6,0.2l0,0C231.8,158.5,231.5,158.6,231.2,158.6z M231.1,158.3c0.2,0.1,0.6,0,1.1-0.2l0,0
		c0.3-0.1,0.5-0.2,0.6-0.2c0.1-0.1,0.3-0.1,0.5-0.2c0.3-0.1,0.6-0.1,0.8-0.1c0.2,0,0.3,0,0.5-0.1c0.2-0.2,0.4-0.4,0.6-0.6
		c0.1-0.2,0.2-0.4,0.2-0.5c0.1-0.2,0.1-0.3,0.3-0.4c0.2-0.1,0.3-0.1,0.5,0c0.1,0,0.3,0.1,0.5,0c0.3,0,0.6-0.2,0.8-0.4
		c0.1-0.1,0.1-0.1,0.1-0.6c0-0.1,0-0.3,0-0.6l0-0.1c0-0.6,0-0.7-0.1-0.9c-0.2-0.1-0.4-0.2-0.6-0.2c-0.2,0-0.4,0.1-0.5,0.2
		c-0.1,0.1-0.2,0.1-0.3,0.1c-0.1-0.1-0.1-0.2,0.1-0.6l0.1-0.2c0.1-0.2,0.2-0.5,0.2-0.7c0-0.2-0.1-0.3-0.3-0.7l0,0
		c-0.2-0.3-0.4-0.6-0.7-0.8c-0.3-0.2-0.6-0.3-0.9-0.3c-0.3,0-0.5,0.1-0.7,0.2c-0.2,0.1-0.4,0.2-0.7,0.2c-0.2,0-0.4-0.1-0.5-0.2
		c-0.1-0.1-0.2-0.2-0.4-0.2c-0.5-0.1-1.1-0.1-1.6,0.1c-0.6,0.1-1.1,0.3-1.5,0.7c-0.2,0.3-0.3,0.7-0.2,1.1c0.1,0.3,0.3,0.5,0.4,0.7
		c0.1,0.2,0.3,0.3,0.2,0.5c-0.1,0.2-0.3,0.2-0.6,0.2c-0.3,0-0.5,0-0.7,0.2c-0.2,0.2-0.3,0.4-0.3,0.7c0,0.5,0.2,0.9,0.5,1.2
		c0.2,0.2,0.3,0.3,0.4,0.4c0.2,0.1,0.4,0.2,0.7,0.5c0.3,0.2,0.6,0.5,0.8,0.8c0.2,0.4,0.3,0.7,0.3,0.9
		C230.9,158.2,230.9,158.3,231.1,158.3L231.1,158.3z"/>
	<path class="st29" d="M233.9,161l-0.2-0.1c0.3-0.6,1-0.8,1.6-0.6l-0.1,0.2C234.7,160.4,234.1,160.6,233.9,161z"/>
	<path class="st29" d="M221.7,158.1l-0.2-0.1c0.2-0.6,0.9-0.9,1.5-0.8l-0.1,0.2C222.4,157.4,221.9,157.6,221.7,158.1z"/>
	<path class="st29" d="M220.3,161.8c-0.2-0.1-0.3-0.2-0.4-0.3c0,0,0-0.1,0-0.1c-0.1-0.2,0-0.3,0-0.5c0.1-0.2,0.2-0.3,0.4-0.3
		l0.1,0.2c-0.1,0-0.2,0.1-0.2,0.2c0,0.1-0.1,0.2,0,0.3c0,0,0,0,0,0.1c0,0.1,0.1,0.1,0.2,0.2L220.3,161.8z"/>
	<path class="st29" d="M230.9,152.4l-0.2,0c0-0.2,0.1-0.5,0.3-0.6c0.3-0.2,0.6-0.3,1-0.2l-0.1,0.2c-0.3-0.1-0.6,0-0.8,0.2
		C231,152.1,230.9,152.2,230.9,152.4z"/>
	<path class="st29" d="M230.3,151.6l-0.2-0.1c0.1-0.2,0.3-0.4,0.5-0.6c0.2-0.2,0.5-0.2,0.8-0.2l0,0.2c-0.2,0-0.4,0.1-0.6,0.2
		C230.5,151.2,230.4,151.4,230.3,151.6z"/>
	<polygon class="st29" points="236.3,155.1 236.1,154.9 236.6,154.6 236.6,154 236.8,154 236.8,154.7 	"/>
	<path class="st30" d="M234.7,170.9c-0.5-0.4-1.1-0.7-1.7-0.9c-0.5-0.2-1.1-0.3-1.6-0.4c-0.9-0.1-1.8-0.2-2.7-0.1
		c-1,0-2.1,0-3.1,0.2c-1.1,0.2-2.3,0.5-3.3,1c-1.2,0.5-2.2,1.2-3.2,2.1c0.5,0.8,1.2,1.5,2,1.9c1.5,0.8,3.1,1.2,4.7,1.3
		c2.3,0.2,4.5-0.1,6.6-0.9c1.4-0.5,2.6-1.2,3.7-2.2c0.1-0.1,0.1-0.2,0.2-0.2C235.8,171.9,235.3,171.3,234.7,170.9z"/>
	<path class="st31" d="M227.2,176c-0.5,0-1,0-1.5-0.1c-1.7-0.1-3.3-0.5-4.8-1.3c-0.9-0.4-1.6-1.1-2.1-2l0-0.1l0.1-0.1
		c1-0.8,2.1-1.5,3.2-2.1c1.1-0.5,2.2-0.8,3.3-1c1-0.1,2.1-0.2,3.2-0.2c0.9,0,1.8,0,2.7,0.2c0.6,0.1,1.1,0.2,1.7,0.4
		c0.6,0.3,1.2,0.6,1.8,1l0,0c0.6,0.4,1.2,1,1.6,1.6l0,0.1l0,0.1c-0.1,0.1-0.1,0.2-0.2,0.2c-1.1,1-2.4,1.8-3.8,2.2
		C230.8,175.7,229,176,227.2,176z M219.2,172.6c0.4,0.8,1.1,1.4,1.9,1.8c1.5,0.8,3,1.2,4.7,1.3c2.2,0.2,4.5-0.1,6.6-0.9
		c1.4-0.5,2.6-1.2,3.7-2.2c0,0,0.1-0.1,0.1-0.1c-0.4-0.6-0.9-1.1-1.5-1.5l0,0c-0.5-0.4-1.1-0.7-1.7-0.9c-0.5-0.2-1.1-0.3-1.6-0.4
		c-0.9-0.1-1.8-0.2-2.6-0.1c-1,0-2.1,0-3.1,0.2c-1.1,0.2-2.2,0.5-3.3,1C221.2,171.2,220.1,171.8,219.2,172.6z"/>
	<path class="st29" d="M218.9,172.8l-0.1-0.2c-0.1-0.2-0.2-0.4-0.2-0.6c-0.2-1,0.1-2.1,0.7-3c0.7-0.9,1.5-1.7,2.5-2.2
		c1.9-1,3.9-1.6,6.1-1.6c1.7-0.1,3.4,0,5,0.5c1.3,0.2,2.6,0.9,3.5,1.9l0,0c0.7,1.1,0.9,2.4,0.5,3.6c-0.2,0.5-0.4,0.9-0.7,1.3
		l-0.1,0.1l-0.1-0.1c-0.4-0.6-1-1.1-1.5-1.5c-0.5-0.4-1.1-0.7-1.7-0.9c-0.5-0.2-1.1-0.3-1.6-0.4c-0.9-0.1-1.8-0.2-2.6-0.1
		c-1,0-2.1,0-3.1,0.2c-1.1,0.2-2.2,0.5-3.3,1c-1.1,0.5-2.2,1.2-3.1,2L218.9,172.8z M229.1,165.4c-0.4,0-0.8,0-1.2,0
		c-2.1,0-4.1,0.6-6,1.6c-1,0.5-1.8,1.3-2.4,2.2c-0.6,0.8-0.8,1.8-0.7,2.8c0,0.1,0.1,0.3,0.1,0.4c0.9-0.8,2-1.5,3.1-2
		c1.1-0.5,2.2-0.8,3.3-1c1-0.1,2.1-0.2,3.2-0.2c0.9,0,1.8,0,2.7,0.2c0.6,0.1,1.1,0.2,1.7,0.4c0.6,0.2,1.2,0.6,1.8,1
		c0.6,0.4,1.1,0.9,1.5,1.5c0.2-0.3,0.4-0.7,0.5-1.1c0.4-1.1,0.2-2.4-0.4-3.4c-0.9-1-2.1-1.6-3.4-1.8
		C231.7,165.6,230.4,165.4,229.1,165.4z"/>
	<path class="st29" d="M230.6,182.3c-0.1,0-0.1,0-0.2,0l-6.6-0.5c-0.6,0-1.1-0.3-1.6-0.6c-0.6-0.5-1.1-1-1.5-1.6
		c-0.8-1.1-1.4-2.5-1.7-3.8c-0.3-1.2-0.3-2.5-0.2-3.7l0.2,0c-0.2,1.2-0.1,2.4,0.2,3.6c0.3,1.3,0.9,2.6,1.7,3.7
		c0.4,0.6,0.9,1.1,1.5,1.6c0.4,0.3,0.9,0.5,1.4,0.6l6.6,0.5c0.6,0.1,1.2-0.1,1.7-0.5c2.7-2.2,4.2-5.7,4.1-9.2l0.2,0
		c0.2,3.6-1.4,7.1-4.2,9.4C231.8,182.1,231.2,182.3,230.6,182.3z"/>
	<path class="st29" d="M229.1,185.1c-2.1,0-4.2-0.2-6.3-0.6c-3.8-0.6-5.2-1.1-6.1-1.6c-1.5-0.6-2.8-1.8-3.6-3.3
		c-0.5-1-0.5-2.2-0.2-3.3c0.3-0.9,0.8-1.7,1.5-2.4c0.7-0.8,1.6-1.4,2.6-1.8c0.6-0.2,1.2-0.4,1.8-0.4l0,0.2c-0.6,0.1-1.2,0.2-1.7,0.4
		c-1,0.4-1.8,1-2.5,1.7c-0.7,0.6-1.2,1.4-1.5,2.3c-0.3,1-0.2,2.1,0.2,3.1c0.8,1.4,2,2.5,3.5,3.1c0.8,0.4,2.3,1,6,1.6
		c3,0.6,6,0.7,9,0.5c2.3-0.2,4.5-0.7,6.5-1.7c1.6-0.8,3.4-1.7,4-3.5c0.3-1,0.2-2.1-0.2-3.1c-0.5-1.3-2-3.1-5.7-4c-0.1,0-0.1,0-0.2,0
		l0.1-0.2c0,0,0.1,0,0.1,0c3.8,1,5.3,2.8,5.8,4.2c0.5,1,0.5,2.2,0.2,3.3c-0.6,1.9-2.5,2.8-4.1,3.6c-2.1,1-4.3,1.6-6.7,1.7
		C231,185,230,185.1,229.1,185.1z"/>
	<g>
		<path class="st29" d="M216.2,174.2c-0.9,0.6-1.4,1.5-1.5,2.6h-0.3c-0.1-0.6,0-1.1,0.3-1.6c0.3-0.5,0.8-0.9,1.3-1.1L216.2,174.2
			L216.2,174.2z"/>
		<path class="st29" d="M214.8,176.9h-0.5l0-0.1c-0.1-0.6,0-1.2,0.3-1.7c0.3-0.5,0.8-0.9,1.4-1.2l0.1,0l0.2,0.2l0.2-0.1l-0.1,0.6
			l-0.1-0.1c-0.8,0.5-1.3,1.4-1.3,2.4L214.8,176.9z M214.5,176.6L214.5,176.6c0.2-1,0.7-1.9,1.5-2.4l0,0c-0.5,0.2-0.9,0.6-1.2,1
			C214.6,175.6,214.5,176.1,214.5,176.6z"/>
	</g>
	<g>
		<path class="st29" d="M240.7,176.9c0.7,1.1,0.4,2.5-0.7,3.2c-0.2,0.1-0.5,0.2-0.7,0.3l-0.1-0.2c0.5-0.3,0.9-0.8,1.1-1.4
			c0.2-0.5,0.3-1.1,0.1-1.7C240.5,176.9,240.6,176.9,240.7,176.9z"/>
		<path class="st29" d="M239.2,180.5L239,180l0.1-0.1c0.5-0.3,0.9-0.8,1.1-1.3c0.2-0.5,0.2-1.1,0.1-1.6l0-0.1l0.1,0
			c0.1-0.1,0.2-0.1,0.3-0.1l0.1,0l0.1,0.1c0.3,0.5,0.5,1.2,0.3,1.8c-0.1,0.6-0.5,1.2-1.1,1.5C239.8,180.3,239.6,180.4,239.2,180.5
			L239.2,180.5z M239.3,180.1L239.3,180.1c0.3,0,0.5-0.1,0.7-0.2c1-0.6,1.3-1.9,0.7-2.9c0,0-0.1,0-0.1,0c0.1,0.6,0,1.2-0.2,1.7
			C240.1,179.3,239.8,179.8,239.3,180.1z"/>
	</g>
	<path class="st29" d="M215.7,177.5c-0.1-0.2-0.1-0.5,0-0.7c0.1-0.2,0.2-0.4,0.4-0.5l0.2,0.2c-0.1,0.1-0.2,0.3-0.3,0.4
		c-0.1,0.2-0.1,0.4,0,0.6L215.7,177.5z"/>
	<path class="st3" d="M247.7,124.5c0-4-0.1-8-0.3-12.2c-0.1-3.9-0.4-7.7-0.6-11.4c1.6-1.5,2.9-3.5,3.7-5.6c0.3-0.8,0.5-1.6,0.7-2.4
		c0.2-1.2,0.1-2.5-0.2-3.7c-0.4-1.4-1.5-2.7-2.9-2.8c-0.9,0-1.7,0.4-2.3,1c-2.9,2.4-4,7.5-4.4,9.5c-0.2,0.6-0.6,1.2-0.9,1.2
		c-0.7,0-1.4-2-1.6-3.5c-0.2-2-0.1-3.9,0.1-5.9c0-1,0-1.9,0-2.9c0-0.5,0-1.1-0.1-1.6c-0.1-0.4-0.2-0.8-0.4-1.2
		c-0.2-0.5-0.5-0.9-0.9-1.4c-0.4-0.4-0.8-0.9-1.2-1.2c-2.8-2.7-9.5-3.2-13.3-0.7c-0.4,0.4-0.8,0.8-1.3,1.2c-0.2,0.1-0.3,0.2-0.5,0.4
		l-0.8,0.6c-0.3,0.3-0.6,0.5-1,0.7c-0.6,0.4-1.4,0.8-2.1,1c-0.5,0.1-1,0.2-1.6,0.3c-0.3,0.1-0.7,0.1-1,0.1c-0.4,0-0.9,0.1-1.4,0.1
		c-0.2,1.7-0.3,3.4-0.3,5.2c0,5.6,0.8,11.1,2.6,16.4c0,0.1,0.1,0.2,0.1,0.3c0.1,0.3,0.3,0.8,0.5,1.2s0.5,1.2,1.3,2.7
		c1.8,3.7,2.5,4.5,3.5,6.3c0.2,0.4,0.5,0.8,0.7,1.1c0.2,0.4,0.6,0.6,0.9,0.8c0.4,0.2,0.9,0.3,1.4,0.3c0.5,0,1.1,0,1.6,0
		c4.8-1.5,9.2-3.8,13.3-6.7c0.2-0.1,0.4-0.2,0.4-0.2s0,0.3-0.2,0.5c-2.4,3.8-7.4,7.2-13.8,8.6c-0.2,1.2-0.4,2.4-0.6,3.7"/>
	<path class="st26" d="M238.2,228.3c0,2,0,4,0,6v0.8l-48.2-1.2c-0.1-0.1-0.3-0.1-0.4-0.1l0,0c-0.2,0-0.4-0.1-0.7-0.1
		c-0.6-0.1-1.3-0.2-2.2-0.2l-66.7-2.5c0.1-2.4,0.2-4.8,0.2-7.2v-0.2c0-0.1-0.1-0.1-0.1-0.2c-1.1-3-2.3-5.9-3.5-9
		c-0.1-0.1-0.1-0.2-0.1-0.4c-0.4-1.1-0.9-2.2-1.4-3.4c-0.2-0.4-0.3-0.7-0.4-1.1c-0.2-0.6-0.4-1.1-0.7-1.6s-0.4-1-0.6-1.5
		s-0.4-0.8-0.5-1.2c-0.2-0.6-0.5-1.2-0.8-1.8c-1.5-3.6-3.1-7.1-4.6-10.6c-2.3-5.2,0-0.1,0-0.1s-0.2-0.4-0.3-0.8
		c-0.1-0.2-0.1-0.4-0.2-0.7s-0.1-0.4-0.2-0.6c0-0.1-0.1-0.3-0.1-0.4c-0.1-0.2-0.2-0.5-0.2-0.7l-0.1-0.1c-0.2-0.6-0.4-1.2-0.7-1.9
		c-1-2.9-2.2-6.2-3-7.9c-0.1-0.3-0.3-0.7-0.3-0.7c-0.2-0.4-0.2-0.5-0.3-0.7c-0.2-0.5-0.4-1.1-0.6-1.6c-0.3-1.1-0.2-1.3-0.2-1.4
		s0.3-0.1,0.6-0.1h0.7c0.2,0,0.3,0,0.5,0h0.4h7.3c2.6,0,6.9,0.2,10.6,0.3c3.3,0.1,6.2,0.1,9.2,0.1c1.7,0,3.2,0.1,4.5,0.2h0.2
		c0.7,0,1.4,0.1,1.9,0.1l26.3,1.2l12.3,0.6l0.3,0.7c0,0,0.1,0.4,0.4,1c0.1,0.1,0.1,0.2,0.1,0.4c0.1,0.1,0.1,0.3,0.2,0.4
		c1.3,2.9,4,8.9,7,15.6c5.4,11.9,11.7,25.8,12.4,27.4h8.2l1,2.2c0,0,0.3,0.4,0.4,0.5c0.1-0.2,0.3-0.5,0.5-0.7l0.7-1.5h7.3l1,2.5
		l0.3,0.6c0.1-0.2,0.2-0.6,0.4-1c0.2-0.6,0.3-0.7,0.3-0.9s0.2-0.6,0.4-1.1h7.1l0.8,2.5c0.1,0.2,0.3,0.4,0.4,0.6l0.4-0.6l0.5-2.5h7.4
		l1.1,3.9c0,0,0.1,0.2,0.1,0.6L238.2,228.3z"/>
</g>
<g id="Camada_4">
	<line class="st21" x1="21.1" y1="386.4" x2="256.1" y2="386.4"/>
	<path class="st32" d="M494.7,385.9H315"/>
	<path class="st32" d="M598.8,385.9h-74.3"/>
</g>
<g id="Camada_3">
	<path class="st33" d="M217.9,94c0,1-0.4,1.7-0.9,1.7s-0.9-0.8-0.9-1.7s0.4-1.7,0.9-1.7S217.9,93.1,217.9,94z"/>
	<path class="st33" d="M231.8,93.2c0,0.9-0.4,1.6-1,1.6s-1-0.7-1-1.6s0.5-1.6,1-1.6S231.8,92.3,231.8,93.2z"/>
	<path class="st34" d="M228.1,105.1c-0.3,1.6-1.4,3-2.9,3.6c-1.5,0.6-3.3,0.1-4.2-1.3c-0.1-0.1-0.2-0.3-0.1-0.5s0.5-0.2,0.8-0.2
		c1.1,0.3,2.3,0.1,3.4-0.5c0.8-0.4,1.5-0.9,2.1-1.5c0.2-0.2,0.5-0.7,0.9-0.4S228.2,104.9,228.1,105.1z"/>
	<path class="st35" d="M250.2,91.4c0,0.8-0.1,1.6-0.4,2.4c-0.7,2.3-2,4.3-3.8,6c-0.6,0.7-1.4,1.1-2.3,1.1c-0.8-0.2-1.4-0.8-1.6-1.6
		c-0.2-0.8-0.2-1.6,0-2.3c0-0.2,0-0.3,0.1-0.4c0.1-0.8,0.3-1.5,0.5-2.3c0-0.1,0.1-0.2,0.1-0.4l0,0l0.1-0.2c0,0,0-0.1,0-0.1
		c0-0.1,0.1-0.2,0.1-0.3c0.1-0.4,0.3-0.8,0.5-1.2c0.1-0.1,0.1-0.3,0.2-0.4c0.8-1.3,2-2.2,3.4-2.8C248.9,88.3,250.1,89.9,250.2,91.4z
		"/>
	<path class="st36" d="M245.2,92.1c-0.1,0.4-0.2,0.8-0.4,1.2c-0.7,1.5-1.5,2.9-2.3,4.3c0,0-0.1,0.2-0.2,0.2s-0.1-0.1-0.1-0.7
		c0-0.2,0-0.4,0-0.5c0.1-0.8,0.3-1.5,0.5-2.3c0-0.1,0.1-0.2,0.1-0.4l0,0l0.1-0.2c0,0,0-0.1,0-0.1c0-0.1,0.1-0.2,0.1-0.3
		c0.1-0.6,0.4-1.1,0.8-1.6c0.1-0.1,0.2-0.2,0.3-0.3c0.1-0.1,0.5-0.3,0.7-0.2S245.2,92,245.2,92.1z"/>
	<path class="st35" d="M224.5,101.2c-0.5,0.9-1.5,1.4-2.5,1.2c-0.7-0.1-1.2-0.6-1.3-1.3c0-0.4,0.1-0.9,0.3-1.3
		c0.5-1.2,0.8-2.5,1-3.8c0.1-0.7,0.1-1.3,0.1-2c0-0.6,0.2-1.1,0.8-0.5c0.2,0.2,0.4,0.5,0.4,0.7c0.2,0.4,0.4,0.8,0.6,1.2
		c0.4,0.9,0.8,1.8,1,2.8C225.2,99.3,225,100.3,224.5,101.2z"/>
	<path class="st37" d="M212.9,102.6c-3.8,0-6.9-3.1-6.9-6.9s3.1-6.9,6.9-6.9s6.9,3.1,6.9,6.9S216.7,102.6,212.9,102.6z M212.9,89.4
		c-3.5,0-6.4,2.8-6.4,6.4s2.8,6.4,6.4,6.4s6.4-2.8,6.4-6.4S216.4,89.4,212.9,89.4z"/>
	<path class="st37" d="M231.2,101.3c-3.8,0-6.9-3.1-6.9-6.8c0-3.8,3.1-6.9,6.9-6.9s6.9,3.1,6.9,6.9
		C238.1,98.2,235,101.3,231.2,101.3z M231.2,88.1c-3.5,0-6.4,2.8-6.4,6.4c0,3.5,2.8,6.3,6.4,6.3s6.4-2.8,6.4-6.3
		C237.6,90.9,234.7,88.1,231.2,88.1z"/>
	
		<rect x="237.7" y="93" transform="matrix(0.9518 -0.3068 0.3068 0.9518 -17.0927 77.7033)" class="st37" width="1.7" height="0.5"/>
	
		<rect x="219.4" y="94.4" transform="matrix(0.9984 -5.666030e-02 5.666030e-02 0.9984 -5.0034 12.7317)" class="st37" width="5.2" height="0.5"/>
	<g>
		<path class="st8" d="M220.2,89.3c-3.4-0.7-7-0.9-10.1,0.8c0,0-0.3-0.5-0.3-0.5c1.5-1.1,3.3-1.8,5.1-2.1c1.8-0.3,3.7-0.3,5.5-0.2
			L220.2,89.3L220.2,89.3z"/>
	</g>
	<g>
		<path class="st8" d="M225.9,87.3c3.6,0,7.6,0.6,10.5,3.1c0,0-0.4,0.5-0.4,0.5c-1.4-1-3.1-1.5-4.8-1.7c-1.7-0.2-3.4-0.1-5.2,0.1
			L225.9,87.3L225.9,87.3z"/>
	</g>
</g>
</svg>
